<svg width="263" height="48" viewBox="0 0 263 48" fill="none" xmlns="http://www.w3.org/2000/svg">
<path d="M18.629 0H42.1393L60.7682 46.5226H41.3091L39.3499 42.2721H20.3723L18.629 46.5226H0L18.629 0ZM35.8632 30.4173L29.8694 13.3325L23.5934 30.4173H35.8632Z" fill="white"/>
<path d="M64.7197 0H80.6921V14.0132C85.723 11.6389 89.824 10.6593 94.9876 10.6593C108.387 10.6593 116.887 17.6992 116.887 28.7238C116.887 40.2963 108.586 47.4192 95.2035 47.4192C89.2097 47.4192 85.5735 46.2403 80.2771 42.6706L80.6921 46.506H64.7197V0ZM89.824 36.3447C95.7514 36.3447 99.1052 33.7712 99.1052 29.2385C99.1052 24.7058 95.7514 22.0492 89.8904 22.0492C84.0294 22.0492 80.6091 24.7058 80.6091 29.0891C80.6091 33.7546 83.963 36.3447 89.8074 36.3447H89.824Z" fill="white"/>
<path d="M121.336 28.6738C121.336 21.1358 125.105 15.2084 131.447 12.7677C136.046 10.958 142.04 10.0448 148.599 10.0448C155.157 10.0448 161.084 10.958 165.683 12.7677C172.175 15.2749 175.795 21.1358 175.795 29.0224C175.795 36.909 172.175 42.687 165.683 45.2107C161.151 47.0205 155.008 48 148.665 48C142.323 48 136.047 47.0205 131.431 45.2107C124.806 42.6372 121.319 36.909 121.319 28.6738H121.336ZM148.615 37.872C154.194 37.872 158.029 34.2525 158.029 29.0224C158.029 23.7924 154.194 20.1728 148.615 20.1728C143.037 20.1728 139.135 23.726 139.135 28.8896C139.135 34.3355 142.904 37.8886 148.615 37.8886V37.872Z" fill="white"/>
<path d="M214.581 43.169C209.068 46.307 204.884 47.4194 198.475 47.4194C192.614 47.4194 188.364 46.2406 185.641 43.7169C183.898 42.1894 182.785 40.1638 182.221 37.5737C181.938 36.0461 181.806 33.9541 181.806 28.9897V11.5728H197.778V26.0177C197.778 30.0689 198.127 32.0779 198.957 33.6221C199.937 35.299 202.311 36.2786 205.366 36.2786C209.135 36.2786 211.991 34.8839 213.385 32.3768C214.215 30.9157 214.564 28.9565 214.564 26.0343V11.5728H230.536V46.5229H214.564V43.169H214.581Z" fill="white"/>
<path d="M252.918 46.5226C246.858 46.5226 243.919 45.6924 242.325 43.5174C241.213 41.9899 240.93 40.5122 240.93 36.2617V20.9866H235.285V11.5725H240.93V0H256.903V11.5725H262.481V20.9866H256.903V33.821C256.903 37.0255 257.534 37.5236 261.369 37.5236H262.481V46.5226H252.934H252.918Z" fill="white"/>
</svg>
