<svg width="911" height="760" viewBox="0 0 911 760" fill="none" xmlns="http://www.w3.org/2000/svg">
<path d="M494.683 95.0049H909.76V56.0415H494.683C486.106 24.3284 457.165 1.00018 422.746 1.00018C388.327 1.00018 359.386 24.3284 350.809 56.0415H272.425V12.7058H141.72V143.46H272.452V95.0049H350.836C357.449 119.523 376.319 139.005 400.418 146.587V311.407C398.176 312.818 395.935 314.257 393.749 315.751L333.405 255.397C319.571 241.56 297.16 241.56 283.326 255.397C269.492 269.233 269.492 291.648 283.326 305.485L344.334 366.503C332.077 385.348 323.251 406.601 318.713 429.431H235.266C215.705 429.431 199.851 445.288 199.851 464.852C199.851 484.417 215.705 500.274 235.266 500.274H318.713C323.417 523.906 332.686 545.879 345.607 565.222L286.591 624.248C272.757 638.085 272.757 660.5 286.591 674.336C300.425 688.172 322.836 688.172 336.67 674.336L395.686 615.31C415.026 628.233 436.995 637.531 460.623 642.208V723.677C460.623 743.241 476.477 759.098 496.039 759.098C515.6 759.098 531.454 743.241 531.454 723.677V642.208C554.28 637.669 575.529 628.814 594.371 616.583L652.115 674.336C665.949 688.172 688.36 688.172 702.194 674.336C716.028 660.5 716.028 638.085 702.194 624.248L645.115 567.159C658.727 547.345 668.494 524.709 673.364 500.274H756.811C776.372 500.274 792.226 484.417 792.226 464.852C792.226 445.288 776.372 429.431 756.811 429.431H673.364C668.66 405.799 659.391 383.826 646.47 364.483L705.486 305.457C719.32 291.62 719.32 269.205 705.486 255.369C691.652 241.533 669.241 241.533 655.407 255.369L596.391 314.395C577.051 301.472 555.082 292.174 531.454 287.497V202.043C531.454 182.479 515.6 166.622 496.039 166.622C476.477 166.622 460.623 182.479 460.623 202.043V287.497C454.979 288.632 449.418 290.043 443.995 291.676V146.891C468.647 139.558 487.959 119.883 494.683 94.9772V95.0049Z" stroke="black" stroke-width="0.75" stroke-miterlimit="10"/>
<path d="M491.611 95.0049H906.689V56.0415H491.611C483.034 24.3284 454.093 1.00018 419.674 1.00018C385.255 1.00018 356.314 24.3284 347.737 56.0415H269.353V12.7058H138.649V143.46H269.381V95.0049H347.765C354.377 119.523 373.247 139.005 397.346 146.587V311.407C395.105 312.818 392.864 314.257 390.678 315.751L330.334 255.397C316.5 241.56 294.089 241.56 280.255 255.397C266.42 269.233 266.42 291.648 280.255 305.485L341.263 366.503C329.006 385.348 320.18 406.601 315.642 429.431H232.195C212.634 429.431 196.78 445.288 196.78 464.852C196.78 484.417 212.634 500.274 232.195 500.274H315.642C320.346 523.906 329.614 545.879 342.536 565.222L283.519 624.248C269.685 638.085 269.685 660.5 283.519 674.336C297.353 688.172 319.765 688.172 333.599 674.336L392.615 615.31C411.955 628.233 433.923 637.531 457.552 642.208V723.677C457.552 743.241 473.406 759.098 492.967 759.098C512.529 759.098 528.382 743.241 528.382 723.677V642.208C551.209 637.669 572.458 628.814 591.3 616.583L649.043 674.336C662.877 688.172 685.288 688.172 699.122 674.336C712.957 660.5 712.957 638.085 699.122 624.248L642.043 567.159C655.656 547.345 665.423 524.709 670.292 500.274H753.739C773.301 500.274 789.155 484.417 789.155 464.852C789.155 445.288 773.301 429.431 753.739 429.431H670.292C665.589 405.799 656.32 383.826 643.399 364.483L702.415 305.457C716.249 291.62 716.249 269.205 702.415 255.369C688.581 241.533 666.17 241.533 652.336 255.369L593.32 314.395C573.979 301.472 552.011 292.174 528.382 287.497V202.043C528.382 182.479 512.529 166.622 492.967 166.622C473.406 166.622 457.552 182.479 457.552 202.043V287.497C451.908 288.632 446.346 290.043 440.923 291.676V146.891C465.576 139.558 484.888 119.883 491.611 94.9772V95.0049Z" stroke="#060606" stroke-width="0.75" stroke-miterlimit="10"/>
<path d="M488.54 95.0049H903.618V56.0415H488.54C479.963 24.3284 451.022 1.00018 416.603 1.00018C382.184 1.00018 353.243 24.3284 344.666 56.0415H266.282V12.7058H135.605V143.46H266.337V95.0049H344.721C351.334 119.523 370.204 139.005 394.303 146.587V311.407C392.061 312.818 389.82 314.257 387.635 315.751L327.29 255.397C313.456 241.56 291.045 241.56 277.211 255.397C263.377 269.233 263.377 291.648 277.211 305.485L338.219 366.503C325.962 385.348 317.136 406.601 312.599 429.431H229.151C209.59 429.431 193.736 445.288 193.736 464.852C193.736 484.417 209.59 500.274 229.151 500.274H312.599C317.302 523.906 326.571 545.879 339.492 565.222L280.476 624.248C266.642 638.085 266.642 660.5 280.476 674.336C294.31 688.172 316.721 688.172 330.555 674.336L389.571 615.31C408.911 628.233 430.88 637.531 454.508 642.208V723.677C454.508 743.241 470.362 759.098 489.924 759.098C509.485 759.098 525.339 743.241 525.339 723.677V642.208C548.165 637.669 569.414 628.814 588.256 616.583L646 674.336C659.834 688.172 682.245 688.172 696.079 674.336C709.913 660.5 709.913 638.085 696.079 624.248L639 567.159C652.612 547.345 662.379 524.709 667.249 500.274H750.696C770.257 500.274 786.111 484.417 786.111 464.852C786.111 445.288 770.257 429.431 750.696 429.431H667.249C662.545 405.799 653.276 383.826 640.355 364.483L699.372 305.457C713.206 291.62 713.206 269.205 699.372 255.369C685.537 241.533 663.126 241.533 649.292 255.369L590.276 314.395C570.936 301.472 548.968 292.174 525.339 287.497V202.043C525.339 182.479 509.485 166.622 489.924 166.622C470.362 166.622 454.508 182.479 454.508 202.043V287.497C448.864 288.632 443.303 290.043 437.88 291.676V146.891C462.532 139.558 481.845 119.883 488.568 94.9772L488.54 95.0049Z" stroke="#0B0B0B" stroke-width="0.75" stroke-miterlimit="10"/>
<path d="M485.498 95.0049H900.575V56.0415H485.498C476.921 24.3284 447.98 1.00018 413.56 1.00018C379.141 1.00018 350.2 24.3284 341.623 56.0415H263.239V12.7058H132.535V143.46H263.267V95.0049H341.651C348.264 119.523 367.133 139.005 391.232 146.587V311.407C388.991 312.818 386.75 314.257 384.564 315.751L324.22 255.397C310.386 241.56 287.975 241.56 274.141 255.397C260.307 269.233 260.307 291.648 274.141 305.485L335.149 366.503C322.892 385.348 314.066 406.601 309.528 429.431H226.081C206.52 429.431 190.666 445.288 190.666 464.852C190.666 484.417 206.52 500.274 226.081 500.274H309.528C314.232 523.906 323.501 545.879 336.422 565.222L277.406 624.248C263.571 638.085 263.571 660.5 277.406 674.336C291.24 688.172 313.651 688.172 327.485 674.336L386.501 615.31C405.841 628.233 427.81 637.531 451.438 642.208V723.677C451.438 743.241 467.292 759.098 486.853 759.098C506.415 759.098 522.269 743.241 522.269 723.677V642.208C545.095 637.669 566.344 628.814 585.186 616.583L642.929 674.336C656.763 688.172 679.175 688.172 693.009 674.336C706.843 660.5 706.843 638.085 693.009 624.248L635.929 567.159C649.542 547.345 659.309 524.709 664.179 500.274H747.626C767.187 500.274 783.041 484.417 783.041 464.852C783.041 445.288 767.187 429.431 747.626 429.431H664.179C659.475 405.799 650.206 383.826 637.285 364.483L696.301 305.457C710.135 291.62 710.135 269.205 696.301 255.369C682.467 241.533 660.056 241.533 646.222 255.369L587.206 314.395C567.866 301.472 545.897 292.174 522.269 287.497V202.043C522.269 182.479 506.415 166.622 486.853 166.622C467.292 166.622 451.438 182.479 451.438 202.043V287.497C445.794 288.632 440.233 290.043 434.81 291.676V146.891C459.462 139.558 478.774 119.883 485.498 94.9772V95.0049Z" stroke="#111111" stroke-width="0.75" stroke-miterlimit="10"/>
<path d="M482.425 95.0049H897.503V56.0415H482.425C473.848 24.3284 444.907 1.00018 410.488 1.00018C376.069 1.00018 347.128 24.3284 338.551 56.0415H260.167V12.7058H129.49V143.46H260.222V95.0049H338.606C345.219 119.523 364.089 139.005 388.188 146.587V311.407C385.947 312.818 383.705 314.257 381.52 315.751L321.175 255.397C307.341 241.56 284.93 241.56 271.096 255.397C257.262 269.233 257.262 291.648 271.096 305.485L332.104 366.503C319.847 385.348 311.021 406.601 306.484 429.431H223.036C203.475 429.431 187.621 445.288 187.621 464.852C187.621 484.417 203.475 500.274 223.036 500.274H306.484C311.187 523.906 320.456 545.879 333.377 565.222L274.361 624.248C260.527 638.085 260.527 660.5 274.361 674.336C288.195 688.172 310.606 688.172 324.44 674.336L383.456 615.31C402.796 628.233 424.765 637.531 448.393 642.208V723.677C448.393 743.241 464.247 759.098 483.809 759.098C503.37 759.098 519.224 743.241 519.224 723.677V642.208C542.05 637.669 563.299 628.814 582.141 616.583L639.885 674.336C653.719 688.172 676.13 688.172 689.964 674.336C703.798 660.5 703.798 638.085 689.964 624.248L632.885 567.159C646.497 547.345 656.264 524.709 661.134 500.274H744.581C764.142 500.274 779.996 484.417 779.996 464.852C779.996 445.288 764.142 429.431 744.581 429.431H661.134C656.43 405.799 647.161 383.826 634.24 364.483L693.257 305.457C707.091 291.62 707.091 269.205 693.257 255.369C679.422 241.533 657.011 241.533 643.177 255.369L584.161 314.395C564.821 301.472 542.852 292.174 519.224 287.497V202.043C519.224 182.479 503.37 166.622 483.809 166.622C464.247 166.622 448.393 182.479 448.393 202.043V287.497C442.749 288.632 437.188 290.043 431.765 291.676V146.891C456.417 139.558 475.73 119.883 482.453 94.9772L482.425 95.0049Z" stroke="#161616" stroke-width="0.75" stroke-miterlimit="10"/>
<path d="M479.383 95.0049H894.46V56.0415H479.383C470.806 24.3284 441.865 1.00018 407.445 1.00018C373.026 1.00018 344.085 24.3284 335.508 56.0415H257.124V12.7058H126.42V143.46H257.152V95.0049H335.536C342.149 119.523 361.018 139.005 385.117 146.587V311.407C382.876 312.818 380.635 314.257 378.449 315.751L318.105 255.397C304.271 241.56 281.86 241.56 268.026 255.397C254.192 269.233 254.192 291.648 268.026 305.485L329.034 366.503C316.777 385.348 307.951 406.601 303.413 429.431H219.966C200.405 429.431 184.551 445.288 184.551 464.852C184.551 484.417 200.405 500.274 219.966 500.274H303.413C308.117 523.906 317.386 545.879 330.307 565.222L271.291 624.248C257.456 638.085 257.456 660.5 271.291 674.336C285.125 688.172 307.536 688.172 321.37 674.336L380.386 615.31C399.726 628.233 421.695 637.531 445.323 642.208V723.677C445.323 743.241 461.177 759.098 480.738 759.098C500.3 759.098 516.154 743.241 516.154 723.677V642.208C538.98 637.669 560.229 628.814 579.071 616.583L636.814 674.336C650.648 688.172 673.06 688.172 686.894 674.336C700.728 660.5 700.728 638.085 686.894 624.248L629.814 567.159C643.427 547.345 653.194 524.709 658.063 500.274H741.511C761.072 500.274 776.926 484.417 776.926 464.852C776.926 445.288 761.072 429.431 741.511 429.431H658.063C653.36 405.799 644.091 383.826 631.17 364.483L690.186 305.457C704.02 291.62 704.02 269.205 690.186 255.369C676.352 241.533 653.941 241.533 640.107 255.369L581.091 314.395C561.751 301.472 539.782 292.174 516.154 287.497V202.043C516.154 182.479 500.3 166.622 480.738 166.622C461.177 166.622 445.323 182.479 445.323 202.043V287.497C439.679 288.632 434.118 290.043 428.695 291.676V146.891C453.347 139.558 472.659 119.883 479.383 94.9772V95.0049Z" stroke="#1C1C1C" stroke-width="0.75" stroke-miterlimit="10"/>
<path d="M476.311 95.0049H891.389V56.0415H476.311C467.734 24.3284 438.793 1.00018 404.374 1.00018C369.955 1.00018 341.014 24.3284 332.437 56.0415H254.053V12.7058H123.349V143.46H254.081V95.0049H332.465C339.077 119.523 357.947 139.005 382.046 146.587V311.407C379.805 312.818 377.564 314.257 375.378 315.751L315.034 255.397C301.2 241.56 278.788 241.56 264.954 255.397C251.12 269.233 251.12 291.648 264.954 305.485L325.963 366.503C313.706 385.348 304.879 406.601 300.342 429.431H216.895C197.333 429.431 181.479 445.288 181.479 464.852C181.479 484.417 197.333 500.274 216.895 500.274H300.342C305.045 523.906 314.314 545.879 327.235 565.222L268.219 624.248C254.385 638.085 254.385 660.5 268.219 674.336C282.053 688.172 304.464 688.172 318.298 674.336L377.315 615.31C396.655 628.233 418.623 637.531 442.252 642.208V723.677C442.252 743.241 458.106 759.098 477.667 759.098C497.228 759.098 513.082 743.241 513.082 723.677V642.208C535.908 637.669 557.158 628.814 576 616.583L633.743 674.336C647.577 688.172 669.988 688.172 683.822 674.336C697.656 660.5 697.656 638.085 683.822 624.248L626.743 567.159C640.356 547.345 650.122 524.709 654.992 500.274H738.439C758.001 500.274 773.854 484.417 773.854 464.852C773.854 445.288 758.001 429.431 738.439 429.431H654.992C650.288 405.799 641.02 383.826 628.099 364.483L687.115 305.457C700.949 291.62 700.949 269.205 687.115 255.369C673.281 241.533 650.869 241.533 637.035 255.369L578.019 314.395C558.679 301.472 536.711 292.174 513.082 287.497V202.043C513.082 182.479 497.228 166.622 477.667 166.622C458.106 166.622 442.252 182.479 442.252 202.043V287.497C436.607 288.632 431.046 290.043 425.623 291.676V146.891C450.275 139.558 469.588 119.883 476.311 94.9772V95.0049Z" stroke="#212121" stroke-width="0.75" stroke-miterlimit="10"/>
<path d="M473.269 95.0049H888.346V56.0415H473.269C464.692 24.3284 435.751 1.00018 401.332 1.00018C366.912 1.00018 337.972 24.3284 329.394 56.0415H251.011V12.7058H120.306V143.46H251.038V95.0049H329.422C336.035 119.523 354.904 139.005 379.003 146.587V311.407C376.762 312.818 374.521 314.257 372.335 315.751L311.991 255.397C298.157 241.56 275.746 241.56 261.912 255.397C248.078 269.233 248.078 291.648 261.912 305.485L322.92 366.503C310.663 385.348 301.837 406.601 297.299 429.431H213.852C194.291 429.431 178.437 445.288 178.437 464.852C178.437 484.417 194.291 500.274 213.852 500.274H297.299C302.003 523.906 311.272 545.879 324.193 565.222L265.177 624.248C251.343 638.085 251.343 660.5 265.177 674.336C279.011 688.172 301.422 688.172 315.256 674.336L374.272 615.31C393.612 628.233 415.581 637.531 439.209 642.208V723.677C439.209 743.241 455.063 759.098 474.624 759.098C494.186 759.098 510.04 743.241 510.04 723.677V642.208C532.866 637.669 554.115 628.814 572.957 616.583L630.7 674.336C644.535 688.172 666.946 688.172 680.78 674.336C694.614 660.5 694.614 638.085 680.78 624.248L623.7 567.159C637.313 547.345 647.08 524.709 651.95 500.274H735.397C754.958 500.274 770.812 484.417 770.812 464.852C770.812 445.288 754.958 429.431 735.397 429.431H651.95C647.246 405.799 637.977 383.826 625.056 364.483L684.072 305.457C697.906 291.62 697.906 269.205 684.072 255.369C670.238 241.533 647.827 241.533 633.993 255.369L574.977 314.395C555.637 301.472 533.668 292.174 510.04 287.497V202.043C510.04 182.479 494.186 166.622 474.624 166.622C455.063 166.622 439.209 182.479 439.209 202.043V287.497C433.565 288.632 428.004 290.043 422.581 291.676V146.891C447.233 139.558 466.545 119.883 473.269 94.9772V95.0049Z" stroke="#272727" stroke-width="0.75" stroke-miterlimit="10"/>
<path d="M470.196 95.0049H885.274V56.0415H470.196C461.619 24.3284 432.678 1.00018 398.259 1.00018C363.84 1.00018 334.899 24.3284 326.322 56.0415H247.938V12.7058H117.234V143.46H247.966V95.0049H326.35C332.962 119.523 351.832 139.005 375.931 146.587V311.407C373.69 312.818 371.449 314.257 369.263 315.751L308.919 255.397C295.085 241.56 272.673 241.56 258.839 255.397C245.005 269.233 245.005 291.648 258.839 305.485L319.848 366.503C307.591 385.348 298.764 406.601 294.227 429.431H210.78C191.218 429.431 175.365 445.288 175.365 464.852C175.365 484.417 191.218 500.274 210.78 500.274H294.227C298.93 523.906 308.199 545.879 321.12 565.222L262.104 624.248C248.27 638.085 248.27 660.5 262.104 674.336C275.938 688.172 298.349 688.172 312.183 674.336L371.2 615.31C390.54 628.233 412.508 637.531 436.137 642.208V723.677C436.137 743.241 451.991 759.098 471.552 759.098C491.113 759.098 506.967 743.241 506.967 723.677V642.208C529.793 637.669 551.043 628.814 569.885 616.583L627.628 674.336C641.462 688.172 663.873 688.172 677.707 674.336C691.541 660.5 691.541 638.085 677.707 624.248L620.628 567.159C634.241 547.345 644.007 524.709 648.877 500.274H732.324C751.886 500.274 767.739 484.417 767.739 464.852C767.739 445.288 751.886 429.431 732.324 429.431H648.877C644.173 405.799 634.905 383.826 621.984 364.483L681 305.457C694.834 291.62 694.834 269.205 681 255.369C667.166 241.533 644.755 241.533 630.92 255.369L571.904 314.395C552.564 301.472 530.596 292.174 506.967 287.497V202.043C506.967 182.479 491.113 166.622 471.552 166.622C451.991 166.622 436.137 182.479 436.137 202.043V287.497C430.492 288.632 424.931 290.043 419.508 291.676V146.891C444.161 139.558 463.473 119.883 470.196 94.9772V95.0049Z" stroke="#2C2C2C" stroke-width="0.75" stroke-miterlimit="10"/>
<path d="M467.126 95.0049H882.204V56.0415H467.126C458.549 24.3284 429.608 1.00018 395.189 1.00018C360.77 1.00018 331.829 24.3284 323.252 56.0415H244.868V12.7058H114.191V143.46H244.923V95.0049H323.307C329.92 119.523 348.789 139.005 372.888 146.587V311.407C370.647 312.818 368.406 314.257 366.22 315.751L305.876 255.397C292.042 241.56 269.631 241.56 255.797 255.397C241.963 269.233 241.963 291.648 255.797 305.485L316.805 366.503C304.548 385.348 295.722 406.601 291.184 429.431H207.737C188.176 429.431 172.322 445.288 172.322 464.852C172.322 484.417 188.176 500.274 207.737 500.274H291.184C295.888 523.906 305.157 545.879 318.078 565.222L259.062 624.248C245.228 638.085 245.228 660.5 259.062 674.336C272.896 688.172 295.307 688.172 309.141 674.336L368.157 615.31C387.497 628.233 409.466 637.531 433.094 642.208V723.677C433.094 743.241 448.948 759.098 468.51 759.098C488.071 759.098 503.925 743.241 503.925 723.677V642.208C526.751 637.669 548 628.814 566.842 616.583L624.586 674.336C638.42 688.172 660.831 688.172 674.665 674.336C688.499 660.5 688.499 638.085 674.665 624.248L617.586 567.159C631.198 547.345 640.965 524.709 645.835 500.274H729.282C748.843 500.274 764.697 484.417 764.697 464.852C764.697 445.288 748.843 429.431 729.282 429.431H645.835C641.131 405.799 631.862 383.826 618.941 364.483L677.957 305.457C691.791 291.62 691.791 269.205 677.957 255.369C664.123 241.533 641.712 241.533 627.878 255.369L568.862 314.395C549.522 301.472 527.553 292.174 503.925 287.497V202.043C503.925 182.479 488.071 166.622 468.51 166.622C448.948 166.622 433.094 182.479 433.094 202.043V287.497C427.45 288.632 421.889 290.043 416.466 291.676V146.891C441.118 139.558 460.43 119.883 467.154 94.9772L467.126 95.0049Z" stroke="#323232" stroke-width="0.75" stroke-miterlimit="10"/>
<path d="M464.082 95.0049H879.16V56.0415H464.082C455.505 24.3284 426.564 1.00018 392.145 1.00018C357.726 1.00018 328.785 24.3284 320.208 56.0415H241.824V12.7058H111.12V143.46H241.852V95.0049H320.236C326.848 119.523 345.718 139.005 369.817 146.587V311.407C367.576 312.818 365.335 314.257 363.149 315.751L302.805 255.397C288.971 241.56 266.56 241.56 252.725 255.397C238.891 269.233 238.891 291.648 252.725 305.485L313.734 366.503C301.477 385.348 292.651 406.601 288.113 429.431H204.666C185.104 429.431 169.251 445.288 169.251 464.852C169.251 484.417 185.104 500.274 204.666 500.274H288.113C292.817 523.906 302.085 545.879 315.006 565.222L255.99 624.248C242.156 638.085 242.156 660.5 255.99 674.336C269.824 688.172 292.236 688.172 306.07 674.336L365.086 615.31C384.426 628.233 406.394 637.531 430.023 642.208V723.677C430.023 743.241 445.877 759.098 465.438 759.098C484.999 759.098 500.853 743.241 500.853 723.677V642.208C523.679 637.669 544.929 628.814 563.771 616.583L621.514 674.336C635.348 688.172 657.759 688.172 671.593 674.336C685.427 660.5 685.427 638.085 671.593 624.248L614.514 567.159C628.127 547.345 637.894 524.709 642.763 500.274H726.21C745.772 500.274 761.626 484.417 761.626 464.852C761.626 445.288 745.772 429.431 726.21 429.431H642.763C638.06 405.799 628.791 383.826 615.87 364.483L674.886 305.457C688.72 291.62 688.72 269.205 674.886 255.369C661.052 241.533 638.641 241.533 624.807 255.369L565.79 314.395C546.45 301.472 524.482 292.174 500.853 287.497V202.043C500.853 182.479 484.999 166.622 465.438 166.622C445.877 166.622 430.023 182.479 430.023 202.043V287.497C424.379 288.632 418.817 290.043 413.394 291.676V146.891C438.047 139.558 457.359 119.883 464.082 94.9772V95.0049Z" stroke="#373737" stroke-width="0.75" stroke-miterlimit="10"/>
<path d="M461.01 95.0049H876.088V56.0415H461.01C452.433 24.3284 423.492 1.00018 389.073 1.00018C354.654 1.00018 325.713 24.3284 317.136 56.0415H238.752V12.7058H108.075V143.46H238.807V95.0049H317.191C323.804 119.523 342.673 139.005 366.772 146.587V311.407C364.531 312.818 362.29 314.257 360.104 315.751L299.76 255.397C285.926 241.56 263.515 241.56 249.681 255.397C235.847 269.233 235.847 291.648 249.681 305.485L310.689 366.503C298.432 385.348 289.606 406.601 285.068 429.431H201.621C182.06 429.431 166.206 445.288 166.206 464.852C166.206 484.417 182.06 500.274 201.621 500.274H285.068C289.772 523.906 299.041 545.879 311.962 565.222L252.946 624.248C239.112 638.085 239.112 660.5 252.946 674.336C266.78 688.172 289.191 688.172 303.025 674.336L362.041 615.31C381.381 628.233 403.35 637.531 426.978 642.208V723.677C426.978 743.241 442.832 759.098 462.394 759.098C481.955 759.098 497.809 743.241 497.809 723.677V642.208C520.635 637.669 541.884 628.814 560.726 616.583L618.47 674.336C632.304 688.172 654.715 688.172 668.549 674.336C682.383 660.5 682.383 638.085 668.549 624.248L611.469 567.159C625.082 547.345 634.849 524.709 639.719 500.274H723.166C742.727 500.274 758.581 484.417 758.581 464.852C758.581 445.288 742.727 429.431 723.166 429.431H639.719C635.015 405.799 625.746 383.826 612.825 364.483L671.841 305.457C685.675 291.62 685.675 269.205 671.841 255.369C658.007 241.533 635.596 241.533 621.762 255.369L562.746 314.395C543.406 301.472 521.437 292.174 497.809 287.497V202.043C497.809 182.479 481.955 166.622 462.394 166.622C442.832 166.622 426.978 182.479 426.978 202.043V287.497C421.334 288.632 415.773 290.043 410.35 291.676V146.891C435.002 139.558 454.314 119.883 461.038 94.9772L461.01 95.0049Z" stroke="#3D3D3D" stroke-width="0.75" stroke-miterlimit="10"/>
<path d="M457.967 95.0049H873.045V56.0415H457.967C449.39 24.3284 420.449 1.00018 386.03 1.00018C351.611 1.00018 322.67 24.3284 314.093 56.0415H235.709V12.7058H105.005V143.46H235.737V95.0049H314.121C320.733 119.523 339.603 139.005 363.702 146.587V311.407C361.461 312.818 359.22 314.257 357.034 315.751L296.69 255.397C282.856 241.56 260.445 241.56 246.61 255.397C232.776 269.233 232.776 291.648 246.61 305.485L307.619 366.503C295.362 385.348 286.536 406.601 281.998 429.431H198.551C178.99 429.431 163.136 445.288 163.136 464.852C163.136 484.417 178.99 500.274 198.551 500.274H281.998C286.702 523.906 295.97 545.879 308.891 565.222L249.875 624.248C236.041 638.085 236.041 660.5 249.875 674.336C263.709 688.172 286.121 688.172 299.955 674.336L358.971 615.31C378.311 628.233 400.279 637.531 423.908 642.208V723.677C423.908 743.241 439.762 759.098 459.323 759.098C478.885 759.098 494.738 743.241 494.738 723.677V642.208C517.565 637.669 538.814 628.814 557.656 616.583L615.399 674.336C629.233 688.172 651.644 688.172 665.478 674.336C679.313 660.5 679.313 638.085 665.478 624.248L608.399 567.159C622.012 547.345 631.779 524.709 636.648 500.274H720.095C739.657 500.274 755.511 484.417 755.511 464.852C755.511 445.288 739.657 429.431 720.095 429.431H636.648C631.945 405.799 622.676 383.826 609.755 364.483L668.771 305.457C682.605 291.62 682.605 269.205 668.771 255.369C654.937 241.533 632.526 241.533 618.692 255.369L559.676 314.395C540.335 301.472 518.367 292.174 494.738 287.497V202.043C494.738 182.479 478.885 166.622 459.323 166.622C439.762 166.622 423.908 182.479 423.908 202.043V287.497C418.264 288.632 412.702 290.043 407.279 291.676V146.891C431.932 139.558 451.244 119.883 457.967 94.9772V95.0049Z" stroke="#434343" stroke-width="0.75" stroke-miterlimit="10"/>
<path d="M454.897 95.0049H869.975V56.0415H454.897C446.32 24.3284 417.379 1.00018 382.96 1.00018C348.541 1.00018 319.6 24.3284 311.023 56.0415H232.639V12.7058H101.935V143.46H232.667V95.0049H311.05C317.663 119.523 336.533 139.005 360.632 146.587V311.407C358.391 312.818 356.149 314.257 353.964 315.751L293.619 255.397C279.785 241.56 257.374 241.56 243.54 255.397C229.706 269.233 229.706 291.648 243.54 305.485L304.548 366.503C292.291 385.348 283.465 406.601 278.928 429.431H195.481C175.919 429.431 160.065 445.288 160.065 464.852C160.065 484.417 175.919 500.274 195.481 500.274H278.928C283.631 523.906 292.9 545.879 305.821 565.222L246.805 624.248C232.971 638.085 232.971 660.5 246.805 674.336C260.639 688.172 283.05 688.172 296.884 674.336L355.9 615.31C375.24 628.233 397.209 637.531 420.838 642.208V723.677C420.838 743.241 436.691 759.098 456.253 759.098C475.814 759.098 491.668 743.241 491.668 723.677V642.208C514.494 637.669 535.743 628.814 554.585 616.583L612.329 674.336C626.163 688.172 648.574 688.172 662.408 674.336C676.242 660.5 676.242 638.085 662.408 624.248L605.329 567.159C618.941 547.345 628.708 524.709 633.578 500.274H717.025C736.586 500.274 752.44 484.417 752.44 464.852C752.44 445.288 736.586 429.431 717.025 429.431H633.578C628.874 405.799 619.605 383.826 606.684 364.483L665.701 305.457C679.535 291.62 679.535 269.205 665.701 255.369C651.867 241.533 629.455 241.533 615.621 255.369L556.605 314.395C537.265 301.472 515.297 292.174 491.668 287.497V202.043C491.668 182.479 475.814 166.622 456.253 166.622C436.691 166.622 420.838 182.479 420.838 202.043V287.497C415.193 288.632 409.632 290.043 404.209 291.676V146.891C428.861 139.558 448.174 119.883 454.897 94.9772V95.0049Z" stroke="#484848" stroke-width="0.75" stroke-miterlimit="10"/>
<path d="M451.852 95.0049H866.93V56.0415H451.852C443.275 24.3284 414.334 1.00018 379.915 1.00018C345.496 1.00018 316.555 24.3284 307.978 56.0415H229.594V12.7058H98.89V143.46H229.622V95.0049H308.006C314.618 119.523 333.488 139.005 357.587 146.587V311.407C355.346 312.818 353.105 314.257 350.919 315.751L290.575 255.397C276.741 241.56 254.33 241.56 240.496 255.397C226.661 269.233 226.661 291.648 240.496 305.485L301.504 366.503C289.247 385.348 280.421 406.601 275.883 429.431H192.436C172.875 429.431 157.021 445.288 157.021 464.852C157.021 484.417 172.875 500.274 192.436 500.274H275.883C280.587 523.906 289.856 545.879 302.777 565.222L243.76 624.248C229.926 638.085 229.926 660.5 243.76 674.336C257.594 688.172 280.006 688.172 293.84 674.336L352.856 615.31C372.196 628.233 394.164 637.531 417.793 642.208V723.677C417.793 743.241 433.647 759.098 453.208 759.098C472.77 759.098 488.623 743.241 488.623 723.677V642.208C511.45 637.669 532.699 628.814 551.541 616.583L609.284 674.336C623.118 688.172 645.529 688.172 659.364 674.336C673.198 660.5 673.198 638.085 659.364 624.248L602.284 567.159C615.897 547.345 625.664 524.709 630.533 500.274H713.98C733.542 500.274 749.396 484.417 749.396 464.852C749.396 445.288 733.542 429.431 713.98 429.431H630.533C625.83 405.799 616.561 383.826 603.64 364.483L662.656 305.457C676.49 291.62 676.49 269.205 662.656 255.369C648.822 241.533 626.411 241.533 612.577 255.369L553.561 314.395C534.221 301.472 512.252 292.174 488.623 287.497V202.043C488.623 182.479 472.77 166.622 453.208 166.622C433.647 166.622 417.793 182.479 417.793 202.043V287.497C412.149 288.632 406.587 290.043 401.164 291.676V146.891C425.817 139.558 445.129 119.883 451.852 94.9772V95.0049Z" stroke="#4E4E4E" stroke-width="0.75" stroke-miterlimit="10"/>
<path d="M448.781 95.0049H863.858V56.0415H448.781C440.204 24.3284 411.263 1.00018 376.844 1.00018C342.425 1.00018 313.484 24.3284 304.907 56.0415H226.523V12.7058H95.8186V143.46H226.551V95.0049H304.934C311.547 119.523 330.417 139.005 354.516 146.587V311.407C352.275 312.818 350.033 314.257 347.848 315.751L287.503 255.397C273.669 241.56 251.258 241.56 237.424 255.397C223.59 269.233 223.59 291.648 237.424 305.485L298.432 366.503C286.175 385.348 277.349 406.601 272.812 429.431H189.365C169.803 429.431 153.949 445.288 153.949 464.852C153.949 484.417 169.803 500.274 189.365 500.274H272.812C277.515 523.906 286.784 545.879 299.705 565.222L240.689 624.248C226.855 638.085 226.855 660.5 240.689 674.336C254.523 688.172 276.934 688.172 290.768 674.336L349.784 615.31C369.124 628.233 391.093 637.531 414.722 642.208V723.677C414.722 743.241 430.575 759.098 450.137 759.098C469.698 759.098 485.552 743.241 485.552 723.677V642.208C508.378 637.669 529.627 628.814 548.469 616.583L606.213 674.336C620.047 688.172 642.458 688.172 656.292 674.336C670.126 660.5 670.126 638.085 656.292 624.248L599.213 567.159C612.825 547.345 622.592 524.709 627.462 500.274H710.909C730.47 500.274 746.324 484.417 746.324 464.852C746.324 445.288 730.47 429.431 710.909 429.431H627.462C622.758 405.799 613.489 383.826 600.568 364.483L659.585 305.457C673.419 291.62 673.419 269.205 659.585 255.369C645.751 241.533 623.339 241.533 609.505 255.369L550.489 314.395C531.149 301.472 509.181 292.174 485.552 287.497V202.043C485.552 182.479 469.698 166.622 450.137 166.622C430.575 166.622 414.722 182.479 414.722 202.043V287.497C409.077 288.632 403.516 290.043 398.093 291.676V146.891C422.745 139.558 442.058 119.883 448.781 94.9772V95.0049Z" stroke="#535353" stroke-width="0.75" stroke-miterlimit="10"/>
<path d="M445.711 95.0049H860.788V56.0415H445.711C437.134 24.3284 408.193 1.00018 373.774 1.00018C339.355 1.00018 310.414 24.3284 301.837 56.0415H223.453V12.7058H92.7761V143.46H223.508V95.0049H301.892C308.505 119.523 327.374 139.005 351.473 146.587V311.407C349.232 312.818 346.991 314.257 344.805 315.751L284.461 255.397C270.627 241.56 248.216 241.56 234.382 255.397C220.548 269.233 220.548 291.648 234.382 305.485L295.39 366.503C283.133 385.348 274.307 406.601 269.769 429.431H186.322C166.761 429.431 150.907 445.288 150.907 464.852C150.907 484.417 166.761 500.274 186.322 500.274H269.769C274.473 523.906 283.742 545.879 296.663 565.222L237.647 624.248C223.812 638.085 223.812 660.5 237.647 674.336C251.481 688.172 273.892 688.172 287.726 674.336L346.742 615.31C366.082 628.233 388.051 637.531 411.679 642.208V723.677C411.679 743.241 427.533 759.098 447.094 759.098C466.656 759.098 482.51 743.241 482.51 723.677V642.208C505.336 637.669 526.585 628.814 545.427 616.583L603.17 674.336C617.004 688.172 639.416 688.172 653.25 674.336C667.084 660.5 667.084 638.085 653.25 624.248L596.17 567.159C609.783 547.345 619.55 524.709 624.419 500.274H707.867C727.428 500.274 743.282 484.417 743.282 464.852C743.282 445.288 727.428 429.431 707.867 429.431H624.419C619.716 405.799 610.447 383.826 597.526 364.483L656.542 305.457C670.376 291.62 670.376 269.205 656.542 255.369C642.708 241.533 620.297 241.533 606.463 255.369L547.447 314.395C528.107 301.472 506.138 292.174 482.51 287.497V202.043C482.51 182.479 466.656 166.622 447.094 166.622C427.533 166.622 411.679 182.479 411.679 202.043V287.497C406.035 288.632 400.474 290.043 395.051 291.676V146.891C419.703 139.558 439.015 119.883 445.739 94.9772L445.711 95.0049Z" stroke="#595959" stroke-width="0.75" stroke-miterlimit="10"/>
<path d="M442.666 95.0049H857.744V56.0415H442.666C434.089 24.3284 405.148 1.00018 370.729 1.00018C336.31 1.00018 307.369 24.3284 298.792 56.0415H220.408V12.7058H89.7036V143.46H220.436V95.0049H298.819C305.432 119.523 324.302 139.005 348.401 146.587V311.407C346.16 312.818 343.918 314.257 341.733 315.751L281.388 255.397C267.554 241.56 245.143 241.56 231.309 255.397C217.475 269.233 217.475 291.648 231.309 305.485L292.317 366.503C280.06 385.348 271.234 406.601 266.697 429.431H183.25C163.688 429.431 147.834 445.288 147.834 464.852C147.834 484.417 163.688 500.274 183.25 500.274H266.697C271.4 523.906 280.669 545.879 293.59 565.222L234.574 624.248C220.74 638.085 220.74 660.5 234.574 674.336C248.408 688.172 270.819 688.172 284.653 674.336L343.67 615.31C363.01 628.233 384.978 637.531 408.607 642.208V723.677C408.607 743.241 424.46 759.098 444.022 759.098C463.583 759.098 479.437 743.241 479.437 723.677V642.208C502.263 637.669 523.512 628.814 542.354 616.583L600.098 674.336C613.932 688.172 636.343 688.172 650.177 674.336C664.011 660.5 664.011 638.085 650.177 624.248L593.098 567.159C606.71 547.345 616.477 524.709 621.347 500.274H704.794C724.355 500.274 740.209 484.417 740.209 464.852C740.209 445.288 724.355 429.431 704.794 429.431H621.347C616.643 405.799 607.375 383.826 594.453 364.483L653.47 305.457C667.304 291.62 667.304 269.205 653.47 255.369C639.636 241.533 617.224 241.533 603.39 255.369L544.374 314.395C525.034 301.472 503.066 292.174 479.437 287.497V202.043C479.437 182.479 463.583 166.622 444.022 166.622C424.46 166.622 408.607 182.479 408.607 202.043V287.497C402.962 288.632 397.401 290.043 391.978 291.676V146.891C416.63 139.558 435.943 119.883 442.666 94.9772V95.0049Z" stroke="#5E5E5E" stroke-width="0.75" stroke-miterlimit="10"/>
<path d="M439.596 95.0049H854.674V56.0415H439.596C431.019 24.3284 402.078 1.00018 367.659 1.00018C333.24 1.00018 304.299 24.3284 295.722 56.0415H217.338V12.7058H86.6612V143.46H217.393V95.0049H295.777C302.39 119.523 321.259 139.005 345.358 146.587V311.407C343.117 312.818 340.876 314.257 338.69 315.751L278.346 255.397C264.512 241.56 242.101 241.56 228.267 255.397C214.433 269.233 214.433 291.648 228.267 305.485L289.275 366.503C277.018 385.348 268.192 406.601 263.654 429.431H180.207C160.646 429.431 144.792 445.288 144.792 464.852C144.792 484.417 160.646 500.274 180.207 500.274H263.654C268.358 523.906 277.627 545.879 290.548 565.222L231.532 624.248C217.697 638.085 217.697 660.5 231.532 674.336C245.366 688.172 267.777 688.172 281.611 674.336L340.627 615.31C359.967 628.233 381.936 637.531 405.564 642.208V723.677C405.564 743.241 421.418 759.098 440.979 759.098C460.541 759.098 476.395 743.241 476.395 723.677V642.208C499.221 637.669 520.47 628.814 539.312 616.583L597.055 674.336C610.889 688.172 633.301 688.172 647.135 674.336C660.969 660.5 660.969 638.085 647.135 624.248L590.055 567.159C603.668 547.345 613.435 524.709 618.305 500.274H701.752C721.313 500.274 737.167 484.417 737.167 464.852C737.167 445.288 721.313 429.431 701.752 429.431H618.305C613.601 405.799 604.332 383.826 591.411 364.483L650.427 305.457C664.261 291.62 664.261 269.205 650.427 255.369C636.593 241.533 614.182 241.533 600.348 255.369L541.332 314.395C521.992 301.472 500.023 292.174 476.395 287.497V202.043C476.395 182.479 460.541 166.622 440.979 166.622C421.418 166.622 405.564 182.479 405.564 202.043V287.497C399.92 288.632 394.359 290.043 388.936 291.676V146.891C413.588 139.558 432.9 119.883 439.624 94.9772L439.596 95.0049Z" stroke="#646464" stroke-width="0.75" stroke-miterlimit="10"/>
<path d="M436.552 95.0049H851.63V56.0415H436.552C427.975 24.3284 399.034 1.00018 364.615 1.00018C330.196 1.00018 301.255 24.3284 292.678 56.0415H214.294V12.7058H83.5897V143.46H214.322V95.0049H292.706C299.318 119.523 318.188 139.005 342.287 146.587V311.407C340.046 312.818 337.805 314.257 335.619 315.751L275.275 255.397C261.441 241.56 239.029 241.56 225.195 255.397C211.361 269.233 211.361 291.648 225.195 305.485L286.204 366.503C273.947 385.348 265.12 406.601 260.583 429.431H177.136C157.574 429.431 141.721 445.288 141.721 464.852C141.721 484.417 157.574 500.274 177.136 500.274H260.583C265.286 523.906 274.555 545.879 287.476 565.222L228.46 624.248C214.626 638.085 214.626 660.5 228.46 674.336C242.294 688.172 264.705 688.172 278.539 674.336L337.556 615.31C356.896 628.233 378.864 637.531 402.493 642.208V723.677C402.493 743.241 418.347 759.098 437.908 759.098C457.469 759.098 473.323 743.241 473.323 723.677V642.208C496.149 637.669 517.399 628.814 536.241 616.583L593.984 674.336C607.818 688.172 630.229 688.172 644.063 674.336C657.897 660.5 657.897 638.085 644.063 624.248L586.984 567.159C600.597 547.345 610.363 524.709 615.233 500.274H698.68C718.242 500.274 734.095 484.417 734.095 464.852C734.095 445.288 718.242 429.431 698.68 429.431H615.233C610.529 405.799 601.261 383.826 588.34 364.483L647.356 305.457C661.19 291.62 661.19 269.205 647.356 255.369C633.522 241.533 611.111 241.533 597.276 255.369L538.26 314.395C518.92 301.472 496.952 292.174 473.323 287.497V202.043C473.323 182.479 457.469 166.622 437.908 166.622C418.347 166.622 402.493 182.479 402.493 202.043V287.497C396.848 288.632 391.287 290.043 385.864 291.676V146.891C410.516 139.558 429.829 119.883 436.552 94.9772V95.0049Z" stroke="#696969" stroke-width="0.75" stroke-miterlimit="10"/>
<path d="M433.481 95.0049H848.558V56.0415H433.481C424.904 24.3284 395.963 1.00018 361.544 1.00018C327.124 1.00018 298.184 24.3284 289.606 56.0415H211.223V12.7058H80.5183V143.46H211.25V95.0049H289.634C296.247 119.523 315.116 139.005 339.215 146.587V311.407C336.974 312.818 334.733 314.257 332.547 315.751L272.203 255.397C258.369 241.56 235.958 241.56 222.124 255.397C208.29 269.233 208.29 291.648 222.124 305.485L283.132 366.503C270.875 385.348 262.049 406.601 257.511 429.431H174.064C154.503 429.431 138.649 445.288 138.649 464.852C138.649 484.417 154.503 500.274 174.064 500.274H257.511C262.215 523.906 271.484 545.879 284.405 565.222L225.389 624.248C211.555 638.085 211.555 660.5 225.389 674.336C239.223 688.172 261.634 688.172 275.468 674.336L334.484 615.31C353.824 628.233 375.793 637.531 399.421 642.208V723.677C399.421 743.241 415.275 759.098 434.837 759.098C454.398 759.098 470.252 743.241 470.252 723.677V642.208C493.078 637.669 514.327 628.814 533.169 616.583L590.913 674.336C604.747 688.172 627.158 688.172 640.992 674.336C654.826 660.5 654.826 638.085 640.992 624.248L583.912 567.159C597.525 547.345 607.292 524.709 612.162 500.274H695.609C715.17 500.274 731.024 484.417 731.024 464.852C731.024 445.288 715.17 429.431 695.609 429.431H612.162C607.458 405.799 598.189 383.826 585.268 364.483L644.284 305.457C658.118 291.62 658.118 269.205 644.284 255.369C630.45 241.533 608.039 241.533 594.205 255.369L535.189 314.395C515.849 301.472 493.88 292.174 470.252 287.497V202.043C470.252 182.479 454.398 166.622 434.837 166.622C415.275 166.622 399.421 182.479 399.421 202.043V287.497C393.777 288.632 388.216 290.043 382.793 291.676V146.891C407.445 139.558 426.757 119.883 433.481 94.9772V95.0049Z" stroke="#6F6F6F" stroke-width="0.75" stroke-miterlimit="10"/>
<path d="M430.437 95.0049H845.515V56.0415H430.437C421.86 24.3284 392.919 1.00018 358.5 1.00018C324.081 1.00018 295.14 24.3284 286.563 56.0415H208.179V12.7058H77.4748V143.46H208.207V95.0049H286.591C293.203 119.523 312.073 139.005 336.172 146.587V311.407C333.931 312.818 331.69 314.257 329.504 315.751L269.16 255.397C255.326 241.56 232.914 241.56 219.08 255.397C205.246 269.233 205.246 291.648 219.08 305.485L280.089 366.503C267.832 385.348 259.005 406.601 254.468 429.431H171.021C151.459 429.431 135.606 445.288 135.606 464.852C135.606 484.417 151.459 500.274 171.021 500.274H254.468C259.171 523.906 268.44 545.879 281.361 565.222L222.345 624.248C208.511 638.085 208.511 660.5 222.345 674.336C236.179 688.172 258.59 688.172 272.425 674.336L331.441 615.31C350.781 628.233 372.749 637.531 396.378 642.208V723.677C396.378 743.241 412.232 759.098 431.793 759.098C451.354 759.098 467.208 743.241 467.208 723.677V642.208C490.034 637.669 511.284 628.814 530.126 616.583L587.869 674.336C601.703 688.172 624.114 688.172 637.948 674.336C651.782 660.5 651.782 638.085 637.948 624.248L580.869 567.159C594.482 547.345 604.248 524.709 609.118 500.274H692.565C712.127 500.274 727.98 484.417 727.98 464.852C727.98 445.288 712.127 429.431 692.565 429.431H609.118C604.415 405.799 595.146 383.826 582.225 364.483L641.241 305.457C655.075 291.62 655.075 269.205 641.241 255.369C627.407 241.533 604.996 241.533 591.161 255.369L532.145 314.395C512.805 301.472 490.837 292.174 467.208 287.497V202.043C467.208 182.479 451.354 166.622 431.793 166.622C412.232 166.622 396.378 182.479 396.378 202.043V287.497C390.733 288.632 385.172 290.043 379.749 291.676V146.891C404.402 139.558 423.714 119.883 430.437 94.9772V95.0049Z" stroke="#747474" stroke-width="0.75" stroke-miterlimit="10"/>
<path d="M427.367 95.0049H842.444V56.0415H427.367C418.79 24.3284 389.849 1.00018 355.43 1.00018C321.011 1.00018 292.07 24.3284 283.493 56.0415H205.109V12.7058H74.4044V143.46H205.136V95.0049H283.52C290.133 119.523 309.003 139.005 333.102 146.587V311.407C330.86 312.818 328.619 314.257 326.434 315.751L266.089 255.397C252.255 241.56 229.844 241.56 216.01 255.397C202.176 269.233 202.176 291.648 216.01 305.485L277.018 366.503C264.761 385.348 255.935 406.601 251.398 429.431H167.95C148.389 429.431 132.535 445.288 132.535 464.852C132.535 484.417 148.389 500.274 167.95 500.274H251.398C256.101 523.906 265.37 545.879 278.291 565.222L219.275 624.248C205.441 638.085 205.441 660.5 219.275 674.336C233.109 688.172 255.52 688.172 269.354 674.336L328.37 615.31C347.71 628.233 369.679 637.531 393.307 642.208V723.677C393.307 743.241 409.161 759.098 428.723 759.098C448.284 759.098 464.138 743.241 464.138 723.677V642.208C486.964 637.669 508.213 628.814 527.055 616.583L584.799 674.336C598.633 688.172 621.044 688.172 634.878 674.336C648.712 660.5 648.712 638.085 634.878 624.248L577.799 567.159C591.411 547.345 601.178 524.709 606.048 500.274H689.495C709.056 500.274 724.91 484.417 724.91 464.852C724.91 445.288 709.056 429.431 689.495 429.431H606.048C601.344 405.799 592.075 383.826 579.154 364.483L638.17 305.457C652.005 291.62 652.005 269.205 638.17 255.369C624.336 241.533 601.925 241.533 588.091 255.369L529.075 314.395C509.735 301.472 487.766 292.174 464.138 287.497V202.043C464.138 182.479 448.284 166.622 428.723 166.622C409.161 166.622 393.307 182.479 393.307 202.043V287.497C387.663 288.632 382.102 290.043 376.679 291.676V146.891C401.331 139.558 420.644 119.883 427.367 94.9772V95.0049Z" stroke="#7A7A7A" stroke-width="0.75" stroke-miterlimit="10"/>
<path d="M424.295 95.0049H839.372V56.0415H424.295C415.745 24.3284 386.804 1.00018 352.385 1.00018C317.966 1.00018 289.025 24.3284 280.448 56.0415H202.064V12.7058H71.3598V143.46H202.092V95.0049H280.476C287.088 119.523 305.958 139.005 330.057 146.587V311.407C327.816 312.818 325.575 314.257 323.389 315.751L263.045 255.397C249.211 241.56 226.799 241.56 212.965 255.397C199.131 269.233 199.131 291.648 212.965 305.485L273.974 366.503C261.717 385.348 252.891 406.601 248.353 429.431H164.906C145.344 429.431 129.491 445.288 129.491 464.852C129.491 484.417 145.344 500.274 164.906 500.274H248.353C253.057 523.906 262.325 545.879 275.246 565.222L216.23 624.248C202.396 638.085 202.396 660.5 216.23 674.336C230.064 688.172 252.476 688.172 266.31 674.336L325.326 615.31C344.666 628.233 366.634 637.531 390.263 642.208V723.677C390.263 743.241 406.117 759.098 425.678 759.098C445.239 759.098 461.093 743.241 461.093 723.677V642.208C483.92 637.669 505.169 628.814 524.011 616.583L581.754 674.336C595.588 688.172 617.999 688.172 631.833 674.336C645.667 660.5 645.667 638.085 631.833 624.248L574.754 567.159C588.367 547.345 598.134 524.709 603.003 500.274H686.45C706.012 500.274 721.866 484.417 721.866 464.852C721.866 445.288 706.012 429.431 686.45 429.431H603.003C598.3 405.799 589.031 383.826 576.11 364.483L635.126 305.457C648.96 291.62 648.96 269.205 635.126 255.369C621.292 241.533 598.881 241.533 585.047 255.369L526.03 314.395C506.69 301.472 484.722 292.174 461.093 287.497V202.043C461.093 182.479 445.239 166.622 425.678 166.622C406.117 166.622 390.263 182.479 390.263 202.043V287.497C384.619 288.632 379.057 290.043 373.634 291.676V146.891C398.287 139.558 417.599 119.883 424.322 94.9772L424.295 95.0049Z" stroke="#808080" stroke-width="0.75" stroke-miterlimit="10"/>
<path d="M421.252 95.0049H836.329V56.0415H421.252C412.675 24.3284 383.734 1.00018 349.315 1.00018C314.896 1.00018 285.955 24.3284 277.378 56.0415H198.994V12.7058H68.2895V143.46H199.021V95.0049H277.405C284.018 119.523 302.888 139.005 326.987 146.587V311.407C324.745 312.818 322.504 314.257 320.319 315.751L259.974 255.397C246.14 241.56 223.729 241.56 209.895 255.397C196.061 269.233 196.061 291.648 209.895 305.485L270.903 366.503C258.646 385.348 249.82 406.601 245.283 429.431H161.835C142.274 429.431 126.42 445.288 126.42 464.852C126.42 484.417 142.274 500.274 161.835 500.274H245.283C249.986 523.906 259.255 545.879 272.176 565.222L213.16 624.248C199.326 638.085 199.326 660.5 213.16 674.336C226.994 688.172 249.405 688.172 263.239 674.336L322.255 615.31C341.595 628.233 363.564 637.531 387.193 642.208V723.677C387.193 743.241 403.046 759.098 422.608 759.098C442.169 759.098 458.023 743.241 458.023 723.677V642.208C480.849 637.669 502.098 628.814 520.94 616.583L578.684 674.336C592.518 688.172 614.929 688.172 628.763 674.336C642.597 660.5 642.597 638.085 628.763 624.248L571.684 567.159C585.296 547.345 595.063 524.709 599.933 500.274H683.38C702.941 500.274 718.795 484.417 718.795 464.852C718.795 445.288 702.941 429.431 683.38 429.431H599.933C595.229 405.799 585.96 383.826 573.039 364.483L632.056 305.457C645.89 291.62 645.89 269.205 632.056 255.369C618.221 241.533 595.81 241.533 581.976 255.369L522.96 314.395C503.62 301.472 481.652 292.174 458.023 287.497V202.043C458.023 182.479 442.169 166.622 422.608 166.622C403.046 166.622 387.193 182.479 387.193 202.043V287.497C381.548 288.632 375.987 290.043 370.564 291.676V146.891C395.216 139.558 414.529 119.883 421.252 94.9772V95.0049Z" stroke="#858585" stroke-width="0.75" stroke-miterlimit="10"/>
<path d="M418.181 95.0049H833.258V56.0415H418.181C409.631 24.3284 380.663 1.00018 346.271 1.00018C311.88 1.00018 282.911 24.3284 274.334 56.0415H195.95V12.7058H65.246V143.46H195.978V95.0049H274.362C280.974 119.523 299.844 139.005 323.943 146.587V311.407C321.702 312.818 319.461 314.257 317.275 315.751L256.931 255.397C243.097 241.56 220.686 241.56 206.852 255.397C193.017 269.233 193.017 291.648 206.852 305.485L267.86 366.503C255.603 385.348 246.777 406.601 242.239 429.431H158.792C139.231 429.431 123.377 445.288 123.377 464.852C123.377 484.417 139.231 500.274 158.792 500.274H242.239C246.943 523.906 256.211 545.879 269.133 565.222L210.116 624.248C196.282 638.085 196.282 660.5 210.116 674.336C223.95 688.172 246.362 688.172 260.196 674.336L319.212 615.31C338.552 628.233 360.52 637.531 384.149 642.208V723.677C384.149 743.241 400.003 759.098 419.564 759.098C439.126 759.098 454.979 743.241 454.979 723.677V642.208C477.806 637.669 499.055 628.814 517.897 616.583L575.64 674.336C589.474 688.172 611.885 688.172 625.72 674.336C639.554 660.5 639.554 638.085 625.72 624.248L568.64 567.159C582.253 547.345 592.02 524.709 596.889 500.274H680.336C699.898 500.274 715.752 484.417 715.752 464.852C715.752 445.288 699.898 429.431 680.336 429.431H596.889C592.186 405.799 582.917 383.826 569.996 364.483L629.012 305.457C642.846 291.62 642.846 269.205 629.012 255.369C615.178 241.533 592.767 241.533 578.933 255.369L519.917 314.395C500.576 301.472 478.608 292.174 454.979 287.497V202.043C454.979 182.479 439.126 166.622 419.564 166.622C400.003 166.622 384.149 182.479 384.149 202.043V287.497C378.505 288.632 372.943 290.043 367.52 291.676V146.891C392.173 139.558 411.485 119.883 418.208 94.9772L418.181 95.0049Z" stroke="#8B8B8B" stroke-width="0.75" stroke-miterlimit="10"/>
<path d="M415.136 95.0049H830.213V56.0415H415.136C406.559 24.3284 377.618 1.00018 343.199 1.00018C308.78 1.00018 279.839 24.3284 271.262 56.0415H192.878V12.7058H62.1735V143.46H192.905V95.0049H271.289C277.902 119.523 296.772 139.005 320.871 146.587V311.407C318.629 312.818 316.388 314.257 314.203 315.751L253.858 255.397C240.024 241.56 217.613 241.56 203.779 255.397C189.945 269.233 189.945 291.648 203.779 305.485L264.787 366.503C252.53 385.348 243.704 406.601 239.167 429.431H155.719C136.158 429.431 120.304 445.288 120.304 464.852C120.304 484.417 136.158 500.274 155.719 500.274H239.167C243.87 523.906 253.139 545.879 266.06 565.222L207.044 624.248C193.21 638.085 193.21 660.5 207.044 674.336C220.878 688.172 243.289 688.172 257.123 674.336L316.139 615.31C335.479 628.233 357.448 637.531 381.076 642.208V723.677C381.076 743.241 396.93 759.098 416.492 759.098C436.053 759.098 451.907 743.241 451.907 723.677V642.208C474.733 637.669 495.982 628.814 514.824 616.583L572.568 674.336C586.402 688.172 608.813 688.172 622.647 674.336C636.481 660.5 636.481 638.085 622.647 624.248L565.568 567.159C579.18 547.345 588.947 524.709 593.817 500.274H677.264C696.825 500.274 712.679 484.417 712.679 464.852C712.679 445.288 696.825 429.431 677.264 429.431H593.817C589.113 405.799 579.844 383.826 566.923 364.483L625.939 305.457C639.774 291.62 639.774 269.205 625.939 255.369C612.105 241.533 589.694 241.533 575.86 255.369L516.844 314.395C497.504 301.472 475.535 292.174 451.907 287.497V202.043C451.907 182.479 436.053 166.622 416.492 166.622C396.93 166.622 381.076 182.479 381.076 202.043V287.497C375.432 288.632 369.871 290.043 364.448 291.676V146.891C389.1 139.558 408.413 119.883 415.136 94.9772V95.0049Z" stroke="#909090" stroke-width="0.75" stroke-miterlimit="10"/>
<path d="M412.066 95.0049H827.143V56.0415H412.066C403.516 24.3284 374.548 1.00018 340.156 1.00018C305.765 1.00018 276.796 24.3284 268.219 56.0415H189.835V12.7058H59.1031V143.46H189.835V95.0049H268.219C274.832 119.523 293.701 139.005 317.8 146.587V311.407C315.559 312.818 313.318 314.257 311.132 315.751L250.788 255.397C236.954 241.56 214.543 241.56 200.709 255.397C186.875 269.233 186.875 291.648 200.709 305.485L261.717 366.503C249.46 385.348 240.634 406.601 236.096 429.431H152.649C133.088 429.431 117.234 445.288 117.234 464.852C117.234 484.417 133.088 500.274 152.649 500.274H236.096C240.8 523.906 250.069 545.879 262.99 565.222L203.974 624.248C190.139 638.085 190.139 660.5 203.974 674.336C217.808 688.172 240.219 688.172 254.053 674.336L313.069 615.31C332.409 628.233 354.378 637.531 378.006 642.208V723.677C378.006 743.241 393.86 759.098 413.421 759.098C432.983 759.098 448.837 743.241 448.837 723.677V642.208C471.663 637.669 492.912 628.814 511.754 616.583L569.497 674.336C583.331 688.172 605.743 688.172 619.577 674.336C633.411 660.5 633.411 638.085 619.577 624.248L562.497 567.159C576.11 547.345 585.877 524.709 590.746 500.274H674.194C693.755 500.274 709.609 484.417 709.609 464.852C709.609 445.288 693.755 429.431 674.194 429.431H590.746C586.043 405.799 576.774 383.826 563.853 364.483L622.869 305.457C636.703 291.62 636.703 269.205 622.869 255.369C609.035 241.533 586.624 241.533 572.79 255.369L513.774 314.395C494.434 301.472 472.465 292.174 448.837 287.497V202.043C448.837 182.479 432.983 166.622 413.421 166.622C393.86 166.622 378.006 182.479 378.006 202.043V287.497C372.362 288.632 366.801 290.043 361.378 291.676V146.891C386.03 139.558 405.342 119.883 412.066 94.9772V95.0049Z" stroke="#969696" stroke-width="0.75" stroke-miterlimit="10"/>
<path d="M409.023 95.0049H824.101V56.0415H409.023C400.446 24.3284 371.505 1.00018 337.086 1.00018C302.667 1.00018 273.726 24.3284 265.149 56.0415H186.765V12.7058H56.0607V143.46H186.793V95.0049H265.176C271.789 119.523 290.659 139.005 314.758 146.587V311.407C312.517 312.818 310.276 314.257 308.09 315.751L247.746 255.397C233.911 241.56 211.5 241.56 197.666 255.397C183.832 269.233 183.832 291.648 197.666 305.485L258.674 366.503C246.417 385.348 237.591 406.601 233.054 429.431H149.607C130.045 429.431 114.191 445.288 114.191 464.852C114.191 484.417 130.045 500.274 149.607 500.274H233.054C237.757 523.906 247.026 545.879 259.947 565.222L200.931 624.248C187.097 638.085 187.097 660.5 200.931 674.336C214.765 688.172 237.176 688.172 251.01 674.336L310.027 615.31C329.367 628.233 351.335 637.531 374.964 642.208V723.677C374.964 743.241 390.817 759.098 410.379 759.098C429.94 759.098 445.794 743.241 445.794 723.677V642.208C468.62 637.669 489.869 628.814 508.711 616.583L566.455 674.336C580.289 688.172 602.7 688.172 616.534 674.336C630.368 660.5 630.368 638.085 616.534 624.248L559.455 567.159C573.068 547.345 582.834 524.709 587.704 500.274H671.151C690.712 500.274 706.566 484.417 706.566 464.852C706.566 445.288 690.712 429.431 671.151 429.431H587.704C583 405.799 573.732 383.826 560.811 364.483L619.827 305.457C633.661 291.62 633.661 269.205 619.827 255.369C605.993 241.533 583.581 241.533 569.747 255.369L510.731 314.395C491.391 301.472 469.423 292.174 445.794 287.497V202.043C445.794 182.479 429.94 166.622 410.379 166.622C390.817 166.622 374.964 182.479 374.964 202.043V287.497C369.319 288.632 363.758 290.043 358.335 291.676V146.891C382.987 139.558 402.3 119.883 409.023 94.9772V95.0049Z" stroke="#9B9B9B" stroke-width="0.75" stroke-miterlimit="10"/>
<path d="M405.952 95.0049H821.029V56.0415H405.952C397.375 24.3284 368.434 1.00018 334.015 1.00018C299.595 1.00018 270.655 24.3284 262.077 56.0415H183.694V12.7058H52.9892V143.46H183.721V95.0049H262.105C268.718 119.523 287.587 139.005 311.686 146.587V311.407C309.445 312.818 307.204 314.257 305.018 315.751L244.674 255.397C230.84 241.56 208.429 241.56 194.595 255.397C180.761 269.233 180.761 291.648 194.595 305.485L255.603 366.503C243.346 385.348 234.52 406.601 229.982 429.431H146.535C126.974 429.431 111.12 445.288 111.12 464.852C111.12 484.417 126.974 500.274 146.535 500.274H229.982C234.686 523.906 243.955 545.879 256.876 565.222L197.86 624.248C184.026 638.085 184.026 660.5 197.86 674.336C211.694 688.172 234.105 688.172 247.939 674.336L306.955 615.31C326.295 628.233 348.264 637.531 371.892 642.208V723.677C371.892 743.241 387.746 759.098 407.307 759.098C426.869 759.098 442.723 743.241 442.723 723.677V642.208C465.549 637.669 486.798 628.814 505.64 616.583L563.383 674.336C577.217 688.172 599.629 688.172 613.463 674.336C627.297 660.5 627.297 638.085 613.463 624.248L556.383 567.159C569.996 547.345 579.763 524.709 584.633 500.274H668.08C687.641 500.274 703.495 484.417 703.495 464.852C703.495 445.288 687.641 429.431 668.08 429.431H584.633C579.929 405.799 570.66 383.826 557.739 364.483L616.755 305.457C630.589 291.62 630.589 269.205 616.755 255.369C602.921 241.533 580.51 241.533 566.676 255.369L507.66 314.395C488.32 301.472 466.351 292.174 442.723 287.497V202.043C442.723 182.479 426.869 166.622 407.307 166.622C387.746 166.622 371.892 182.479 371.892 202.043V287.497C366.248 288.632 360.687 290.043 355.264 291.676V146.891C379.916 139.558 399.228 119.883 405.952 94.9772V95.0049Z" stroke="#A1A1A1" stroke-width="0.75" stroke-miterlimit="10"/>
<path d="M402.879 95.0049H817.957V56.0415H402.879C394.33 24.3284 365.389 1.00018 330.97 1.00018C296.551 1.00018 267.61 24.3284 259.033 56.0415H180.649V12.7058H49.9446V143.46H180.677V95.0049H259.06C265.673 119.523 284.543 139.005 308.642 146.587V311.407C306.401 312.818 304.16 314.257 301.974 315.751L241.63 255.397C227.795 241.56 205.384 241.56 191.55 255.397C177.716 269.233 177.716 291.648 191.55 305.485L252.558 366.503C240.301 385.348 231.475 406.601 226.938 429.431H143.491C123.929 429.431 108.075 445.288 108.075 464.852C108.075 484.417 123.929 500.274 143.491 500.274H226.938C231.641 523.906 240.91 545.879 253.831 565.222L194.815 624.248C180.981 638.085 180.981 660.5 194.815 674.336C208.649 688.172 231.06 688.172 244.894 674.336L303.911 615.31C323.251 628.233 345.219 637.531 368.848 642.208V723.677C368.848 743.241 384.701 759.098 404.263 759.098C423.824 759.098 439.678 743.241 439.678 723.677V642.208C462.504 637.669 483.753 628.814 502.595 616.583L560.339 674.336C574.173 688.172 596.584 688.172 610.418 674.336C624.252 660.5 624.252 638.085 610.418 624.248L553.339 567.159C566.952 547.345 576.718 524.709 581.588 500.274H665.035C684.596 500.274 700.45 484.417 700.45 464.852C700.45 445.288 684.596 429.431 665.035 429.431H581.588C576.884 405.799 567.616 383.826 554.695 364.483L613.711 305.457C627.545 291.62 627.545 269.205 613.711 255.369C599.877 241.533 577.465 241.533 563.631 255.369L504.615 314.395C485.275 301.472 463.307 292.174 439.678 287.497V202.043C439.678 182.479 423.824 166.622 404.263 166.622C384.701 166.622 368.848 182.479 368.848 202.043V287.497C363.203 288.632 357.642 290.043 352.219 291.676V146.891C376.871 139.558 396.184 119.883 402.907 94.9772L402.879 95.0049Z" stroke="#A6A6A6" stroke-width="0.75" stroke-miterlimit="10"/>
<path d="M399.837 95.0049H814.914V56.0415H399.837C391.26 24.3284 362.319 1.00018 327.9 1.00018C293.48 1.00018 264.54 24.3284 255.962 56.0415H177.579V12.7058H46.8743V143.46H177.606V95.0049H255.99C262.603 119.523 281.472 139.005 305.571 146.587V311.407C303.33 312.818 301.089 314.257 298.903 315.751L238.559 255.397C224.725 241.56 202.314 241.56 188.48 255.397C174.646 269.233 174.646 291.648 188.48 305.485L249.488 366.503C237.231 385.348 228.405 406.601 223.867 429.431H140.42C120.859 429.431 105.005 445.288 105.005 464.852C105.005 484.417 120.859 500.274 140.42 500.274H223.867C228.571 523.906 237.84 545.879 250.761 565.222L191.745 624.248C177.911 638.085 177.911 660.5 191.745 674.336C205.579 688.172 227.99 688.172 241.824 674.336L300.84 615.31C320.18 628.233 342.149 637.531 365.777 642.208V723.677C365.777 743.241 381.631 759.098 401.192 759.098C420.754 759.098 436.608 743.241 436.608 723.677V642.208C459.434 637.669 480.683 628.814 499.525 616.583L557.268 674.336C571.103 688.172 593.514 688.172 607.348 674.336C621.182 660.5 621.182 638.085 607.348 624.248L550.268 567.159C563.881 547.345 573.648 524.709 578.518 500.274H661.965C681.526 500.274 697.38 484.417 697.38 464.852C697.38 445.288 681.526 429.431 661.965 429.431H578.518C573.814 405.799 564.545 383.826 551.624 364.483L610.64 305.457C624.474 291.62 624.474 269.205 610.64 255.369C596.806 241.533 574.395 241.533 560.561 255.369L501.545 314.395C482.205 301.472 460.236 292.174 436.608 287.497V202.043C436.608 182.479 420.754 166.622 401.192 166.622C381.631 166.622 365.777 182.479 365.777 202.043V287.497C360.133 288.632 354.572 290.043 349.149 291.676V146.891C373.801 139.558 393.113 119.883 399.837 94.9772V95.0049Z" stroke="#ACACAC" stroke-width="0.75" stroke-miterlimit="10"/>
<path d="M396.765 95.0049H811.842V56.0415H396.765C388.215 24.3284 359.247 1.00018 324.855 1.00018C290.464 1.00018 261.495 24.3284 252.918 56.0415H174.534V12.7058H43.8297V143.46H174.534V95.0049H252.918C259.531 119.523 278.4 139.005 302.499 146.587V311.407C300.258 312.818 298.017 314.257 295.831 315.751L235.487 255.397C221.653 241.56 199.242 241.56 185.408 255.397C171.574 269.233 171.574 291.648 185.408 305.485L246.416 366.503C234.159 385.348 225.333 406.601 220.795 429.431H137.348C117.787 429.431 101.933 445.288 101.933 464.852C101.933 484.417 117.787 500.274 137.348 500.274H220.795C225.499 523.906 234.768 545.879 247.689 565.222L188.672 624.248C174.838 638.085 174.838 660.5 188.672 674.336C202.506 688.172 224.918 688.172 238.752 674.336L297.768 615.31C317.108 628.233 339.076 637.531 362.705 642.208V723.677C362.705 743.241 378.559 759.098 398.12 759.098C417.682 759.098 433.535 743.241 433.535 723.677V642.208C456.362 637.669 477.611 628.814 496.453 616.583L554.196 674.336C568.03 688.172 590.442 688.172 604.276 674.336C618.11 660.5 618.11 638.085 604.276 624.248L547.196 567.159C560.809 547.345 570.576 524.709 575.445 500.274H658.893C678.454 500.274 694.308 484.417 694.308 464.852C694.308 445.288 678.454 429.431 658.893 429.431H575.445C570.742 405.799 561.473 383.826 548.552 364.483L607.568 305.457C621.402 291.62 621.402 269.205 607.568 255.369C593.734 241.533 571.323 241.533 557.489 255.369L498.473 314.395C479.133 301.472 457.164 292.174 433.535 287.497V202.043C433.535 182.479 417.682 166.622 398.12 166.622C378.559 166.622 362.705 182.479 362.705 202.043V287.497C357.061 288.632 351.499 290.043 346.076 291.676V146.891C370.729 139.558 390.041 119.883 396.765 94.9772V95.0049Z" stroke="#B1B1B1" stroke-width="0.75" stroke-miterlimit="10"/>
<path d="M393.722 95.0049H808.799V56.0415H393.722C385.145 24.3284 356.204 1.00018 321.785 1.00018C287.365 1.00018 258.425 24.3284 249.847 56.0415H171.464V12.7058H40.7593V143.46H171.491V95.0049H249.875C256.488 119.523 275.358 139.005 299.456 146.587V311.407C297.215 312.818 294.974 314.257 292.788 315.751L232.444 255.397C218.61 241.56 196.199 241.56 182.365 255.397C168.531 269.233 168.531 291.648 182.365 305.485L243.373 366.503C231.116 385.348 222.29 406.601 217.752 429.431H134.305C114.744 429.431 98.8901 445.288 98.8901 464.852C98.8901 484.417 114.744 500.274 134.305 500.274H217.752C222.456 523.906 231.725 545.879 244.646 565.222L185.63 624.248C171.796 638.085 171.796 660.5 185.63 674.336C199.464 688.172 221.875 688.172 235.709 674.336L294.725 615.31C314.065 628.233 336.034 637.531 359.662 642.208V723.677C359.662 743.241 375.516 759.098 395.078 759.098C414.639 759.098 430.493 743.241 430.493 723.677V642.208C453.319 637.669 474.568 628.814 493.41 616.583L551.154 674.336C564.988 688.172 587.399 688.172 601.233 674.336C615.067 660.5 615.067 638.085 601.233 624.248L544.153 567.159C557.766 547.345 567.533 524.709 572.403 500.274H655.85C675.411 500.274 691.265 484.417 691.265 464.852C691.265 445.288 675.411 429.431 655.85 429.431H572.403C567.699 405.799 558.43 383.826 545.509 364.483L604.525 305.457C618.359 291.62 618.359 269.205 604.525 255.369C590.691 241.533 568.28 241.533 554.446 255.369L495.43 314.395C476.09 301.472 454.121 292.174 430.493 287.497V202.043C430.493 182.479 414.639 166.622 395.078 166.622C375.516 166.622 359.662 182.479 359.662 202.043V287.497C354.018 288.632 348.457 290.043 343.034 291.676V146.891C367.686 139.558 386.998 119.883 393.722 94.9772V95.0049Z" stroke="#B7B7B7" stroke-width="0.75" stroke-miterlimit="10"/>
<path d="M390.65 95.0049H805.728V56.0415H390.65C382.101 24.3284 353.132 1.00018 318.741 1.00018C284.349 1.00018 255.381 24.3284 246.804 56.0415H168.42V12.7058H37.6879V143.46H168.42V95.0049H246.804C253.416 119.523 272.286 139.005 296.385 146.587V311.407C294.144 312.818 291.903 314.257 289.717 315.751L229.373 255.397C215.539 241.56 193.128 241.56 179.293 255.397C165.459 269.233 165.459 291.648 179.293 305.485L240.302 366.503C228.045 385.348 219.219 406.601 214.681 429.431H131.234C111.673 429.431 95.8187 445.288 95.8187 464.852C95.8187 484.417 111.673 500.274 131.234 500.274H214.681C219.385 523.906 228.653 545.879 241.574 565.222L182.558 624.248C168.724 638.085 168.724 660.5 182.558 674.336C196.392 688.172 218.804 688.172 232.638 674.336L291.654 615.31C310.994 628.233 332.962 637.531 356.591 642.208V723.677C356.591 743.241 372.445 759.098 392.006 759.098C411.567 759.098 427.421 743.241 427.421 723.677V642.208C450.248 637.669 471.497 628.814 490.339 616.583L548.082 674.336C561.916 688.172 584.327 688.172 598.161 674.336C611.996 660.5 611.996 638.085 598.161 624.248L541.082 567.159C554.695 547.345 564.462 524.709 569.331 500.274H652.778C672.34 500.274 688.194 484.417 688.194 464.852C688.194 445.288 672.34 429.431 652.778 429.431H569.331C564.628 405.799 555.359 383.826 542.438 364.483L601.454 305.457C615.288 291.62 615.288 269.205 601.454 255.369C587.62 241.533 565.209 241.533 551.375 255.369L492.358 314.395C473.018 301.472 451.05 292.174 427.421 287.497V202.043C427.421 182.479 411.567 166.622 392.006 166.622C372.445 166.622 356.591 182.479 356.591 202.043V287.497C350.947 288.632 345.385 290.043 339.962 291.676V146.891C364.615 139.558 383.927 119.883 390.65 94.9772V95.0049Z" stroke="#BCBCBC" stroke-width="0.75" stroke-miterlimit="10"/>
<path d="M387.608 95.0049H802.685V56.0415H387.608C379.031 24.3284 350.09 1.00018 315.671 1.00018C281.252 1.00018 252.311 24.3284 243.734 56.0415H165.35V12.7058H34.6455V143.46H165.377V95.0049H243.761C250.374 119.523 269.244 139.005 293.343 146.587V311.407C291.101 312.818 288.86 314.257 286.675 315.751L226.33 255.397C212.496 241.56 190.085 241.56 176.251 255.397C162.417 269.233 162.417 291.648 176.251 305.485L237.259 366.503C225.002 385.348 216.176 406.601 211.639 429.431H128.191C108.63 429.431 92.7762 445.288 92.7762 464.852C92.7762 484.417 108.63 500.274 128.191 500.274H211.639C216.342 523.906 225.611 545.879 238.532 565.222L179.516 624.248C165.682 638.085 165.682 660.5 179.516 674.336C193.35 688.172 215.761 688.172 229.595 674.336L288.611 615.31C307.951 628.233 329.92 637.531 353.548 642.208V723.677C353.548 743.241 369.402 759.098 388.964 759.098C408.525 759.098 424.379 743.241 424.379 723.677V642.208C447.205 637.669 468.454 628.814 487.296 616.583L545.04 674.336C558.874 688.172 581.285 688.172 595.119 674.336C608.953 660.5 608.953 638.085 595.119 624.248L538.04 567.159C551.652 547.345 561.419 524.709 566.289 500.274H649.736C669.297 500.274 685.151 484.417 685.151 464.852C685.151 445.288 669.297 429.431 649.736 429.431H566.289C561.585 405.799 552.316 383.826 539.395 364.483L598.412 305.457C612.246 291.62 612.246 269.205 598.412 255.369C584.577 241.533 562.166 241.533 548.332 255.369L489.316 314.395C469.976 301.472 448.007 292.174 424.379 287.497V202.043C424.379 182.479 408.525 166.622 388.964 166.622C369.402 166.622 353.548 182.479 353.548 202.043V287.497C347.904 288.632 342.343 290.043 336.92 291.676V146.891C361.572 139.558 380.885 119.883 387.608 94.9772V95.0049Z" stroke="#C2C2C2" stroke-width="0.75" stroke-miterlimit="10"/>
<path d="M384.535 95.0049H799.613V56.0415H384.535C375.958 24.3284 347.017 1.00018 312.598 1.00018C278.179 1.00018 249.238 24.3284 240.661 56.0415H162.277V12.7058H31.573V143.46H162.305V95.0049H240.689C247.301 119.523 266.171 139.005 290.27 146.587V311.407C288.029 312.818 285.788 314.257 283.602 315.751L223.258 255.397C209.424 241.56 187.013 241.56 173.179 255.397C159.344 269.233 159.344 291.648 173.179 305.485L234.187 366.503C221.93 385.348 213.104 406.601 208.566 429.431H125.119C105.558 429.431 89.7037 445.288 89.7037 464.852C89.7037 484.417 105.558 500.274 125.119 500.274H208.566C213.27 523.906 222.538 545.879 235.46 565.222L176.443 624.248C162.609 638.085 162.609 660.5 176.443 674.336C190.277 688.172 212.689 688.172 226.523 674.336L285.539 615.31C304.879 628.233 326.847 637.531 350.476 642.208V723.677C350.476 743.241 366.33 759.098 385.891 759.098C405.453 759.098 421.306 743.241 421.306 723.677V642.208C444.133 637.669 465.382 628.814 484.224 616.583L541.967 674.336C555.801 688.172 578.212 688.172 592.047 674.336C605.881 660.5 605.881 638.085 592.047 624.248L534.967 567.159C548.58 547.345 558.347 524.709 563.216 500.274H646.663C666.225 500.274 682.079 484.417 682.079 464.852C682.079 445.288 666.225 429.431 646.663 429.431H563.216C558.513 405.799 549.244 383.826 536.323 364.483L595.339 305.457C609.173 291.62 609.173 269.205 595.339 255.369C581.505 241.533 559.094 241.533 545.26 255.369L486.243 314.395C466.903 301.472 444.935 292.174 421.306 287.497V202.043C421.306 182.479 405.453 166.622 385.891 166.622C366.33 166.622 350.476 182.479 350.476 202.043V287.497C344.832 288.632 339.27 290.043 333.847 291.676V146.891C358.5 139.558 377.812 119.883 384.535 94.9772V95.0049Z" stroke="#C8C8C8" stroke-width="0.75" stroke-miterlimit="10"/>
<path d="M381.465 95.0049H796.543V56.0415H381.465C372.916 24.3284 343.975 1.00018 309.556 1.00018C275.137 1.00018 246.196 24.3284 237.619 56.0415H159.235V12.7058H28.5305V143.46H159.235V95.0049H237.619C244.231 119.523 263.101 139.005 287.2 146.587V311.407C284.959 312.818 282.718 314.257 280.532 315.751L220.188 255.397C206.354 241.56 183.942 241.56 170.108 255.397C156.274 269.233 156.274 291.648 170.108 305.485L231.117 366.503C218.86 385.348 210.034 406.601 205.496 429.431H122.049C102.487 429.431 86.6336 445.288 86.6336 464.852C86.6336 484.417 102.487 500.274 122.049 500.274H205.496C210.2 523.906 219.468 545.879 232.389 565.222L173.373 624.248C159.539 638.085 159.539 660.5 173.373 674.336C187.207 688.172 209.619 688.172 223.453 674.336L282.469 615.31C301.809 628.233 323.777 637.531 347.406 642.208V723.677C347.406 743.241 363.26 759.098 382.821 759.098C402.382 759.098 418.236 743.241 418.236 723.677V642.208C441.062 637.669 462.312 628.814 481.154 616.583L538.897 674.336C552.731 688.172 575.142 688.172 588.976 674.336C602.81 660.5 602.81 638.085 588.976 624.248L531.897 567.159C545.51 547.345 555.277 524.709 560.146 500.274H643.593C663.155 500.274 679.009 484.417 679.009 464.852C679.009 445.288 663.155 429.431 643.593 429.431H560.146C555.443 405.799 546.174 383.826 533.253 364.483L592.269 305.457C606.103 291.62 606.103 269.205 592.269 255.369C578.435 241.533 556.024 241.533 542.19 255.369L483.173 314.395C463.833 301.472 441.865 292.174 418.236 287.497V202.043C418.236 182.479 402.382 166.622 382.821 166.622C363.26 166.622 347.406 182.479 347.406 202.043V287.497C341.762 288.632 336.2 290.043 330.777 291.676V146.891C355.43 139.558 374.742 119.883 381.465 94.9772V95.0049Z" stroke="#CDCDCD" stroke-width="0.75" stroke-miterlimit="10"/>
<path d="M378.423 95.0049H793.5V56.0415H378.423C369.845 24.3284 340.905 1.00018 306.485 1.00018C272.066 1.00018 243.125 24.3284 234.548 56.0415H156.164V12.7058H25.4602V143.46H156.192V95.0049H234.576C241.189 119.523 260.058 139.005 284.157 146.587V311.407C281.916 312.818 279.675 314.257 277.489 315.751L217.145 255.397C203.311 241.56 180.9 241.56 167.066 255.397C153.232 269.233 153.232 291.648 167.066 305.485L228.074 366.503C215.817 385.348 206.991 406.601 202.453 429.431H119.006C99.4448 429.431 83.5909 445.288 83.5909 464.852C83.5909 484.417 99.4448 500.274 119.006 500.274H202.453C207.157 523.906 216.426 545.879 229.347 565.222L170.331 624.248C156.496 638.085 156.496 660.5 170.331 674.336C184.165 688.172 206.576 688.172 220.41 674.336L279.426 615.31C298.766 628.233 320.735 637.531 344.363 642.208V723.677C344.363 743.241 360.217 759.098 379.778 759.098C399.34 759.098 415.194 743.241 415.194 723.677V642.208C438.02 637.669 459.269 628.814 478.111 616.583L535.854 674.336C549.688 688.172 572.1 688.172 585.934 674.336C599.768 660.5 599.768 638.085 585.934 624.248L528.854 567.159C542.467 547.345 552.234 524.709 557.103 500.274H640.551C660.112 500.274 675.966 484.417 675.966 464.852C675.966 445.288 660.112 429.431 640.551 429.431H557.103C552.4 405.799 543.131 383.826 530.21 364.483L589.226 305.457C603.06 291.62 603.06 269.205 589.226 255.369C575.392 241.533 552.981 241.533 539.147 255.369L480.131 314.395C460.791 301.472 438.822 292.174 415.194 287.497V202.043C415.194 182.479 399.34 166.622 379.778 166.622C360.217 166.622 344.363 182.479 344.363 202.043V287.497C338.719 288.632 333.158 290.043 327.735 291.676V146.891C352.387 139.558 371.699 119.883 378.423 94.9772V95.0049Z" stroke="#D3D3D3" stroke-width="0.75" stroke-miterlimit="10"/>
<path d="M375.35 95.0049H790.428V56.0415H375.35C366.801 24.3284 337.832 1.00018 303.441 1.00018C269.049 1.00018 240.081 24.3284 231.504 56.0415H153.12V12.7058H22.4156V143.46H153.12V95.0049H231.504C238.116 119.523 256.986 139.005 281.085 146.587V311.407C278.844 312.818 276.603 314.257 274.417 315.751L214.073 255.397C200.239 241.56 177.828 241.56 163.993 255.397C150.159 269.233 150.159 291.648 163.993 305.485L225.002 366.503C212.745 385.348 203.919 406.601 199.381 429.431H115.934C96.3725 429.431 80.5187 445.288 80.5187 464.852C80.5187 484.417 96.3725 500.274 115.934 500.274H199.381C204.085 523.906 213.353 545.879 226.274 565.222L167.258 624.248C153.424 638.085 153.424 660.5 167.258 674.336C181.092 688.172 203.504 688.172 217.338 674.336L276.354 615.31C295.694 628.233 317.662 637.531 341.291 642.208V723.677C341.291 743.241 357.145 759.098 376.706 759.098C396.268 759.098 412.121 743.241 412.121 723.677V642.208C434.948 637.669 456.197 628.814 475.039 616.583L532.782 674.336C546.616 688.172 569.027 688.172 582.861 674.336C596.696 660.5 596.696 638.085 582.861 624.248L525.782 567.159C539.395 547.345 549.162 524.709 554.031 500.274H637.478C657.04 500.274 672.894 484.417 672.894 464.852C672.894 445.288 657.04 429.431 637.478 429.431H554.031C549.328 405.799 540.059 383.826 527.138 364.483L586.154 305.457C599.988 291.62 599.988 269.205 586.154 255.369C572.32 241.533 549.909 241.533 536.075 255.369L477.059 314.395C457.718 301.472 435.75 292.174 412.121 287.497V202.043C412.121 182.479 396.268 166.622 376.706 166.622C357.145 166.622 341.291 182.479 341.291 202.043V287.497C335.647 288.632 330.085 290.043 324.662 291.676V146.891C349.315 139.558 368.627 119.883 375.35 94.9772V95.0049Z" stroke="#D8D8D8" stroke-width="0.75" stroke-miterlimit="10"/>
<path d="M372.307 95.0049H787.384V56.0415H372.307C363.729 24.3284 334.789 1.00018 300.369 1.00018C265.95 1.00018 237.009 24.3284 228.432 56.0415H150.048V12.7058H19.3441V143.46H150.076V95.0049H228.46C235.073 119.523 253.942 139.005 278.041 146.587V311.407C275.8 312.818 273.559 314.257 271.373 315.751L211.029 255.397C197.195 241.56 174.784 241.56 160.95 255.397C147.116 269.233 147.116 291.648 160.95 305.485L221.958 366.503C209.701 385.348 200.875 406.601 196.337 429.431H112.89C93.3287 429.431 77.4749 445.288 77.4749 464.852C77.4749 484.417 93.3287 500.274 112.89 500.274H196.337C201.041 523.906 210.31 545.879 223.231 565.222L164.215 624.248C150.38 638.085 150.38 660.5 164.215 674.336C178.049 688.172 200.46 688.172 214.294 674.336L273.31 615.31C292.65 628.233 314.619 637.531 338.247 642.208V723.677C338.247 743.241 354.101 759.098 373.662 759.098C393.224 759.098 409.078 743.241 409.078 723.677V642.208C431.904 637.669 453.153 628.814 471.995 616.583L529.738 674.336C543.572 688.172 565.984 688.172 579.818 674.336C593.652 660.5 593.652 638.085 579.818 624.248L522.738 567.159C536.351 547.345 546.118 524.709 550.987 500.274H634.435C653.996 500.274 669.85 484.417 669.85 464.852C669.85 445.288 653.996 429.431 634.435 429.431H550.987C546.284 405.799 537.015 383.826 524.094 364.483L583.11 305.457C596.944 291.62 596.944 269.205 583.11 255.369C569.276 241.533 546.865 241.533 533.031 255.369L474.015 314.395C454.675 301.472 432.706 292.174 409.078 287.497V202.043C409.078 182.479 393.224 166.622 373.662 166.622C354.101 166.622 338.247 182.479 338.247 202.043V287.497C332.603 288.632 327.042 290.043 321.619 291.676V146.891C346.271 139.558 365.583 119.883 372.307 94.9772V95.0049Z" stroke="#DEDEDE" stroke-width="0.75" stroke-miterlimit="10"/>
<path d="M369.236 95.0049H784.314V56.0415H369.236C360.687 24.3284 331.718 1.00018 297.327 1.00018C262.935 1.00018 233.967 24.3284 225.39 56.0415H147.006V12.7058H16.2738V143.46H147.006V95.0049H225.39C232.002 119.523 250.872 139.005 274.971 146.587V311.407C272.73 312.818 270.489 314.257 268.303 315.751L207.959 255.397C194.125 241.56 171.713 241.56 157.879 255.397C144.045 269.233 144.045 291.648 157.879 305.485L218.888 366.503C206.631 385.348 197.804 406.601 193.267 429.431H109.82C90.2584 429.431 74.4046 445.288 74.4046 464.852C74.4046 484.417 90.2584 500.274 109.82 500.274H193.267C197.97 523.906 207.239 545.879 220.16 565.222L161.144 624.248C147.31 638.085 147.31 660.5 161.144 674.336C174.978 688.172 197.389 688.172 211.224 674.336L270.24 615.31C289.58 628.233 311.548 637.531 335.177 642.208V723.677C335.177 743.241 351.031 759.098 370.592 759.098C390.153 759.098 406.007 743.241 406.007 723.677V642.208C428.833 637.669 450.083 628.814 468.925 616.583L526.668 674.336C540.502 688.172 562.913 688.172 576.747 674.336C590.581 660.5 590.581 638.085 576.747 624.248L519.668 567.159C533.281 547.345 543.048 524.709 547.917 500.274H631.364C650.926 500.274 666.779 484.417 666.779 464.852C666.779 445.288 650.926 429.431 631.364 429.431H547.917C543.214 405.799 533.945 383.826 521.024 364.483L580.04 305.457C593.874 291.62 593.874 269.205 580.04 255.369C566.206 241.533 543.795 241.533 529.96 255.369L470.944 314.395C451.604 301.472 429.636 292.174 406.007 287.497V202.043C406.007 182.479 390.153 166.622 370.592 166.622C351.031 166.622 335.177 182.479 335.177 202.043V287.497C329.532 288.632 323.971 290.043 318.548 291.676V146.891C343.201 139.558 362.513 119.883 369.236 94.9772V95.0049Z" stroke="#E3E3E3" stroke-width="0.75" stroke-miterlimit="10"/>
<path d="M366.192 95.0049H781.269V56.0415H366.192C357.615 24.3284 328.674 1.00018 294.255 1.00018C259.835 1.00018 230.894 24.3284 222.317 56.0415H143.934V12.7058H13.2292V143.46H143.961V95.0049H222.345C228.958 119.523 247.827 139.005 271.926 146.587V311.407C269.685 312.818 267.444 314.257 265.258 315.751L204.914 255.397C191.08 241.56 168.669 241.56 154.835 255.397C141.001 269.233 141.001 291.648 154.835 305.485L215.843 366.503C203.586 385.348 194.76 406.601 190.222 429.431H106.775C87.2138 429.431 71.36 445.288 71.36 464.852C71.36 484.417 87.2138 500.274 106.775 500.274H190.222C194.926 523.906 204.195 545.879 217.116 565.222L158.1 624.248C144.266 638.085 144.266 660.5 158.1 674.336C171.934 688.172 194.345 688.172 208.179 674.336L267.195 615.31C286.535 628.233 308.504 637.531 332.132 642.208V723.677C332.132 743.241 347.986 759.098 367.547 759.098C387.109 759.098 402.963 743.241 402.963 723.677V642.208C425.789 637.669 447.038 628.814 465.88 616.583L523.623 674.336C537.458 688.172 559.869 688.172 573.703 674.336C587.537 660.5 587.537 638.085 573.703 624.248L516.623 567.159C530.236 547.345 540.003 524.709 544.873 500.274H628.32C647.881 500.274 663.735 484.417 663.735 464.852C663.735 445.288 647.881 429.431 628.32 429.431H544.873C540.169 405.799 530.9 383.826 517.979 364.483L576.995 305.457C590.829 291.62 590.829 269.205 576.995 255.369C563.161 241.533 540.75 241.533 526.916 255.369L467.9 314.395C448.56 301.472 426.591 292.174 402.963 287.497V202.043C402.963 182.479 387.109 166.622 367.547 166.622C347.986 166.622 332.132 182.479 332.132 202.043V287.497C326.488 288.632 320.927 290.043 315.504 291.676V146.891C340.156 139.558 359.468 119.883 366.192 94.9772V95.0049Z" stroke="#E9E9E9" stroke-width="0.75" stroke-miterlimit="10"/>
<path d="M363.121 95.0049H778.199V56.0415H363.121C354.544 24.3284 325.603 1.00018 291.184 1.00018C256.765 1.00018 227.824 24.3284 219.247 56.0415H140.863V12.7058H10.1588V143.46H140.891V95.0049H219.275C225.887 119.523 244.757 139.005 268.856 146.587V311.407C266.615 312.818 264.374 314.257 262.188 315.751L201.844 255.397C188.01 241.56 165.598 241.56 151.764 255.397C137.93 269.233 137.93 291.648 151.764 305.485L212.773 366.503C200.516 385.348 191.69 406.601 187.152 429.431H103.705C84.1435 429.431 68.2896 445.288 68.2896 464.852C68.2896 484.417 84.1435 500.274 103.705 500.274H187.152C191.856 523.906 201.124 545.879 214.045 565.222L155.029 624.248C141.195 638.085 141.195 660.5 155.029 674.336C168.863 688.172 191.274 688.172 205.109 674.336L264.125 615.31C283.465 628.233 305.433 637.531 329.062 642.208V723.677C329.062 743.241 344.916 759.098 364.477 759.098C384.038 759.098 399.892 743.241 399.892 723.677V642.208C422.718 637.669 443.968 628.814 462.81 616.583L520.553 674.336C534.387 688.172 556.798 688.172 570.632 674.336C584.466 660.5 584.466 638.085 570.632 624.248L513.553 567.159C527.166 547.345 536.933 524.709 541.802 500.274H625.249C644.811 500.274 660.664 484.417 660.664 464.852C660.664 445.288 644.811 429.431 625.249 429.431H541.802C537.099 405.799 527.83 383.826 514.909 364.483L573.925 305.457C587.759 291.62 587.759 269.205 573.925 255.369C560.091 241.533 537.68 241.533 523.846 255.369L464.829 314.395C445.489 301.472 423.521 292.174 399.892 287.497V202.043C399.892 182.479 384.038 166.622 364.477 166.622C344.916 166.622 329.062 182.479 329.062 202.043V287.497C323.418 288.632 317.856 290.043 312.433 291.676V146.891C337.086 139.558 356.398 119.883 363.121 94.9772V95.0049Z" stroke="#EEEEEE" stroke-width="0.75" stroke-miterlimit="10"/>
<path d="M360.05 95.0049H775.128V56.0415H360.05C351.501 24.3284 322.56 1.00018 288.141 1.00018C253.721 1.00018 224.781 24.3284 216.203 56.0415H137.82V12.7058H7.11532V143.46H137.82V95.0049H216.203C222.816 119.523 241.686 139.005 265.785 146.587V311.407C263.544 312.818 261.303 314.257 259.117 315.751L198.773 255.397C184.938 241.56 162.527 241.56 148.693 255.397C134.859 269.233 134.859 291.648 148.693 305.485L209.701 366.503C197.444 385.348 188.618 406.601 184.081 429.431H100.634C81.0723 429.431 65.2184 445.288 65.2184 464.852C65.2184 484.417 81.0723 500.274 100.634 500.274H184.081C188.784 523.906 198.053 545.879 210.974 565.222L151.958 624.248C138.124 638.085 138.124 660.5 151.958 674.336C165.792 688.172 188.203 688.172 202.037 674.336L261.054 615.31C280.394 628.233 302.362 637.531 325.991 642.208V723.677C325.991 743.241 341.845 759.098 361.406 759.098C380.967 759.098 396.821 743.241 396.821 723.677V642.208C419.647 637.669 440.896 628.814 459.738 616.583L517.482 674.336C531.316 688.172 553.727 688.172 567.561 674.336C581.395 660.5 581.395 638.085 567.561 624.248L510.482 567.159C524.095 547.345 533.861 524.709 538.731 500.274H622.178C641.74 500.274 657.593 484.417 657.593 464.852C657.593 445.288 641.74 429.431 622.178 429.431H538.731C534.027 405.799 524.759 383.826 511.838 364.483L570.854 305.457C584.688 291.62 584.688 269.205 570.854 255.369C557.02 241.533 534.608 241.533 520.774 255.369L461.758 314.395C442.418 301.472 420.45 292.174 396.821 287.497V202.043C396.821 182.479 380.967 166.622 361.406 166.622C341.845 166.622 325.991 182.479 325.991 202.043V287.497C320.346 288.632 314.785 290.043 309.362 291.676V146.891C334.014 139.558 353.327 119.883 360.05 94.9772V95.0049Z" stroke="#F4F4F4" stroke-width="0.75" stroke-miterlimit="10"/>
<path d="M357.005 95.0049H772.083V56.0415H357.005C348.428 24.3284 319.487 1.00018 285.068 1.00018C250.649 1.00018 221.708 24.3284 213.131 56.0415H134.747V12.7058H4.04282V143.46H134.775V95.0049H213.159C219.771 119.523 238.641 139.005 262.74 146.587V311.407C260.499 312.818 258.258 314.257 256.072 315.751L195.728 255.397C181.894 241.56 159.482 241.56 145.648 255.397C131.814 269.233 131.814 291.648 145.648 305.485L206.657 366.503C194.4 385.348 185.573 406.601 181.036 429.431H97.5888C78.0274 429.431 62.1736 445.288 62.1736 464.852C62.1736 484.417 78.0274 500.274 97.5888 500.274H181.036C185.739 523.906 195.008 545.879 207.929 565.222L148.913 624.248C135.079 638.085 135.079 660.5 148.913 674.336C162.747 688.172 185.158 688.172 198.993 674.336L258.009 615.31C277.349 628.233 299.317 637.531 322.946 642.208V723.677C322.946 743.241 338.8 759.098 358.361 759.098C377.922 759.098 393.776 743.241 393.776 723.677V642.208C416.602 637.669 437.852 628.814 456.694 616.583L514.437 674.336C528.271 688.172 550.682 688.172 564.516 674.336C578.35 660.5 578.35 638.085 564.516 624.248L507.437 567.159C521.05 547.345 530.817 524.709 535.686 500.274H619.133C638.695 500.274 654.548 484.417 654.548 464.852C654.548 445.288 638.695 429.431 619.133 429.431H535.686C530.983 405.799 521.714 383.826 508.793 364.483L567.809 305.457C581.643 291.62 581.643 269.205 567.809 255.369C553.975 241.533 531.564 241.533 517.73 255.369L458.713 314.395C439.373 301.472 417.405 292.174 393.776 287.497V202.043C393.776 182.479 377.922 166.622 358.361 166.622C338.8 166.622 322.946 182.479 322.946 202.043V287.497C317.301 288.632 311.74 290.043 306.317 291.676V146.891C330.97 139.558 350.282 119.883 357.005 94.9772V95.0049Z" stroke="#F9F9F9" stroke-width="0.75" stroke-miterlimit="10"/>
<path d="M353.935 95.0049H769.013V56.0415H353.935C345.386 24.3284 316.417 1.00018 282.026 1.00018C247.634 1.00018 218.666 24.3284 210.088 56.0415H131.705V12.7058H1.00037V143.46H131.705V95.0049H210.088C216.701 119.523 235.571 139.005 259.67 146.587V311.407C257.429 312.818 255.188 314.257 253.002 315.751L192.658 255.397C178.824 241.56 156.412 241.56 142.578 255.397C128.744 269.233 128.744 291.648 142.578 305.485L203.586 366.503C191.33 385.348 182.503 406.601 177.966 429.431H94.5187C74.9573 429.431 59.1035 445.288 59.1035 464.852C59.1035 484.417 74.9573 500.274 94.5187 500.274H177.966C182.669 523.906 191.938 545.879 204.859 565.222L145.843 624.248C132.009 638.085 132.009 660.5 145.843 674.336C159.677 688.172 182.088 688.172 195.922 674.336L254.939 615.31C274.279 628.233 296.247 637.531 319.876 642.208V723.677C319.876 743.241 335.729 759.098 355.291 759.098C374.852 759.098 390.706 743.241 390.706 723.677V642.208C413.532 637.669 434.781 628.814 453.623 616.583L511.367 674.336C525.201 688.172 547.612 688.172 561.446 674.336C575.28 660.5 575.28 638.085 561.446 624.248L504.367 567.159C517.98 547.345 527.746 524.709 532.616 500.274H616.063C635.624 500.274 651.478 484.417 651.478 464.852C651.478 445.288 635.624 429.431 616.063 429.431H532.616C527.912 405.799 518.644 383.826 505.723 364.483L564.739 305.457C578.573 291.62 578.573 269.205 564.739 255.369C550.905 241.533 528.493 241.533 514.659 255.369L455.643 314.395C436.303 301.472 414.335 292.174 390.706 287.497V202.043C390.706 182.479 374.852 166.622 355.291 166.622C335.729 166.622 319.876 182.479 319.876 202.043V287.497C314.231 288.632 308.67 290.043 303.247 291.676V146.891C327.899 139.558 347.212 119.883 353.935 94.9772V95.0049Z" stroke="white" stroke-width="0.75" stroke-miterlimit="10"/>
<path d="M353.693 56.1064L353.743 56.2913H353.935H768.762V94.7547H353.935V94.9438L353.693 94.9118C346.993 119.733 327.745 139.343 303.176 146.652L302.997 146.705V146.891V291.676V292.012L303.319 291.915C308.735 290.284 314.288 288.875 319.925 287.742L320.125 287.702V287.497V202.043C320.125 182.617 335.867 166.872 355.29 166.872C374.714 166.872 390.456 182.617 390.456 202.043V287.497V287.702L390.657 287.742C414.253 292.412 436.191 301.698 455.504 314.603L455.675 314.717L455.82 314.572L514.836 255.546C528.572 241.807 550.825 241.807 564.562 255.546C578.298 269.284 578.298 291.541 564.562 305.28L505.545 364.306L505.4 364.451L505.514 364.622C518.417 383.938 527.673 405.88 532.37 429.48L532.411 429.681H532.616H616.063C635.486 429.681 651.228 445.426 651.228 464.852C651.228 484.279 635.486 500.024 616.063 500.024H532.616H532.411L532.37 500.225C527.508 524.626 517.754 547.231 504.16 567.017L504.043 567.189L504.19 567.336L561.269 624.425C575.005 638.164 575.005 660.42 561.269 674.159C547.533 687.898 525.28 687.898 511.543 674.159L453.8 616.406L453.657 616.263L453.487 616.373C434.671 628.588 413.451 637.43 390.657 641.962L390.456 642.002V642.208V723.677C390.456 743.103 374.714 758.848 355.29 758.848C335.867 758.848 320.125 743.103 320.125 723.677V642.208V642.002L319.924 641.962C296.328 637.292 274.39 628.007 255.077 615.102L254.906 614.988L254.761 615.133L195.745 674.159C182.009 687.898 159.756 687.898 146.02 674.159C132.283 660.42 132.283 638.164 146.02 624.425L205.036 565.398L205.181 565.253L205.067 565.083C192.164 545.766 182.908 523.825 178.211 500.225L178.171 500.024H177.965H94.5183C75.095 500.024 59.3531 484.279 59.3531 464.852C59.3531 445.426 75.095 429.681 94.5183 429.681H177.965H178.171L178.211 429.48C182.742 406.682 191.556 385.458 203.796 366.639L203.906 366.47L203.763 366.326L142.755 305.308C129.018 291.569 129.018 269.312 142.755 255.573C156.491 241.835 178.744 241.835 192.48 255.573L252.825 315.928L252.971 316.074L253.143 315.957C255.325 314.466 257.563 313.029 259.803 311.618L259.919 311.544V311.406V146.587V146.403L259.744 146.348C235.726 138.791 216.92 119.375 210.33 94.9396L210.28 94.7547H210.088H131.704H131.454V95.0047V143.21H1.25V12.9556H131.454V56.0413V56.2913H131.704H210.088H210.279L210.329 56.1066C218.878 24.4996 247.75 1.25 282.025 1.25C316.301 1.25 345.173 24.4997 353.693 56.1064Z" fill="white" stroke="black" stroke-width="0.5"/>
<path d="M363.611 545.312C405.801 545.312 440.002 511.104 440.002 468.907C440.002 426.71 405.801 392.502 363.611 392.502C321.421 392.502 287.219 426.71 287.219 468.907C287.219 511.104 321.421 545.312 363.611 545.312Z" stroke="black" stroke-miterlimit="10"/>
<path d="M362.476 545.312C404.666 545.312 438.867 511.104 438.867 468.907C438.867 426.71 404.666 392.502 362.476 392.502C320.286 392.502 286.084 426.71 286.084 468.907C286.084 511.104 320.286 545.312 362.476 545.312Z" stroke="#080808" stroke-miterlimit="10"/>
<path d="M361.341 545.312C403.531 545.312 437.732 511.104 437.732 468.907C437.732 426.71 403.531 392.502 361.341 392.502C319.151 392.502 284.949 426.71 284.949 468.907C284.949 511.104 319.151 545.312 361.341 545.312Z" stroke="#101010" stroke-miterlimit="10"/>
<path d="M360.179 545.312C402.369 545.312 436.571 511.104 436.571 468.907C436.571 426.71 402.369 392.502 360.179 392.502C317.989 392.502 283.787 426.71 283.787 468.907C283.787 511.104 317.989 545.312 360.179 545.312Z" stroke="#191919" stroke-miterlimit="10"/>
<path d="M359.046 545.312C401.236 545.312 435.438 511.104 435.438 468.907C435.438 426.71 401.236 392.502 359.046 392.502C316.856 392.502 282.654 426.71 282.654 468.907C282.654 511.104 316.856 545.312 359.046 545.312Z" stroke="#212121" stroke-miterlimit="10"/>
<path d="M357.911 545.312C400.101 545.312 434.303 511.104 434.303 468.907C434.303 426.71 400.101 392.502 357.911 392.502C315.721 392.502 281.519 426.71 281.519 468.907C281.519 511.104 315.721 545.312 357.911 545.312Z" stroke="#292929" stroke-miterlimit="10"/>
<path d="M356.776 545.312C398.966 545.312 433.168 511.104 433.168 468.907C433.168 426.71 398.966 392.502 356.776 392.502C314.586 392.502 280.384 426.71 280.384 468.907C280.384 511.104 314.586 545.312 356.776 545.312Z" stroke="#313131" stroke-miterlimit="10"/>
<path d="M355.613 545.312C397.803 545.312 432.005 511.104 432.005 468.907C432.005 426.71 397.803 392.502 355.613 392.502C313.423 392.502 279.221 426.71 279.221 468.907C279.221 511.104 313.423 545.312 355.613 545.312Z" stroke="#3A3A3A" stroke-miterlimit="10"/>
<path d="M354.48 545.312C396.67 545.312 430.872 511.104 430.872 468.907C430.872 426.71 396.67 392.502 354.48 392.502C312.29 392.502 278.088 426.71 278.088 468.907C278.088 511.104 312.29 545.312 354.48 545.312Z" stroke="#424242" stroke-miterlimit="10"/>
<path d="M353.345 545.312C395.535 545.312 429.737 511.104 429.737 468.907C429.737 426.71 395.535 392.502 353.345 392.502C311.155 392.502 276.953 426.71 276.953 468.907C276.953 511.104 311.155 545.312 353.345 545.312Z" stroke="#4A4A4A" stroke-miterlimit="10"/>
<path d="M352.211 545.312C394.401 545.312 428.603 511.104 428.603 468.907C428.603 426.71 394.401 392.502 352.211 392.502C310.021 392.502 275.819 426.71 275.819 468.907C275.819 511.104 310.021 545.312 352.211 545.312Z" stroke="#525252" stroke-miterlimit="10"/>
<path d="M351.076 545.312C393.266 545.312 427.468 511.104 427.468 468.907C427.468 426.71 393.266 392.502 351.076 392.502C308.886 392.502 274.684 426.71 274.684 468.907C274.684 511.104 308.886 545.312 351.076 545.312Z" stroke="#5A5A5A" stroke-miterlimit="10"/>
<path d="M349.915 545.312C392.105 545.312 426.307 511.104 426.307 468.907C426.307 426.71 392.105 392.502 349.915 392.502C307.725 392.502 273.524 426.71 273.524 468.907C273.524 511.104 307.725 545.312 349.915 545.312Z" stroke="#636363" stroke-miterlimit="10"/>
<path d="M348.78 545.312C390.97 545.312 425.172 511.104 425.172 468.907C425.172 426.71 390.97 392.502 348.78 392.502C306.59 392.502 272.389 426.71 272.389 468.907C272.389 511.104 306.59 545.312 348.78 545.312Z" stroke="#6B6B6B" stroke-miterlimit="10"/>
<path d="M347.645 545.312C389.835 545.312 424.037 511.104 424.037 468.907C424.037 426.71 389.835 392.502 347.645 392.502C305.455 392.502 271.254 426.71 271.254 468.907C271.254 511.104 305.455 545.312 347.645 545.312Z" stroke="#737373" stroke-miterlimit="10"/>
<path d="M346.511 545.312C388.701 545.312 422.903 511.104 422.903 468.907C422.903 426.71 388.701 392.502 346.511 392.502C304.321 392.502 270.12 426.71 270.12 468.907C270.12 511.104 304.321 545.312 346.511 545.312Z" stroke="#7B7B7B" stroke-miterlimit="10"/>
<path d="M345.35 545.312C387.54 545.312 421.741 511.104 421.741 468.907C421.741 426.71 387.54 392.502 345.35 392.502C303.16 392.502 268.958 426.71 268.958 468.907C268.958 511.104 303.16 545.312 345.35 545.312Z" stroke="#848484" stroke-miterlimit="10"/>
<path d="M344.216 545.312C386.406 545.312 420.607 511.104 420.607 468.907C420.607 426.71 386.406 392.502 344.216 392.502C302.026 392.502 267.824 426.71 267.824 468.907C267.824 511.104 302.026 545.312 344.216 545.312Z" stroke="#8C8C8C" stroke-miterlimit="10"/>
<path d="M343.081 545.312C385.271 545.312 419.472 511.104 419.472 468.907C419.472 426.71 385.271 392.502 343.081 392.502C300.891 392.502 266.689 426.71 266.689 468.907C266.689 511.104 300.891 545.312 343.081 545.312Z" stroke="#949494" stroke-miterlimit="10"/>
<path d="M341.946 545.312C384.136 545.312 418.337 511.104 418.337 468.907C418.337 426.71 384.136 392.502 341.946 392.502C299.756 392.502 265.554 426.71 265.554 468.907C265.554 511.104 299.756 545.312 341.946 545.312Z" stroke="#9C9C9C" stroke-miterlimit="10"/>
<path d="M340.811 545.312C383.001 545.312 417.202 511.104 417.202 468.907C417.202 426.71 383.001 392.502 340.811 392.502C298.621 392.502 264.419 426.71 264.419 468.907C264.419 511.104 298.621 545.312 340.811 545.312Z" stroke="#A5A5A5" stroke-miterlimit="10"/>
<path d="M339.65 545.312C381.84 545.312 416.042 511.104 416.042 468.907C416.042 426.71 381.84 392.502 339.65 392.502C297.46 392.502 263.258 426.71 263.258 468.907C263.258 511.104 297.46 545.312 339.65 545.312Z" stroke="#ADADAD" stroke-miterlimit="10"/>
<path d="M338.516 545.312C380.706 545.312 414.908 511.104 414.908 468.907C414.908 426.71 380.706 392.502 338.516 392.502C296.326 392.502 262.124 426.71 262.124 468.907C262.124 511.104 296.326 545.312 338.516 545.312Z" stroke="#B5B5B5" stroke-miterlimit="10"/>
<path d="M337.381 545.312C379.571 545.312 413.773 511.104 413.773 468.907C413.773 426.71 379.571 392.502 337.381 392.502C295.191 392.502 260.989 426.71 260.989 468.907C260.989 511.104 295.191 545.312 337.381 545.312Z" stroke="#BDBDBD" stroke-miterlimit="10"/>
<path d="M336.246 545.312C378.436 545.312 412.638 511.104 412.638 468.907C412.638 426.71 378.436 392.502 336.246 392.502C294.056 392.502 259.854 426.71 259.854 468.907C259.854 511.104 294.056 545.312 336.246 545.312Z" stroke="#C5C5C5" stroke-miterlimit="10"/>
<path d="M335.085 545.312C377.275 545.312 411.477 511.104 411.477 468.907C411.477 426.71 377.275 392.502 335.085 392.502C292.895 392.502 258.693 426.71 258.693 468.907C258.693 511.104 292.895 545.312 335.085 545.312Z" stroke="#CECECE" stroke-miterlimit="10"/>
<path d="M333.95 545.312C376.14 545.312 410.342 511.104 410.342 468.907C410.342 426.71 376.14 392.502 333.95 392.502C291.76 392.502 257.558 426.71 257.558 468.907C257.558 511.104 291.76 545.312 333.95 545.312Z" stroke="#D6D6D6" stroke-miterlimit="10"/>
<path d="M332.815 545.312C375.005 545.312 409.207 511.104 409.207 468.907C409.207 426.71 375.005 392.502 332.815 392.502C290.625 392.502 256.423 426.71 256.423 468.907C256.423 511.104 290.625 545.312 332.815 545.312Z" stroke="#DEDEDE" stroke-miterlimit="10"/>
<path d="M331.681 545.312C373.871 545.312 408.073 511.104 408.073 468.907C408.073 426.71 373.871 392.502 331.681 392.502C289.491 392.502 255.289 426.71 255.289 468.907C255.289 511.104 289.491 545.312 331.681 545.312Z" stroke="#E6E6E6" stroke-miterlimit="10"/>
<path d="M330.546 545.312C372.736 545.312 406.938 511.104 406.938 468.907C406.938 426.71 372.736 392.502 330.546 392.502C288.356 392.502 254.154 426.71 254.154 468.907C254.154 511.104 288.356 545.312 330.546 545.312Z" stroke="#EFEFEF" stroke-miterlimit="10"/>
<path d="M329.385 545.312C371.575 545.312 405.777 511.104 405.777 468.907C405.777 426.71 371.575 392.502 329.385 392.502C287.195 392.502 252.994 426.71 252.994 468.907C252.994 511.104 287.195 545.312 329.385 545.312Z" stroke="#F7F7F7" stroke-miterlimit="10"/>
<path d="M328.25 545.312C370.44 545.312 404.642 511.104 404.642 468.907C404.642 426.71 370.44 392.502 328.25 392.502C286.06 392.502 251.858 426.71 251.858 468.907C251.858 511.104 286.06 545.312 328.25 545.312Z" stroke="white" stroke-miterlimit="10"/>
<path d="M328.249 545.311C370.439 545.311 404.641 511.104 404.641 468.907C404.641 426.71 370.439 392.502 328.249 392.502C286.059 392.502 251.857 426.71 251.857 468.907C251.857 511.104 286.059 545.311 328.249 545.311Z" fill="white" stroke="black" stroke-width="0.25" stroke-miterlimit="10"/>
<path d="M328.25 546.695C285.364 546.695 250.474 511.8 250.474 468.907C250.474 426.014 285.364 391.119 328.25 391.119C371.135 391.119 406.025 426.014 406.025 468.907C406.025 511.8 371.135 546.695 328.25 546.695ZM328.25 393.886C286.886 393.886 253.241 427.536 253.241 468.907C253.241 510.278 286.886 543.928 328.25 543.928C369.613 543.928 403.258 510.278 403.258 468.907C403.258 427.536 369.613 393.886 328.25 393.886V393.886Z" fill="white" stroke="black" stroke-width="0.25" stroke-miterlimit="10"/>
</svg>
