<svg width="174" height="142" viewBox="0 0 305 252" fill="none" xmlns="http://www.w3.org/2000/svg">
<path d="M239.995 83.49C239.995 37.3788 201.046 0 152.998 0C104.95 0 66 37.3788 66 83.49C66 123.386 95.159 156.736 134.136 165.006L131.35 239.071C131.083 246.129 136.731 252 143.786 252H162.214C169.269 252 174.917 246.133 174.65 239.071L171.864 165.006C210.841 156.736 240 123.381 240 83.49H239.995Z" fill="#0300AD"/>
<path d="M130.589 107.91C127.183 107.91 124.126 107.163 121.419 105.67C118.759 104.177 116.636 102.147 115.049 99.58C113.509 97.0133 112.739 94.1433 112.739 90.97V74.03C112.739 70.8567 113.509 67.9867 115.049 65.42C116.636 62.8533 118.759 60.8467 121.419 59.4C124.126 57.9067 127.183 57.16 130.589 57.16C133.949 57.16 136.959 57.9067 139.619 59.4C142.279 60.8933 144.379 62.9233 145.919 65.49C147.506 68.01 148.299 70.8567 148.299 74.03V90.97C148.299 94.1433 147.506 97.0133 145.919 99.58C144.379 102.147 142.279 104.177 139.619 105.67C136.959 107.163 133.949 107.91 130.589 107.91ZM130.589 101.96C132.596 101.96 134.416 101.493 136.049 100.56C137.729 99.6267 139.059 98.39 140.039 96.85C141.066 95.2633 141.579 93.5133 141.579 91.6V73.4C141.579 71.4867 141.066 69.76 140.039 68.22C139.059 66.6333 137.729 65.3733 136.049 64.44C134.416 63.5067 132.596 63.04 130.589 63.04C128.583 63.04 126.716 63.5067 124.989 64.44C123.309 65.3733 121.956 66.6333 120.929 68.22C119.949 69.76 119.459 71.4867 119.459 73.4V91.6C119.459 93.5133 119.949 95.2633 120.929 96.85C121.956 98.39 123.309 99.6267 124.989 100.56C126.669 101.493 128.536 101.96 130.589 101.96ZM180.46 107V95.87H164.01C162.377 95.87 160.907 95.4967 159.6 94.75C158.34 93.9567 157.337 92.93 156.59 91.67C155.843 90.41 155.47 89.0333 155.47 87.54C155.47 86.7 155.587 85.8833 155.82 85.09C156.053 84.25 156.333 83.48 156.66 82.78L170.38 58H177.94L162.82 85.02C162.587 85.44 162.423 85.8133 162.33 86.14C162.237 86.4667 162.19 86.8167 162.19 87.19C162.19 87.9367 162.4 88.59 162.82 89.15C163.287 89.6633 163.963 89.92 164.85 89.92H180.46V72.21H187.11V89.92H193.83V95.87H187.11V107H180.46Z" fill="white"/>
</svg>
