<svg width="174" height="142" viewBox="0 0 174 142" fill="none" xmlns="http://www.w3.org/2000/svg">
<path d="M136.915 47.046C136.915 21.0627 114.695 0 87.284 0C59.873 0 37.6523 21.0627 37.6523 47.046C37.6523 69.527 54.2873 88.3195 76.5234 92.9796L74.934 134.715C74.7817 138.692 78.0038 142 82.0286 142H92.5416C96.5665 142 99.7886 138.694 99.6363 134.715L98.0469 92.9796C120.283 88.3195 136.918 69.5242 136.918 47.046H136.915Z" fill="#0300AD"/>
<path d="M76.3137 60.8065C74.37 60.8065 72.6266 60.3855 71.0822 59.5442C69.5647 58.7029 68.3536 57.559 67.4482 56.1126C66.5696 54.6662 66.1304 53.049 66.1304 51.2609V41.7153C66.1304 39.9272 66.5696 38.31 67.4482 36.8637C68.3536 35.4174 69.5647 34.2867 71.0822 33.4715C72.6266 32.63 74.37 32.2092 76.3137 32.2092C78.2305 32.2092 79.9477 32.63 81.4652 33.4715C82.9827 34.3129 84.1807 35.4568 85.0593 36.9031C85.9647 38.3231 86.4171 39.9272 86.4171 41.7153V51.2609C86.4171 53.049 85.9647 54.6662 85.0593 56.1126C84.1807 57.559 82.9827 58.7029 81.4652 59.5442C79.9477 60.3855 78.2305 60.8065 76.3137 60.8065ZM76.3137 57.4537C77.4586 57.4537 78.4969 57.1905 79.4285 56.6648C80.387 56.1389 81.1457 55.442 81.7048 54.5742C82.2907 53.6801 82.5834 52.694 82.5834 51.6159V41.3603C82.5834 40.2822 82.2907 39.3092 81.7048 38.4415C81.1457 37.5474 80.387 36.8374 79.4285 36.3115C78.4969 35.7855 77.4586 35.5226 76.3137 35.5226C75.1687 35.5226 74.1041 35.7855 73.1189 36.3115C72.1605 36.8374 71.3886 37.5474 70.8027 38.4415C70.2436 39.3092 69.9641 40.2822 69.9641 41.3603V51.6159C69.9641 52.694 70.2436 53.6801 70.8027 54.5742C71.3886 55.442 72.1605 56.1389 73.1189 56.6648C74.0773 57.1905 75.1424 57.4537 76.3137 57.4537ZM95.0206 60.2937C94.0354 60.2937 93.1837 60.0964 92.4648 59.702C91.746 59.2811 91.2001 58.7424 90.8275 58.0848C90.4544 57.4272 90.2685 56.6913 90.2685 55.8759C90.2685 55.087 90.4681 54.3244 90.8675 53.5881C91.2668 52.8255 91.8259 52.1944 92.5447 51.6948L101.65 45.2653C102.528 44.6342 103.194 43.9111 103.646 43.0959C104.099 42.2807 104.325 41.4524 104.325 40.6109C104.325 39.7168 104.112 38.9411 103.686 38.2837C103.26 37.6 102.634 37.0609 101.809 36.6665C101.011 36.2457 100.026 36.0353 98.8544 36.0353H91.6262V32.6826H99.2537C101.144 32.6826 102.741 33.0507 104.046 33.787C105.377 34.497 106.388 35.4568 107.081 36.6665C107.8 37.8498 108.159 39.1646 108.159 40.6109C108.159 42.0572 107.813 43.4115 107.121 44.6737C106.455 45.9096 105.404 47.014 103.966 47.987L94.9008 54.2192C94.6344 54.377 94.4216 54.5874 94.2619 54.8503C94.1284 55.087 94.0622 55.3368 94.0622 55.5998C94.0622 55.9942 94.1951 56.3229 94.4616 56.5859C94.7542 56.8226 95.1536 56.9409 95.6596 56.9409H108.838V60.2937H95.0206Z" fill="white"/>
</svg>
