<svg width="174" height="142" viewBox="0 0 174 252" fill="none" xmlns="http://www.w3.org/2000/svg">
<path d="M173.995 83.49C173.995 37.3788 135.046 0 86.998 0C38.95 0 0 37.3788 0 83.49C0 123.386 29.159 156.736 68.136 165.006L65.35 239.071C65.083 246.129 70.731 252 77.786 252H96.214C103.269 252 108.917 246.133 108.65 239.071L105.864 165.006C144.841 156.736 174 123.381 174 83.49H173.995Z" fill="#0300AD"/>
<path d="M71.7328 107.91C68.3258 107.91 65.2698 107.163 62.5628 105.67C59.9028 104.177 57.7798 102.147 56.1928 99.58C54.6528 97.0133 53.8828 94.1433 53.8828 90.97V74.03C53.8828 70.8567 54.6528 68.01 56.1928 65.49C57.7798 62.9233 59.9028 60.8933 62.5628 59.4C65.2698 57.9067 68.3258 57.16 71.7328 57.16C75.0928 57.16 78.1028 57.9067 80.7628 59.4C83.4228 60.8933 85.5228 62.9233 87.0628 65.49C88.6498 68.01 89.4428 70.8567 89.4428 74.03V90.97C89.4428 94.1433 88.6498 97.0133 87.0628 99.58C85.5228 102.147 83.4228 104.177 80.7628 105.67C78.1028 107.163 75.0928 107.91 71.7328 107.91ZM71.7328 101.96C73.7398 101.96 75.5598 101.493 77.1928 100.56C78.8728 99.6267 80.2028 98.39 81.1828 96.85C82.2098 95.2633 82.7228 93.5133 82.7228 91.6V73.4C82.7228 71.4867 82.2098 69.76 81.1828 68.22C80.2028 66.6333 78.8728 65.3733 77.1928 64.44C75.5598 63.5067 73.7398 63.04 71.7328 63.04C69.7258 63.04 67.8598 63.5067 66.1328 64.44C64.4528 65.3733 63.0998 66.6333 62.0728 68.22C61.0928 69.76 60.6028 71.4867 60.6028 73.4V91.6C60.6028 93.5133 61.0928 95.2633 62.0728 96.85C63.0998 98.39 64.4528 99.6267 66.1328 100.56C67.8598 101.493 69.7258 101.96 71.7328 101.96ZM95.7358 107V101.05H105.676V63.95H96.2258V58H112.466V101.05H121.286V107H95.7358Z" fill="white"/>
</svg>
