<svg width="174" height="142" viewBox="0 0 305 252" fill="none" xmlns="http://www.w3.org/2000/svg">
<path d="M239.995 83.49C239.995 37.3788 201.046 0 152.998 0C104.95 0 66 37.3788 66 83.49C66 123.386 95.159 156.736 134.136 165.006L131.35 239.071C131.083 246.129 136.731 252 143.786 252H162.214C169.269 252 174.917 246.133 174.65 239.071L171.864 165.006C210.841 156.736 240 123.381 240 83.49H239.995Z" fill="#0300AD"/>
<path d="M133.631 107.91C130.225 107.91 127.168 107.163 124.461 105.67C121.801 104.177 119.678 102.147 118.091 99.58C116.551 97.0133 115.781 94.1433 115.781 90.97V74.03C115.781 70.8567 116.551 67.9867 118.091 65.42C119.678 62.8533 121.801 60.8467 124.461 59.4C127.168 57.9067 130.225 57.16 133.631 57.16C136.991 57.16 140.001 57.9067 142.661 59.4C145.321 60.8933 147.421 62.9233 148.961 65.49C150.548 68.01 151.341 70.8567 151.341 74.03V90.97C151.341 94.1433 150.548 97.0133 148.961 99.58C147.421 102.147 145.321 104.177 142.661 105.67C140.001 107.163 136.991 107.91 133.631 107.91ZM133.631 101.96C135.638 101.96 137.458 101.493 139.091 100.56C140.771 99.6267 142.101 98.39 143.081 96.85C144.108 95.2633 144.621 93.5133 144.621 91.6V73.4C144.621 71.4867 144.108 69.76 143.081 68.22C142.101 66.6333 140.771 65.3733 139.091 64.44C137.458 63.5067 135.638 63.04 133.631 63.04C131.625 63.04 129.758 63.5067 128.031 64.44C126.351 65.3733 124.998 66.6333 123.971 68.22C122.991 69.76 122.501 71.4867 122.501 73.4V91.6C122.501 93.5133 122.991 95.2633 123.971 96.85C124.998 98.39 126.351 99.6267 128.031 100.56C129.711 101.493 131.578 101.96 133.631 101.96ZM159.072 107V101.05H174.192C176.152 101.05 177.855 100.607 179.302 99.72C180.795 98.7867 181.939 97.5733 182.732 96.08C183.525 94.5867 183.922 93 183.922 91.32C183.922 89.6867 183.525 88.17 182.732 86.77C181.985 85.3233 180.889 84.18 179.442 83.34C178.042 82.4533 176.385 82.01 174.472 82.01H160.332V58H187.422V63.95H166.772V76.2H175.312C178.345 76.2 181.005 76.9 183.292 78.3C185.579 79.7 187.352 81.5667 188.612 83.9C189.919 86.1867 190.572 88.6833 190.572 91.39C190.572 94.1433 189.919 96.71 188.612 99.09C187.305 101.47 185.485 103.383 183.152 104.83C180.819 106.277 178.112 107 175.032 107H159.072Z" fill="white"/>
</svg>
