<svg width="1504" height="484" viewBox="0 0 1504 484" fill="none" xmlns="http://www.w3.org/2000/svg">
<path d="M447.715 97.855V6.49997H0.0150009V430H108.915V297.505H411.415V205.545H108.915V97.855H447.715ZM851.864 430H972.259L753.249 6.49997H606.234L387.829 430H507.619L552.994 339.855H806.489L851.864 430ZM593.529 258.785L680.044 86.965L765.954 258.785H593.529ZM1503.42 407.01L1436.87 340.46C1457.44 307.185 1467.12 266.045 1467.12 217.645C1467.12 77.89 1386.65 0.449977 1200.92 0.449977C1014.58 0.449977 934.716 77.285 934.716 217.645C934.716 358.61 1014.58 436.05 1200.92 436.05C1263.23 436.05 1313.45 427.58 1353.38 410.64L1426.58 483.845L1503.42 407.01ZM1043.62 217.645C1043.62 131.13 1087.18 91.805 1200.92 91.805C1314.66 91.805 1358.22 131.735 1358.22 217.645C1358.22 304.16 1314.05 344.695 1200.92 344.695C1087.78 344.695 1043.62 304.765 1043.62 217.645Z" fill="white"/>
</svg>
