<svg width="174" height="142" viewBox="0 0 305 252" fill="none" xmlns="http://www.w3.org/2000/svg">
<path d="M239.995 83.49C239.995 37.3788 201.046 0 152.998 0C104.95 0 66 37.3788 66 83.49C66 123.386 95.159 156.736 134.136 165.006L131.35 239.071C131.083 246.129 136.731 252 143.786 252H162.214C169.269 252 174.917 246.133 174.65 239.071L171.864 165.006C210.841 156.736 240 123.381 240 83.49H239.995Z" fill="#0300AD"/>
<path d="M133.666 107.91C130.259 107.91 127.202 107.163 124.496 105.67C121.836 104.177 119.712 102.147 118.126 99.58C116.586 97.0133 115.816 94.1433 115.816 90.97V74.03C115.816 70.8567 116.586 67.9867 118.126 65.42C119.712 62.8533 121.836 60.8467 124.496 59.4C127.202 57.9067 130.259 57.16 133.666 57.16C137.026 57.16 140.036 57.9067 142.696 59.4C145.356 60.8933 147.456 62.9233 148.996 65.49C150.582 68.01 151.376 70.8567 151.376 74.03V90.97C151.376 94.1433 150.582 97.0133 148.996 99.58C147.456 102.147 145.356 104.177 142.696 105.67C140.036 107.163 137.026 107.91 133.666 107.91ZM133.666 101.96C135.672 101.96 137.492 101.493 139.126 100.56C140.806 99.6267 142.136 98.39 143.116 96.85C144.142 95.2633 144.656 93.5133 144.656 91.6V73.4C144.656 71.4867 144.142 69.76 143.116 68.22C142.136 66.6333 140.806 65.3733 139.126 64.44C137.492 63.5067 135.672 63.04 133.666 63.04C131.659 63.04 129.792 63.5067 128.066 64.44C126.386 65.3733 125.032 66.6333 124.006 68.22C123.026 69.76 122.536 71.4867 122.536 73.4V91.6C122.536 93.5133 123.026 95.2633 124.006 96.85C125.032 98.39 126.386 99.6267 128.066 100.56C129.746 101.493 131.612 101.96 133.666 101.96ZM159.036 107V101.05H175.416C177.05 101.05 178.45 100.677 179.616 99.93C180.83 99.1833 181.763 98.2033 182.416 96.99C183.07 95.7767 183.396 94.47 183.396 93.07C183.396 91.6233 183.07 90.2933 182.416 89.08C181.763 87.82 180.806 86.8167 179.546 86.07C178.286 85.2767 176.793 84.88 175.066 84.88H161.556V78.93H175.556C177.19 78.93 178.59 78.58 179.756 77.88C180.923 77.18 181.81 76.27 182.416 75.15C183.07 73.9833 183.396 72.7467 183.396 71.44C183.396 70.1333 183.07 68.92 182.416 67.8C181.81 66.6333 180.923 65.7 179.756 65C178.59 64.3 177.19 63.95 175.556 63.95H159.036V58H176.466C179.126 58 181.483 58.63 183.536 59.89C185.59 61.1033 187.2 62.7367 188.366 64.79C189.533 66.7967 190.116 68.99 190.116 71.37C190.116 73.75 189.533 75.8733 188.366 77.74C187.2 79.56 185.59 81.03 183.536 82.15C184.983 82.8033 186.196 83.7133 187.176 84.88C188.156 86.0467 188.88 87.33 189.346 88.73C189.86 90.13 190.116 91.5767 190.116 93.07C190.116 95.5433 189.533 97.8533 188.366 100C187.2 102.1 185.59 103.803 183.536 105.11C181.483 106.37 179.103 107 176.396 107H159.036Z" fill="white"/>
</svg>
