<svg width="34" height="73" viewBox="0 0 34 73" fill="none" xmlns="http://www.w3.org/2000/svg">
<path d="M1.84961 49.0078L11.1092 48.9971L10.9495 58.1813L1.84961 49.0078Z" fill="black"/>
<path d="M10.9518 58.3157C10.9159 58.3157 10.8818 58.3013 10.8567 58.2762L1.75503 49.1028C1.71735 49.0651 1.70479 49.0059 1.72632 48.9556C1.74786 48.9054 1.79631 48.8731 1.85014 48.8731L11.1097 48.8623C11.1456 48.8623 11.1797 48.8767 11.2048 48.9018C11.23 48.9269 11.2443 48.9628 11.2443 48.9987L11.0864 58.1829C11.0864 58.2367 11.0523 58.2852 11.0021 58.3049C10.9859 58.3121 10.968 58.3139 10.9518 58.3139V58.3157ZM2.17315 49.1422L10.8226 57.8599L10.9733 49.1315L2.17315 49.1422Z" fill="white"/>
<path d="M10.301 21.4146L9.57961 54.6432L3.69547 48.9331L2.2832 47.5639L10.301 21.4146Z" fill="black"/>
<path d="M9.57982 54.7781C9.54573 54.7781 9.51163 54.7655 9.48651 54.7404L2.1901 47.6611C2.15421 47.6252 2.13985 47.5732 2.156 47.5247L10.1738 21.3753C10.1935 21.3107 10.2581 21.2695 10.3245 21.282C10.3909 21.2928 10.4394 21.3502 10.4376 21.4184L9.71441 54.6453C9.71441 54.6991 9.68032 54.7458 9.63187 54.7673C9.61572 54.7745 9.59777 54.7781 9.57982 54.7781ZM2.43774 47.5247L9.45242 54.3312L10.1469 22.3821L2.43594 47.5247H2.43774Z" fill="white"/>
<path d="M10.3017 21.4146L11.4843 23.7797L10.989 53.4875L9.61621 54.627L10.3017 21.4146Z" fill="black"/>
<path d="M9.61611 54.7614C9.59637 54.7614 9.57663 54.7578 9.55689 54.7488C9.51023 54.7255 9.47973 54.6771 9.48152 54.625L10.1688 21.4125C10.1688 21.3515 10.2137 21.2977 10.2729 21.2833C10.3339 21.269 10.3949 21.2995 10.4236 21.3551L11.6062 23.7202C11.6152 23.74 11.6206 23.7615 11.6206 23.783L11.1235 53.4909C11.1235 53.5304 11.1055 53.5663 11.075 53.5914L9.70224 54.7309C9.67712 54.7506 9.64661 54.7614 9.61611 54.7614ZM10.4254 21.9616L9.75608 54.3343L10.8543 53.4227L11.3496 23.81L10.4254 21.9616Z" fill="white"/>
<path d="M6.82668 40.5517C6.64185 42.9976 6.94512 44.4906 7.49962 43.8984C8.04515 43.3134 8.62836 40.9124 8.8096 38.5293C8.99084 36.1462 8.70373 34.6335 8.16358 35.1574C7.61447 35.6886 7.01331 38.1076 6.82848 40.5517H6.82668Z" fill="white"/>
<path d="M31.9403 48.9857L22.6807 48.9731L22.8404 58.1592L31.9403 48.9857Z" fill="black"/>
<path d="M22.8402 58.2934C22.824 58.2934 22.8061 58.2898 22.7899 58.2844C22.7397 58.2647 22.7056 58.2162 22.7056 58.1624L22.5459 48.9782C22.5459 48.9423 22.5585 48.9064 22.5854 48.8813C22.6105 48.8562 22.6446 48.8418 22.6805 48.8418L31.9401 48.8526C31.9939 48.8526 32.0442 48.8849 32.0639 48.9351C32.0854 48.9854 32.0729 49.0428 32.0352 49.0823L22.9335 58.2557C22.9084 58.2808 22.8725 58.2952 22.8384 58.2952L22.8402 58.2934ZM22.8187 49.1092L22.9694 57.8376L31.6189 49.1199L22.8187 49.1092Z" fill="white"/>
<path d="M23.4902 21.3916L24.2116 54.6185L30.0958 48.9102L31.508 47.541L23.4902 21.3916Z" fill="black"/>
<path d="M24.2113 54.7546C24.1933 54.7546 24.1772 54.751 24.1592 54.7439C24.109 54.7241 24.0767 54.6757 24.0767 54.6218L23.3535 21.395C23.3535 21.3286 23.4002 21.2694 23.4666 21.2586C23.5312 21.2478 23.5976 21.2873 23.6173 21.3519L31.6351 47.5013C31.6495 47.5497 31.6351 47.6018 31.601 47.6377L24.3046 54.7169C24.2795 54.7421 24.2454 54.7546 24.2113 54.7546ZM23.6442 22.3586L24.3387 54.3078L31.3534 47.5013L23.6442 22.3586Z" fill="white"/>
<path d="M23.4902 21.3916L22.3076 23.7567L22.8029 53.4646L24.1757 54.6041L23.4902 21.3916Z" fill="black"/>
<path d="M24.1753 54.7388C24.1448 54.7388 24.1143 54.7281 24.0892 54.7083L22.7164 53.5688C22.6859 53.5437 22.668 53.506 22.668 53.4683L22.1709 23.7605C22.1709 23.7389 22.1763 23.7174 22.1853 23.6977L23.3678 21.3325C23.3947 21.2769 23.4576 21.2482 23.5186 21.2607C23.5796 21.2751 23.6226 21.3271 23.6226 21.3899L24.3099 54.6024C24.3099 54.6545 24.2812 54.7029 24.2346 54.7263C24.2166 54.7352 24.1951 54.7388 24.1753 54.7388ZM22.9354 53.4001L24.0336 54.3117L23.3642 21.9391L22.4401 23.7874L22.9354 53.4001Z" fill="white"/>
<path d="M26.964 40.5283C27.1488 42.9742 26.8455 44.4672 26.291 43.875C25.7455 43.29 25.1623 40.889 24.981 38.5059C24.7998 36.1228 25.0869 34.61 25.6271 35.134C26.1672 35.658 26.7773 38.0842 26.9622 40.5283H26.964Z" fill="white"/>
<path d="M16.8984 0.575195V72.8395L33.6572 54.5356L31.9399 48.9853L22.84 58.1587L22.1168 17.1294L16.8984 0.575195Z" fill="black"/>
<path d="M16.8983 72.9744C16.8821 72.9744 16.866 72.9708 16.8498 72.9654C16.7978 72.9457 16.7637 72.8954 16.7637 72.8398V0.575511C16.7637 0.509115 16.8121 0.451691 16.8785 0.442718C16.9449 0.433746 17.0077 0.47143 17.0275 0.536032L22.2459 17.0902C22.2494 17.1028 22.2512 17.1154 22.253 17.1279L22.969 57.8378L31.8464 48.8905C31.8805 48.8564 31.9289 48.8438 31.9738 48.8546C32.0205 48.8653 32.0563 48.9012 32.0707 48.9461L33.788 54.4965C33.8024 54.5413 33.7916 54.5916 33.7593 54.6275L17.0005 72.9313C16.9754 72.96 16.9377 72.9744 16.9018 72.9744H16.8983ZM17.0328 1.44943V72.4934L33.5063 54.5019L31.8787 49.2386L22.9349 58.2523C22.8973 58.29 22.8398 58.3026 22.7896 58.2828C22.7393 58.2631 22.707 58.2147 22.7052 58.1608L21.9839 17.1513L17.0328 1.44943Z" fill="white"/>
<path d="M16.8926 0.599121V72.8652L0.133789 54.5596L1.85112 49.0092L10.951 58.1826L11.6742 17.1533L16.8926 0.599121Z" fill="black"/>
<path d="M16.8924 72.9999C16.8547 72.9999 16.8189 72.9837 16.7937 72.9568L0.0349508 54.6512C0.00264994 54.6153 -0.00811702 54.5668 0.00623893 54.5202L1.72357 48.9698C1.73793 48.925 1.77382 48.8909 1.82047 48.8783C1.86713 48.8675 1.91558 48.8801 1.94788 48.9142L10.8252 57.8615L11.5412 17.1516C11.5412 17.1391 11.543 17.1265 11.5484 17.114L16.7632 0.557959C16.783 0.495152 16.844 0.455673 16.9122 0.464646C16.9786 0.475413 17.027 0.531042 17.027 0.597438V72.8653C17.027 72.9209 16.9929 72.9712 16.9409 72.9909C16.9247 72.9963 16.9086 72.9999 16.8924 72.9999ZM0.284386 54.5256L16.7578 72.5172V1.47315L11.8086 17.175L11.0872 58.1845C11.0872 58.2384 11.0531 58.2868 11.0029 58.3066C10.9527 58.3263 10.8952 58.3155 10.8575 58.2761L1.91379 49.2623L0.28618 54.5256H0.284386Z" fill="white"/>
</svg>
