<svg width="88" height="189" viewBox="0 0 88 189" fill="none" xmlns="http://www.w3.org/2000/svg">
<path d="M4.87872 126.378L28.9603 126.346L28.5488 150.238L4.87872 126.378Z" fill="#0300AD"/>
<path d="M28.5498 150.65C28.4428 150.65 28.3358 150.609 28.2617 150.526L4.59166 126.667C4.47644 126.552 4.44351 126.371 4.50113 126.223C4.56697 126.066 4.71511 125.967 4.87972 125.967L28.9613 125.934C29.0683 125.934 29.1753 125.976 29.2576 126.058C29.3399 126.14 29.381 126.239 29.3728 126.354L28.9613 150.246C28.9613 150.411 28.8543 150.559 28.7062 150.625C28.6568 150.642 28.6074 150.658 28.5498 150.658V150.65ZM5.86734 126.79L28.1547 149.259L28.5416 126.766L5.85911 126.79H5.86734Z" fill="#030384"/>
<path d="M26.8554 54.6113L24.9789 141.028L9.67893 126.181L6.00002 122.618L26.8554 54.6113Z" fill="white"/>
<path d="M24.9797 141.441C24.8727 141.441 24.7739 141.399 24.6916 141.325L5.71279 122.914C5.60579 122.807 5.56464 122.643 5.60579 122.503L26.4611 54.4966C26.5188 54.2991 26.7163 54.1756 26.922 54.2086C27.1278 54.2415 27.2759 54.4143 27.2677 54.6201L25.3912 141.037C25.3912 141.202 25.2842 141.35 25.1361 141.408C25.0867 141.424 25.0373 141.441 24.9797 141.441ZM6.46997 122.495L24.5847 140.074L26.3788 57.5583L6.46997 122.503V122.495Z" fill="#8E8E8E"/>
<path d="M26.8575 54.6124L29.9356 60.7603L28.6435 138.026L25.0715 140.997L26.8575 54.6124Z" fill="#E2E0E0"/>
<path d="M25.0714 141.408C25.0137 141.408 24.9479 141.391 24.8903 141.367C24.7422 141.301 24.6516 141.153 24.6598 140.988L26.4458 54.6039C26.4458 54.4146 26.5857 54.25 26.7668 54.2089C26.9478 54.1677 27.1371 54.2583 27.2277 54.4229L30.3058 60.5791C30.3387 60.6367 30.3469 60.7025 30.3469 60.7684L29.0548 138.034C29.0548 138.157 28.9972 138.264 28.9066 138.346L25.3347 141.309C25.2607 141.375 25.1619 141.408 25.0714 141.408V141.408ZM27.2359 56.2911L25.5076 140.108L28.24 137.836L29.5239 60.8589L27.2359 56.2829V56.2911Z" fill="#8E8E8E"/>
<path d="M17.819 104.38C17.3334 110.742 18.1317 114.626 19.5638 113.079C20.9794 111.556 22.5019 105.31 22.9711 99.1124C23.4402 92.9151 22.6995 88.981 21.2921 90.339C19.8847 91.697 18.3045 98.0096 17.819 104.372V104.38Z" fill="#231F20"/>
<path d="M83.1391 126.314L59.0575 126.289L59.469 150.173L83.1391 126.314Z" fill="#040468"/>
<path d="M59.4706 150.585C59.4212 150.585 59.3636 150.577 59.3142 150.552C59.1578 150.486 59.0591 150.347 59.0591 150.174L58.6476 126.281C58.6476 126.174 58.6887 126.067 58.7628 125.985C58.8369 125.903 58.9439 125.862 59.0591 125.862L83.1407 125.895C83.3053 125.895 83.4534 125.993 83.5193 126.15C83.5851 126.306 83.5522 126.479 83.4287 126.594L59.7586 150.454C59.6763 150.536 59.5776 150.577 59.4706 150.577V150.585ZM59.4706 126.693L59.8574 149.186L82.1448 126.718L59.4624 126.693H59.4706Z" fill="#02024C"/>
<path d="M61.1561 54.5444L63.0326 140.97L78.3407 126.123L82.0114 122.559L61.1561 54.5444Z" fill="white"/>
<path d="M63.0341 141.382C62.9848 141.382 62.9271 141.374 62.8778 141.349C62.7296 141.283 62.6226 141.143 62.6226 140.979L60.7461 54.5615C60.7461 54.3558 60.8861 54.183 61.0918 54.15C61.2893 54.1171 61.4869 54.2406 61.5527 54.4381L82.408 122.444C82.4574 122.592 82.408 122.757 82.3011 122.856L63.3222 141.267C63.2399 141.341 63.1411 141.382 63.0341 141.382V141.382ZM61.635 57.508L63.4292 140.024L81.5439 122.444L61.635 57.508V57.508Z" fill="#8E8E8E"/>
<path d="M61.1559 54.5451L58.0778 60.7013L59.37 137.966L62.9419 140.929L61.1559 54.5451Z" fill="#E2E0E0"/>
<path d="M62.9435 141.341C62.8529 141.341 62.7542 141.308 62.6801 141.243L59.1082 138.28C59.0177 138.206 58.9601 138.09 58.9601 137.967L57.6679 60.7017C57.6679 60.6359 57.6844 60.57 57.7091 60.5124L60.7872 54.3644C60.8695 54.1916 61.0588 54.1011 61.248 54.1505C61.4291 54.1916 61.569 54.3562 61.569 54.5455L63.355 140.93C63.355 141.094 63.2644 141.243 63.1245 141.308C63.0669 141.333 63.0093 141.35 62.9435 141.35V141.341ZM59.7831 137.769L62.5155 140.041L60.7872 56.2245L58.4992 60.7922L59.7831 137.769V137.769Z" fill="#8E8E8E"/>
<path d="M70.1988 104.322C70.6844 110.684 69.886 114.569 68.454 113.022C67.0384 111.499 65.5158 105.252 65.0467 99.055C64.5775 92.8576 65.3183 88.9236 66.7256 90.2816C68.1495 91.6643 69.7132 97.9521 70.1988 104.314V104.322Z" fill="#231F20"/>
<path d="M44.0156 0.408028V188.361L87.6028 140.75L83.142 126.314L59.4719 150.173L57.5954 43.4685L44.0156 0.408028Z" fill="#030387"/>
<path d="M44.0172 188.773C43.9678 188.773 43.9184 188.765 43.869 188.749C43.7126 188.691 43.6056 188.535 43.6056 188.362V0.408589C43.6056 0.202834 43.7538 0.0299994 43.9513 0.00530876C44.1571 -0.0276121 44.3464 0.095841 44.404 0.285136L57.9756 43.3456C57.9756 43.3456 57.992 43.4197 57.992 43.4608L59.8521 149.194L82.839 126.026C82.9378 125.927 83.086 125.886 83.2259 125.919C83.3658 125.952 83.481 126.059 83.5222 126.199L87.9829 140.635C88.0241 140.775 87.9912 140.923 87.8924 141.038L44.3052 188.65C44.2229 188.74 44.1159 188.782 44.0007 188.782L44.0172 188.773ZM44.4287 3.08341V187.3L87.1434 140.643L82.9543 127.088L59.7615 150.462C59.6463 150.577 59.4735 150.618 59.3171 150.552C59.1607 150.486 59.062 150.347 59.062 150.174L57.1855 43.5266L44.4287 3.08341Z" fill="#040468"/>
<path d="M43.9994 0.464218V188.417L0.412216 140.814L4.88122 126.378L28.5513 150.238L30.4278 43.5247L43.9994 0.464218Z" fill="#0300AD"/>
<path d="M43.9996 188.83C43.8843 188.83 43.7773 188.78 43.695 188.698L0.107859 141.094C0.00909668 140.987 -0.0238242 140.831 0.0173269 140.691L4.48633 126.255C4.52748 126.115 4.6427 126.008 4.78262 125.975C4.92253 125.943 5.07067 125.975 5.16944 126.082L28.1564 149.25L30.0164 43.517C30.0164 43.517 30.0164 43.4347 30.0329 43.4018L43.6045 0.341326C43.6621 0.152032 43.8514 0.0285784 44.0572 0.0614993C44.2547 0.0944201 44.4028 0.267254 44.4028 0.464779V188.418C44.4028 188.591 44.2958 188.739 44.1395 188.805C44.0901 188.821 44.0407 188.83 43.9913 188.83H43.9996ZM0.873268 140.708L43.588 187.365V3.1396L30.8395 43.5911L28.963 150.238C28.963 150.403 28.856 150.551 28.7078 150.617C28.5515 150.674 28.3786 150.641 28.2634 150.526L5.07067 127.152L0.881499 140.708H0.873268Z" fill="#030384"/>
<path d="M26.4533 57.3692L6.49501 122.52L24.5603 140.083L11.0216 124.24C9.81178 122.824 9.37558 120.898 9.86117 119.096L26.4533 57.3692V57.3692Z" fill="#E2E0E0"/>
<path d="M61.695 58.043L65.1681 131.654C65.234 133.012 66.7977 133.736 67.8759 132.905L81.5133 122.37L63.4398 139.967L61.7032 58.043H61.695Z" fill="#E2E0E0"/>
<g opacity="0.65">
<path opacity="0.65" d="M44.3791 3.13992L44.4614 187.003L86.9952 140.65L48.0251 179.456L44.3791 3.13992Z" fill="#040468"/>
</g>
<g opacity="0.23">
<path opacity="0.23" d="M4.96571 127.293L28.3066 150.732C28.3066 150.732 28.3807 151.893 27.5329 151.662C26.6852 151.432 4.60358 128.585 4.60358 128.585L4.95748 127.293H4.96571Z" fill="white"/>
</g>
</svg>
