<svg width="45" height="97" viewBox="0 0 45 97" fill="none" xmlns="http://www.w3.org/2000/svg">
<path d="M2.46371 64.6698L14.7933 64.6555L14.5806 76.8847L2.46371 64.6698Z" fill="white"/>
<path d="M14.5833 77.0639C14.5355 77.0639 14.4901 77.0447 14.4567 77.0113L2.33737 64.7964C2.28719 64.7462 2.27047 64.6674 2.29914 64.6005C2.32781 64.5336 2.39233 64.4906 2.46401 64.4906L14.7936 64.4762C14.8414 64.4762 14.8868 64.4953 14.9202 64.5288C14.9537 64.5622 14.9728 64.61 14.9728 64.6578L14.7625 76.887C14.7625 76.9587 14.7171 77.0232 14.6502 77.0495C14.6287 77.0591 14.6048 77.0615 14.5833 77.0615V77.0639ZM2.89411 64.849L14.4113 76.4569L14.612 64.8346L2.89411 64.849V64.849Z" fill="black"/>
<path d="M13.7167 27.9276L12.7561 72.1731L4.92109 64.5699L3.04059 62.7467L13.7167 27.9276Z" fill="white"/>
<path d="M12.756 72.3523C12.7106 72.3523 12.6652 72.3356 12.6317 72.3022L2.9162 62.8758C2.86841 62.828 2.8493 62.7587 2.8708 62.6942L13.5469 27.8751C13.5732 27.7891 13.6592 27.7341 13.7476 27.7508C13.836 27.7652 13.9005 27.8416 13.8981 27.9324L12.9352 72.1755C12.9352 72.2472 12.8898 72.3093 12.8253 72.338C12.8038 72.3476 12.7799 72.3523 12.756 72.3523V72.3523ZM3.24595 62.6942L12.5863 71.7574L13.511 29.2156L3.24356 62.6942H3.24595Z" fill="black"/>
<path d="M13.7168 27.9274L15.2914 31.0766L14.6319 70.634L12.804 72.1513L13.7168 27.9274Z" fill="white"/>
<path d="M12.804 72.3306C12.7778 72.3306 12.7515 72.3258 12.7252 72.3138C12.6631 72.2828 12.6224 72.2183 12.6248 72.149L13.54 27.925C13.54 27.8438 13.5997 27.7721 13.6786 27.753C13.7598 27.7338 13.8411 27.7745 13.8793 27.8485L15.4539 30.9978C15.4659 31.0241 15.4731 31.0528 15.4731 31.0815L14.8112 70.6388C14.8112 70.6914 14.7873 70.7392 14.7467 70.7726L12.9187 72.2899C12.8853 72.3162 12.8447 72.3306 12.804 72.3306V72.3306ZM13.8817 28.6562L12.9904 71.7619L14.4528 70.548L15.1122 31.1173L13.8817 28.6562V28.6562Z" fill="black"/>
<path d="M9.09076 53.4085C8.84464 56.6653 9.24846 58.6534 9.9868 57.8648C10.7132 57.0859 11.4898 53.8888 11.7311 50.7156C11.9724 47.5424 11.5901 45.5281 10.8709 46.2258C10.1397 46.9331 9.33926 50.1541 9.09315 53.4085H9.09076Z" fill="black"/>
<path d="M42.5303 64.6393L30.2007 64.6226L30.4134 76.8542L42.5303 64.6393Z" fill="white"/>
<path d="M30.4134 77.0334C30.3918 77.0334 30.368 77.0286 30.3464 77.0215C30.2795 76.9952 30.2341 76.9307 30.2341 76.859L30.0215 64.6298C30.0215 64.582 30.0382 64.5342 30.0741 64.5007C30.1075 64.4673 30.1529 64.4482 30.2007 64.4482L42.5303 64.4625C42.6019 64.4625 42.6688 64.5055 42.6951 64.5724C42.7238 64.6393 42.7071 64.7158 42.6569 64.7684L30.5376 76.9832C30.5042 77.0167 30.4564 77.0358 30.411 77.0358L30.4134 77.0334ZM30.3847 64.8042L30.5854 76.4265L42.1026 64.8185L30.3847 64.8042V64.8042Z" fill="black"/>
<path d="M31.2792 27.8964L32.2398 72.1394L40.0748 64.5386L41.9553 62.7154L31.2792 27.8964Z" fill="white"/>
<path d="M32.2398 72.321C32.2159 72.321 32.1944 72.3162 32.1705 72.3067C32.1036 72.2804 32.0605 72.2159 32.0605 72.1442L31.0976 27.9011C31.0976 27.8127 31.1597 27.7338 31.2481 27.7195C31.3342 27.7052 31.4226 27.7577 31.4488 27.8438L42.1249 62.6628C42.144 62.7274 42.1249 62.7967 42.0795 62.8444L32.364 72.2708C32.3306 72.3043 32.2852 72.321 32.2398 72.321V72.321ZM31.4847 29.1842L32.4094 71.726L41.7498 62.6628L31.4847 29.1842V29.1842Z" fill="black"/>
<path d="M31.2797 27.8961L29.705 31.0454L30.3645 70.6027L32.1924 72.12L31.2797 27.8961Z" fill="white"/>
<path d="M32.1923 72.2993C32.1517 72.2993 32.1111 72.285 32.0776 72.2587L30.2497 70.7414C30.2091 70.708 30.1852 70.6578 30.1852 70.6076L29.5233 31.0502C29.5233 31.0216 29.5305 30.9929 29.5424 30.9666L31.1171 27.8173C31.1529 27.7432 31.2366 27.705 31.3178 27.7217C31.399 27.7409 31.4564 27.8101 31.4564 27.8938L32.3715 72.1178C32.3715 72.187 32.3333 72.2516 32.2712 72.2826C32.2473 72.2946 32.2186 72.2993 32.1923 72.2993V72.2993ZM30.5412 70.5168L32.0036 71.7307L31.1123 28.625L29.8817 31.0861L30.5412 70.5168V70.5168Z" fill="black"/>
<path d="M35.9049 53.3775C36.1511 56.6343 35.7472 58.6223 35.0089 57.8338C34.2825 57.0548 33.5059 53.8578 33.2646 50.6846C33.0233 47.5114 33.4056 45.4971 34.1248 46.1948C34.844 46.8925 35.6564 50.123 35.9025 53.3775H35.9049Z" fill="black"/>
<path d="M22.5017 0.17857V96.4018L44.8168 72.0294L42.5301 64.6388L30.4132 76.8537L29.4502 22.2213L22.5017 0.17857Z" fill="white"/>
<path d="M22.5016 96.581C22.4801 96.581 22.4586 96.5762 22.4371 96.569C22.3678 96.5427 22.3224 96.4758 22.3224 96.4018V0.178567C22.3224 0.090157 22.3869 0.0136945 22.4753 0.00174727C22.5638 -0.0102 22.6474 0.0399785 22.6737 0.125999L29.6222 22.1687C29.627 22.1854 29.6294 22.2021 29.6317 22.2189L30.5851 76.426L42.4058 64.5122C42.4512 64.4668 42.5157 64.45 42.5754 64.4644C42.6375 64.4787 42.6853 64.5265 42.7044 64.5862L44.9911 71.9768C45.0103 72.0365 44.9959 72.1034 44.9529 72.1512L22.6378 96.5236C22.6044 96.5619 22.5542 96.581 22.5064 96.581H22.5016ZM22.6808 1.34223V95.9406L44.616 71.984L42.4488 64.9757L30.5397 76.9779C30.4896 77.0281 30.4131 77.0448 30.3462 77.0185C30.2793 76.9923 30.2363 76.9277 30.2339 76.8561L29.2733 22.2499L22.6808 1.34223V1.34223Z" fill="black"/>
<path d="M22.493 0.210068V96.4357L0.177887 72.0609L2.46459 64.6703L14.5815 76.8852L15.5444 22.2528L22.493 0.210068Z" fill="white"/>
<path d="M22.493 96.6149C22.4429 96.6149 22.3951 96.5934 22.3616 96.5576L0.0465386 72.1828C0.00352852 72.135 -0.0108082 72.0705 0.00830742 72.0083L2.29501 64.6178C2.31413 64.558 2.36192 64.5126 2.42404 64.4959C2.48617 64.4816 2.55068 64.4983 2.59369 64.5437L14.4143 76.4575L15.3677 22.2504C15.3677 22.2337 15.3701 22.217 15.3773 22.2002L22.321 0.155167C22.3473 0.0715358 22.4285 0.0189679 22.5193 0.0309151C22.6077 0.0452518 22.6723 0.119325 22.6723 0.207735V96.4357C22.6723 96.5098 22.6269 96.5767 22.5576 96.603C22.5361 96.6101 22.5145 96.6149 22.493 96.6149ZM0.378672 72.0155L22.3138 95.9722V1.37379L15.7237 22.2815L14.7632 76.8876C14.7632 76.9593 14.7178 77.0238 14.6509 77.0501C14.584 77.0764 14.5075 77.062 14.4573 77.0095L2.54829 65.0073L0.381062 72.0155H0.378672Z" fill="black"/>
</svg>
