<svg width="190" height="23" viewBox="0 0 190 23" fill="none" xmlns="http://www.w3.org/2000/svg">
<path d="M0.5 0.711426H8.43899V16.814H23.3029V22.3191H0.5V0.711426Z" fill="white"/>
<path d="M48.6198 13.2139C48.6198 16.7777 47.9317 18.8204 46.2222 20.3706C44.2881 22.1235 40.9923 22.9927 36.1608 22.9927C31.0251 22.9927 27.6279 22.0221 25.73 20.0446C24.2668 18.5234 23.6729 16.5459 23.6729 13.2066V0.711426H31.6118V11.7941C31.6118 15.8723 32.9229 17.4949 36.1608 17.4949C39.3987 17.4949 40.6808 15.8723 40.6808 11.7941V0.711426H48.6198V13.2139Z" fill="white"/>
<path d="M50.6475 0.711426H59.615L66.127 8.91118C67.7496 10.9539 67.8365 11.2436 69.2418 14.257H69.4881C68.742 12.0549 68.4305 10.1426 68.4305 7.61458V0.711426H76.3695V22.3191H67.6482L60.7957 13.8658C59.5209 12.2795 58.8979 11.077 57.8983 8.6142H57.652C58.3981 10.9177 58.5864 12.178 58.5864 14.5757V22.3191H50.6475V0.711426Z" fill="white"/>
<path d="M84.9098 0.711426H95.4058L103.721 22.3191H95.0291L94.1599 20.3416H85.6849L84.9026 22.3191H76.5869L84.9098 0.711426ZM92.6025 14.8364L89.9224 6.89746L87.1191 14.8364H92.6025Z" fill="white"/>
<path d="M107.988 6.21656H100.078V0.711426H123.939V6.21656H115.934V22.3191H107.995V6.21656H107.988Z" fill="white"/>
<path d="M124.524 0.711426H132.463V22.3191H124.524V0.711426Z" fill="white"/>
<path d="M162.496 14.2498C162.185 17.3935 161.221 19.1102 158.882 20.6314C156.267 22.3481 153.34 22.9928 148.168 22.9928C142.996 22.9928 140.099 22.1815 137.643 20.1388C135.18 18.1324 133.935 15.148 133.935 11.3886C133.935 7.62914 135.209 4.68099 137.549 2.89907C140.164 0.892589 143.467 0.0161133 148.357 0.0161133C153.963 0.0161133 157.824 1.15336 160.258 3.57996C161.569 4.84035 162.192 6.39773 162.503 8.95472H153.376C152.724 6.46292 151.355 5.52125 148.393 5.52125C144.655 5.52125 142.692 7.49875 142.692 11.2582C142.692 15.2132 144.778 17.4804 148.393 17.4804C149.921 17.4804 151.29 17.0893 152.036 16.4084C152.536 15.952 152.848 15.4377 153.376 14.2353H162.503L162.496 14.2498Z" fill="white"/>
<path d="M178.475 7.0643C177.975 5.7025 176.794 5.0868 174.737 5.0868C173.086 5.0868 172.057 5.63731 172.057 6.51378C172.057 7.58584 172.774 7.77417 179.156 8.45507C182.828 8.84622 183.893 9.07078 185.668 9.75168C188.189 10.7585 189.5 12.6998 189.5 15.3872C189.5 20.5374 185.045 23.0002 175.73 23.0002C171.275 23.0002 167.914 22.3845 165.828 21.1893C163.582 19.9289 162.684 18.5309 162.401 15.8435H173.426C174.143 17.0387 175.172 17.4951 177.135 17.4951C179.098 17.4951 179.967 17.0098 179.967 16.1043C179.967 15.4886 179.656 15.1626 179.004 14.9671C178.352 14.7715 177.946 14.7063 173.115 14.221C170.746 13.9602 168.225 13.4749 166.574 12.8954C163.988 12.0189 162.59 10.1428 162.59 7.48443C162.59 2.62397 167.197 0.0307617 175.889 0.0307617C180.279 0.0307617 183.582 0.740635 185.697 2.16762C187.414 3.30487 188.189 4.53628 188.841 7.05705H178.468L178.475 7.0643Z" fill="white"/>
</svg>
