<svg width="189" height="23" viewBox="0 0 189 23" fill="none" xmlns="http://www.w3.org/2000/svg">
<path d="M0 0.695312H7.93899V16.7978H22.8029V22.303H0V0.695312Z" fill="black"/>
<path d="M48.1196 13.1978C48.1196 16.7616 47.4314 18.8043 45.7219 20.3544C43.7879 22.1074 40.4921 22.9766 35.6606 22.9766C30.5249 22.9766 27.1276 22.006 25.2298 20.0285C23.7666 18.5073 23.1726 16.5298 23.1726 13.1905V0.695312H31.1116V11.778C31.1116 15.8562 32.4227 17.4787 35.6606 17.4787C38.8985 17.4787 40.1806 15.8562 40.1806 11.778V0.695312H48.1196V13.1978Z" fill="black"/>
<path d="M50.1477 0.695312H59.1153L65.6273 8.89507C67.2498 10.9378 67.3368 11.2275 68.742 14.2408H68.9883C68.2422 12.0388 67.9307 10.1265 67.9307 7.59846V0.695312H75.8697V22.303H67.1484L60.296 13.8497C59.0211 12.2633 58.3982 11.0609 57.3985 8.59808H57.1523C57.8984 10.9015 58.0867 12.1619 58.0867 14.5596V22.303H50.1477V0.695312V0.695312Z" fill="black"/>
<path d="M84.4101 0.695312H94.906L103.222 22.303H94.5294L93.6601 20.3255H85.1851L84.4028 22.303H76.0872L84.4101 0.695312ZM92.1028 14.8203L89.4226 6.88135L86.6194 14.8203H92.1028Z" fill="black"/>
<path d="M107.488 6.20045H99.5776V0.695312H123.438V6.20045H115.434V22.303H107.495V6.20045H107.488Z" fill="black"/>
<path d="M124.025 0.695312H131.964V22.303H124.025V0.695312Z" fill="black"/>
<path d="M161.996 14.2337C161.684 17.3774 160.721 19.0941 158.381 20.6153C155.766 22.332 152.84 22.9767 147.668 22.9767C142.496 22.9767 139.599 22.1654 137.143 20.1227C134.68 18.1162 133.434 15.1319 133.434 11.3725C133.434 7.61302 134.709 4.66488 137.049 2.88295C139.664 0.876476 142.967 0 147.856 0C153.463 0 157.324 1.13725 159.758 3.56385C161.069 4.82424 161.692 6.38161 162.003 8.9386H152.876C152.224 6.4468 150.855 5.50514 147.893 5.50514C144.155 5.50514 142.192 7.48264 142.192 11.2421C142.192 15.1971 144.278 17.4643 147.893 17.4643C149.421 17.4643 150.79 17.0732 151.536 16.3923C152.036 15.9359 152.347 15.4216 152.876 14.2192H162.003L161.996 14.2337Z" fill="black"/>
<path d="M177.975 7.04819C177.476 5.68639 176.295 5.07068 174.238 5.07068C172.586 5.07068 171.558 5.6212 171.558 6.49767C171.558 7.56972 172.275 7.75806 178.656 8.43896C182.329 8.83011 183.394 9.05466 185.168 9.73556C187.689 10.7424 189 12.6837 189 15.3711C189 20.5213 184.545 22.9841 175.23 22.9841C170.775 22.9841 167.414 22.3684 165.328 21.1732C163.083 19.9128 162.184 18.5148 161.902 15.8274H172.927C173.644 17.0226 174.672 17.479 176.635 17.479C178.598 17.479 179.468 16.9937 179.468 16.0882C179.468 15.4725 179.156 15.1465 178.504 14.951C177.852 14.7554 177.447 14.6902 172.615 14.2049C170.246 13.9441 167.726 13.4588 166.074 12.8793C163.488 12.0028 162.09 10.1267 162.09 7.46831C162.09 2.60786 166.697 0.0146484 175.389 0.0146484C179.779 0.0146484 183.082 0.724521 185.197 2.15151C186.914 3.28876 187.689 4.52017 188.341 7.04094H177.968L177.975 7.04819Z" fill="black"/>
</svg>
