<svg width="174" height="252" viewBox="0 0 174 252" fill="none" xmlns="http://www.w3.org/2000/svg">
<path d="M173.995 83.4902C173.995 37.379 135.046 0.000244141 86.9977 0.000244141C38.9496 0.000244141 0 37.379 0 83.4902C0 123.386 29.159 156.736 68.1357 165.006L65.3501 239.071C65.0832 246.129 70.7315 252 77.7861 252H96.214C103.269 252 108.917 246.133 108.65 239.071L105.864 165.006C144.841 156.736 174 123.381 174 83.4902H173.995Z" fill="#898989"/>
<path d="M46.5891 107.91C43.1824 107.91 40.1257 107.164 37.4191 105.67C34.7591 104.177 32.6357 102.147 31.0491 99.5802C29.5091 97.0136 28.7391 94.1436 28.7391 90.9702V74.0302C28.7391 70.8569 29.5091 68.0102 31.0491 65.4902C32.6357 62.9236 34.7591 60.8936 37.4191 59.4002C40.1257 57.9069 43.1824 57.1602 46.5891 57.1602C49.9491 57.1602 52.9591 57.9069 55.6191 59.4002C58.2791 60.8936 60.3791 62.9236 61.9191 65.4902C63.5057 68.0102 64.2991 70.8569 64.2991 74.0302V90.9702C64.2991 94.1436 63.5057 97.0136 61.9191 99.5802C60.3791 102.147 58.2791 104.177 55.6191 105.67C52.9591 107.164 49.9491 107.91 46.5891 107.91ZM46.5891 101.96C48.5957 101.96 50.4157 101.494 52.0491 100.56C53.7291 99.6269 55.0591 98.3902 56.0391 96.8502C57.0657 95.2636 57.5791 93.5136 57.5791 91.6002V73.4002C57.5791 71.4869 57.0657 69.7602 56.0391 68.2202C55.0591 66.6336 53.7291 65.3736 52.0491 64.4402C50.4157 63.5069 48.5957 63.0402 46.5891 63.0402C44.5824 63.0402 42.7157 63.5069 40.9891 64.4402C39.3091 65.3736 37.9557 66.6336 36.9291 68.2202C35.9491 69.7602 35.4591 71.4869 35.4591 73.4002V91.6002C35.4591 93.5136 35.9491 95.2636 36.9291 96.8502C37.9557 98.3902 39.3091 99.6269 40.9891 100.56C42.7157 101.494 44.5824 101.96 46.5891 101.96ZM90.9297 107.91C87.523 107.91 84.4664 107.164 81.7597 105.67C79.0997 104.177 76.9764 102.147 75.3897 99.5802C73.8497 97.0136 73.0797 94.1436 73.0797 90.9702V74.0302C73.0797 70.8569 73.8497 68.0102 75.3897 65.4902C76.9764 62.9236 79.0997 60.8936 81.7597 59.4002C84.4664 57.9069 87.523 57.1602 90.9297 57.1602C94.2897 57.1602 97.2997 57.9069 99.9597 59.4002C102.62 60.8936 104.72 62.9236 106.26 65.4902C107.846 68.0102 108.64 70.8569 108.64 74.0302V90.9702C108.64 94.1436 107.846 97.0136 106.26 99.5802C104.72 102.147 102.62 104.177 99.9597 105.67C97.2997 107.164 94.2897 107.91 90.9297 107.91ZM90.9297 101.96C92.9364 101.96 94.7564 101.494 96.3897 100.56C98.0697 99.6269 99.3997 98.3902 100.38 96.8502C101.406 95.2636 101.92 93.5136 101.92 91.6002V73.4002C101.92 71.4869 101.406 69.7602 100.38 68.2202C99.3997 66.6336 98.0697 65.3736 96.3897 64.4402C94.7564 63.5069 92.9364 63.0402 90.9297 63.0402C88.923 63.0402 87.0564 63.5069 85.3297 64.4402C83.6497 65.3736 82.2964 66.6336 81.2697 68.2202C80.2897 69.7602 79.7997 71.4869 79.7997 73.4002V91.6002C79.7997 93.5136 80.2897 95.2636 81.2697 96.8502C82.2964 98.3902 83.6497 99.6269 85.3297 100.56C87.0564 101.494 88.923 101.96 90.9297 101.96ZM118.68 107L138.84 67.9402C139.26 67.1002 139.47 66.3536 139.47 65.7002C139.47 65.1869 139.284 64.7669 138.91 64.4402C138.584 64.1136 138 63.9502 137.16 63.9502H114.27V58.0002H138.07C139.75 58.0002 141.197 58.3502 142.41 59.0502C143.624 59.7036 144.557 60.5902 145.21 61.7102C145.91 62.7836 146.26 63.9969 146.26 65.3502C146.26 66.1436 146.144 66.9602 145.91 67.8002C145.724 68.5936 145.467 69.3402 145.14 70.0402L126.24 107H118.68Z" fill="black"/>
</svg>
