<svg width="175" height="252" viewBox="0 0 175 252" fill="none" xmlns="http://www.w3.org/2000/svg">
<path d="M174.495 83.4902C174.495 37.379 135.546 0.000244141 87.4977 0.000244141C39.4496 0.000244141 0.5 37.379 0.5 83.4902C0.5 123.386 29.659 156.736 68.6357 165.006L65.8501 239.071C65.5832 246.129 71.2315 252 78.2861 252H96.714C103.769 252 109.417 246.133 109.15 239.071L106.364 165.006C145.341 156.736 174.5 123.381 174.5 83.4902H174.495Z" fill="#FE3E3E"/>
<path d="M46.0979 107.91C42.6912 107.91 39.6345 107.164 36.9279 105.67C34.2679 104.177 32.1445 102.147 30.5579 99.5802C29.0179 97.0136 28.2479 94.1436 28.2479 90.9702V74.0302C28.2479 70.8569 29.0179 68.0102 30.5579 65.4902C32.1445 62.9236 34.2679 60.8936 36.9279 59.4002C39.6345 57.9069 42.6912 57.1602 46.0979 57.1602C49.4579 57.1602 52.4679 57.9069 55.1279 59.4002C57.7879 60.8936 59.8879 62.9236 61.4279 65.4902C63.0145 68.0102 63.8079 70.8569 63.8079 74.0302V90.9702C63.8079 94.1436 63.0145 97.0136 61.4279 99.5802C59.8879 102.147 57.7879 104.177 55.1279 105.67C52.4679 107.164 49.4579 107.91 46.0979 107.91ZM46.0979 101.96C48.1045 101.96 49.9245 101.494 51.5579 100.56C53.2379 99.6269 54.5679 98.3902 55.5479 96.8502C56.5745 95.2636 57.0879 93.5136 57.0879 91.6002V73.4002C57.0879 71.4869 56.5745 69.7602 55.5479 68.2202C54.5679 66.6336 53.2379 65.3736 51.5579 64.4402C49.9245 63.5069 48.1045 63.0402 46.0979 63.0402C44.0912 63.0402 42.2245 63.5069 40.4979 64.4402C38.8179 65.3736 37.4645 66.6336 36.4379 68.2202C35.4579 69.7602 34.9679 71.4869 34.9679 73.4002V91.6002C34.9679 93.5136 35.4579 95.2636 36.4379 96.8502C37.4645 98.3902 38.8179 99.6269 40.4979 100.56C42.2245 101.494 44.0912 101.96 46.0979 101.96ZM90.4385 107.91C87.0318 107.91 83.9751 107.164 81.2685 105.67C78.6085 104.177 76.4851 102.147 74.8985 99.5802C73.3585 97.0136 72.5885 94.1436 72.5885 90.9702V74.0302C72.5885 70.8569 73.3585 68.0102 74.8985 65.4902C76.4851 62.9236 78.6085 60.8936 81.2685 59.4002C83.9751 57.9069 87.0318 57.1602 90.4385 57.1602C93.7985 57.1602 96.8085 57.9069 99.4685 59.4002C102.128 60.8936 104.228 62.9236 105.768 65.4902C107.355 68.0102 108.148 70.8569 108.148 74.0302V90.9702C108.148 94.1436 107.355 97.0136 105.768 99.5802C104.228 102.147 102.128 104.177 99.4685 105.67C96.8085 107.164 93.7985 107.91 90.4385 107.91ZM90.4385 101.96C92.4451 101.96 94.2651 101.494 95.8985 100.56C97.5785 99.6269 98.9085 98.3902 99.8885 96.8502C100.915 95.2636 101.428 93.5136 101.428 91.6002V73.4002C101.428 71.4869 100.915 69.7602 99.8885 68.2202C98.9085 66.6336 97.5785 65.3736 95.8985 64.4402C94.2651 63.5069 92.4451 63.0402 90.4385 63.0402C88.4318 63.0402 86.5651 63.5069 84.8385 64.4402C83.1585 65.3736 81.8051 66.6336 80.7785 68.2202C79.7985 69.7602 79.3085 71.4869 79.3085 73.4002V91.6002C79.3085 93.5136 79.7985 95.2636 80.7785 96.8502C81.8051 98.3902 83.1585 99.6269 84.8385 100.56C86.5651 101.494 88.4318 101.96 90.4385 101.96ZM123.229 107C121.502 107 120.009 106.65 118.749 105.95C117.489 105.204 116.532 104.247 115.879 103.08C115.226 101.914 114.899 100.607 114.899 99.1602C114.899 97.7602 115.249 96.4069 115.949 95.1002C116.649 93.7469 117.629 92.6269 118.889 91.7402L134.849 80.3302C136.389 79.2102 137.556 77.9269 138.349 76.4802C139.142 75.0336 139.539 73.5636 139.539 72.0702C139.539 70.4836 139.166 69.1069 138.419 67.9402C137.672 66.7269 136.576 65.7702 135.129 65.0702C133.729 64.3236 132.002 63.9502 129.949 63.9502H117.279V58.0002H130.649C133.962 58.0002 136.762 58.6536 139.049 59.9602C141.382 61.2202 143.156 62.9236 144.369 65.0702C145.629 67.1702 146.259 69.5036 146.259 72.0702C146.259 74.6369 145.652 77.0402 144.439 79.2802C143.272 81.4736 141.429 83.4336 138.909 85.1602L123.019 96.2202C122.552 96.5002 122.179 96.8736 121.899 97.3402C121.666 97.7602 121.549 98.2036 121.549 98.6702C121.549 99.3702 121.782 99.9536 122.249 100.42C122.762 100.84 123.462 101.05 124.349 101.05H147.449V107H123.229Z" fill="black"/>
</svg>
