<svg width="174" height="252" viewBox="0 0 174 252" fill="none" xmlns="http://www.w3.org/2000/svg">
<path d="M173.995 83.4902C173.995 37.379 135.046 0.000244141 86.9977 0.000244141C38.9496 0.000244141 0 37.379 0 83.4902C0 123.386 29.159 156.736 68.1357 165.006L65.3501 239.071C65.0832 246.129 70.7315 252 77.7861 252H96.214C103.269 252 108.917 246.133 108.65 239.071L105.864 165.006C144.841 156.736 174 123.381 174 83.4902H173.995Z" fill="#4D5DFE"/>
<path d="M45.4611 107.91C42.0545 107.91 38.9978 107.164 36.2911 105.67C33.6311 104.177 31.5078 102.147 29.9211 99.5802C28.3811 97.0136 27.6111 94.1436 27.6111 90.9702V74.0302C27.6111 70.8569 28.3811 68.0102 29.9211 65.4902C31.5078 62.9236 33.6311 60.8936 36.2911 59.4002C38.9978 57.9069 42.0545 57.1602 45.4611 57.1602C48.8211 57.1602 51.8311 57.9069 54.4911 59.4002C57.1511 60.8936 59.2511 62.9236 60.7911 65.4902C62.3778 68.0102 63.1711 70.8569 63.1711 74.0302V90.9702C63.1711 94.1436 62.3778 97.0136 60.7911 99.5802C59.2511 102.147 57.1511 104.177 54.4911 105.67C51.8311 107.164 48.8211 107.91 45.4611 107.91ZM45.4611 101.96C47.4678 101.96 49.2878 101.494 50.9211 100.56C52.6011 99.6269 53.9311 98.3902 54.9111 96.8502C55.9378 95.2636 56.4511 93.5136 56.4511 91.6002V73.4002C56.4511 71.4869 55.9378 69.7602 54.9111 68.2202C53.9311 66.6336 52.6011 65.3736 50.9211 64.4402C49.2878 63.5069 47.4678 63.0402 45.4611 63.0402C43.4545 63.0402 41.5878 63.5069 39.8611 64.4402C38.1811 65.3736 36.8278 66.6336 35.8011 68.2202C34.8211 69.7602 34.3311 71.4869 34.3311 73.4002V91.6002C34.3311 93.5136 34.8211 95.2636 35.8011 96.8502C36.8278 98.3902 38.1811 99.6269 39.8611 100.56C41.5878 101.494 43.4545 101.96 45.4611 101.96ZM89.8018 107.91C86.3951 107.91 83.3384 107.164 80.6318 105.67C77.9718 104.177 75.8484 102.147 74.2618 99.5802C72.7218 97.0136 71.9518 94.1436 71.9518 90.9702V74.0302C71.9518 70.8569 72.7218 68.0102 74.2618 65.4902C75.8484 62.9236 77.9718 60.8936 80.6318 59.4002C83.3384 57.9069 86.3951 57.1602 89.8018 57.1602C93.1618 57.1602 96.1718 57.9069 98.8318 59.4002C101.492 60.8936 103.592 62.9236 105.132 65.4902C106.718 68.0102 107.512 70.8569 107.512 74.0302V90.9702C107.512 94.1436 106.718 97.0136 105.132 99.5802C103.592 102.147 101.492 104.177 98.8318 105.67C96.1718 107.164 93.1618 107.91 89.8018 107.91ZM89.8018 101.96C91.8084 101.96 93.6284 101.494 95.2618 100.56C96.9418 99.6269 98.2718 98.3902 99.2518 96.8502C100.278 95.2636 100.792 93.5136 100.792 91.6002V73.4002C100.792 71.4869 100.278 69.7602 99.2518 68.2202C98.2718 66.6336 96.9418 65.3736 95.2618 64.4402C93.6284 63.5069 91.8084 63.0402 89.8018 63.0402C87.7951 63.0402 85.9284 63.5069 84.2018 64.4402C82.5218 65.3736 81.1684 66.6336 80.1418 68.2202C79.1618 69.7602 78.6718 71.4869 78.6718 73.4002V91.6002C78.6718 93.5136 79.1618 95.2636 80.1418 96.8502C81.1684 98.3902 82.5218 99.6269 84.2018 100.56C85.9284 101.494 87.7951 101.96 89.8018 101.96ZM115.242 107V101.05H130.362C132.322 101.05 134.026 100.607 135.472 99.7202C136.966 98.7869 138.109 97.5736 138.902 96.0802C139.696 94.5869 140.092 93.0002 140.092 91.3202C140.092 89.6869 139.696 88.1702 138.902 86.7702C138.156 85.3236 137.059 84.1802 135.612 83.3402C134.212 82.4536 132.556 82.0102 130.642 82.0102H116.502V58.0002H143.592V63.9502H122.942V76.2002H131.482C134.516 76.2002 137.176 76.9002 139.462 78.3002C141.749 79.7002 143.522 81.5669 144.782 83.9002C146.089 86.1869 146.742 88.6836 146.742 91.3902C146.742 94.1436 146.089 96.7102 144.782 99.0902C143.476 101.47 141.656 103.384 139.322 104.83C136.989 106.277 134.282 107 131.202 107H115.242Z" fill="black"/>
</svg>
