<svg width="175" height="252" viewBox="0 0 175 252" fill="none" xmlns="http://www.w3.org/2000/svg">
<path d="M174.495 83.49C174.495 37.3788 135.546 0 87.4977 0C39.4496 0 0.5 37.3788 0.5 83.49C0.5 123.386 29.659 156.736 68.6357 165.006L65.8501 239.071C65.5832 246.129 71.2315 252 78.2861 252H96.7139C103.769 252 109.417 246.133 109.15 239.071L106.364 165.006C145.341 156.736 174.5 123.381 174.5 83.49H174.495Z" fill="#4686FC"/>
<path d="M50.0627 107.91C46.656 107.91 43.5994 107.163 40.8927 105.67C38.2327 104.177 36.1094 102.147 34.5227 99.58C32.9827 97.0133 32.2127 94.1433 32.2127 90.97V74.03C32.2127 70.8567 32.9827 68.01 34.5227 65.49C36.1094 62.9233 38.2327 60.8933 40.8927 59.4C43.5994 57.9067 46.656 57.16 50.0627 57.16C53.4227 57.16 56.4327 57.9067 59.0927 59.4C61.7527 60.8933 63.8527 62.9233 65.3927 65.49C66.9794 68.01 67.7727 70.8567 67.7727 74.03V90.97C67.7727 94.1433 66.9794 97.0133 65.3927 99.58C63.8527 102.147 61.7527 104.177 59.0927 105.67C56.4327 107.163 53.4227 107.91 50.0627 107.91ZM50.0627 101.96C52.0694 101.96 53.8894 101.493 55.5227 100.56C57.2027 99.6267 58.5327 98.39 59.5127 96.85C60.5394 95.2633 61.0527 93.5133 61.0527 91.6V73.4C61.0527 71.4867 60.5394 69.76 59.5127 68.22C58.5327 66.6333 57.2027 65.3733 55.5227 64.44C53.8894 63.5067 52.0694 63.04 50.0627 63.04C48.056 63.04 46.1894 63.5067 44.4627 64.44C42.7827 65.3733 41.4294 66.6333 40.4027 68.22C39.4227 69.76 38.9327 71.4867 38.9327 73.4V91.6C38.9327 93.5133 39.4227 95.2633 40.4027 96.85C41.4294 98.39 42.7827 99.6267 44.4627 100.56C46.1894 101.493 48.056 101.96 50.0627 101.96ZM94.4033 107.91C90.9967 107.91 87.94 107.163 85.2333 105.67C82.5733 104.177 80.45 102.147 78.8633 99.58C77.3233 97.0133 76.5533 94.1433 76.5533 90.97V74.03C76.5533 70.8567 77.3233 68.01 78.8633 65.49C80.45 62.9233 82.5733 60.8933 85.2333 59.4C87.94 57.9067 90.9967 57.16 94.4033 57.16C97.7633 57.16 100.773 57.9067 103.433 59.4C106.093 60.8933 108.193 62.9233 109.733 65.49C111.32 68.01 112.113 70.8567 112.113 74.03V90.97C112.113 94.1433 111.32 97.0133 109.733 99.58C108.193 102.147 106.093 104.177 103.433 105.67C100.773 107.163 97.7633 107.91 94.4033 107.91ZM94.4033 101.96C96.41 101.96 98.23 101.493 99.8633 100.56C101.543 99.6267 102.873 98.39 103.853 96.85C104.88 95.2633 105.393 93.5133 105.393 91.6V73.4C105.393 71.4867 104.88 69.76 103.853 68.22C102.873 66.6333 101.543 65.3733 99.8633 64.44C98.23 63.5067 96.41 63.04 94.4033 63.04C92.3967 63.04 90.53 63.5067 88.8033 64.44C87.1233 65.3733 85.77 66.6333 84.7433 68.22C83.7633 69.76 83.2733 71.4867 83.2733 73.4V91.6C83.2733 93.5133 83.7633 95.2633 84.7433 96.85C85.77 98.39 87.1233 99.6267 88.8033 100.56C90.53 101.493 92.3967 101.96 94.4033 101.96ZM118.407 107V101.05H128.347V63.95H118.897V58H135.137V101.05H143.957V107H118.407Z" fill="black"/>
</svg>
