<svg width="174" height="252" viewBox="0 0 174 252" fill="none" xmlns="http://www.w3.org/2000/svg">
<path d="M173.995 83.4902C173.995 37.379 135.046 0.000244141 86.9977 0.000244141C38.9496 0.000244141 0 37.379 0 83.4902C0 123.386 29.159 156.736 68.1357 165.006L65.3501 239.071C65.0832 246.129 70.7315 252 77.7861 252H96.214C103.269 252 108.917 246.133 108.65 239.071L105.864 165.006C144.841 156.736 174 123.381 174 83.4902H173.995Z" fill="#E8E8EB"/>
<path d="M43.1711 107.91C39.7644 107.91 36.7078 107.164 34.0011 105.67C31.3411 104.177 29.2178 102.147 27.6311 99.5802C26.0911 97.0136 25.3211 94.1436 25.3211 90.9702V74.0302C25.3211 70.8569 26.0911 68.0102 27.6311 65.4902C29.2178 62.9236 31.3411 60.8936 34.0011 59.4002C36.7078 57.9069 39.7644 57.1602 43.1711 57.1602C46.5311 57.1602 49.5411 57.9069 52.2011 59.4002C54.8611 60.8936 56.9611 62.9236 58.5011 65.4902C60.0878 68.0102 60.8811 70.8569 60.8811 74.0302V90.9702C60.8811 94.1436 60.0878 97.0136 58.5011 99.5802C56.9611 102.147 54.8611 104.177 52.2011 105.67C49.5411 107.164 46.5311 107.91 43.1711 107.91ZM43.1711 101.96C45.1778 101.96 46.9978 101.494 48.6311 100.56C50.3111 99.6269 51.6411 98.3902 52.6211 96.8502C53.6478 95.2636 54.1611 93.5136 54.1611 91.6002V73.4002C54.1611 71.4869 53.6478 69.7602 52.6211 68.2202C51.6411 66.6336 50.3111 65.3736 48.6311 64.4402C46.9978 63.5069 45.1778 63.0402 43.1711 63.0402C41.1644 63.0402 39.2978 63.5069 37.5711 64.4402C35.8911 65.3736 34.5378 66.6336 33.5111 68.2202C32.5311 69.7602 32.0411 71.4869 32.0411 73.4002V91.6002C32.0411 93.5136 32.5311 95.2636 33.5111 96.8502C34.5378 98.3902 35.8911 99.6269 37.5711 100.56C39.2978 101.494 41.1644 101.96 43.1711 101.96ZM87.5117 107.91C84.1051 107.91 81.0484 107.164 78.3417 105.67C75.6817 104.177 73.5584 102.147 71.9717 99.5802C70.4317 97.0136 69.6617 94.1436 69.6617 90.9702V74.0302C69.6617 70.8569 70.4317 68.0102 71.9717 65.4902C73.5584 62.9236 75.6817 60.8936 78.3417 59.4002C81.0484 57.9069 84.1051 57.1602 87.5117 57.1602C90.8717 57.1602 93.8817 57.9069 96.5417 59.4002C99.2017 60.8936 101.302 62.9236 102.842 65.4902C104.428 68.0102 105.222 70.8569 105.222 74.0302V90.9702C105.222 94.1436 104.428 97.0136 102.842 99.5802C101.302 102.147 99.2017 104.177 96.5417 105.67C93.8817 107.164 90.8717 107.91 87.5117 107.91ZM87.5117 101.96C89.5184 101.96 91.3384 101.494 92.9717 100.56C94.6517 99.6269 95.9817 98.3902 96.9617 96.8502C97.9884 95.2636 98.5017 93.5136 98.5017 91.6002V73.4002C98.5017 71.4869 97.9884 69.7602 96.9617 68.2202C95.9817 66.6336 94.6517 65.3736 92.9717 64.4402C91.3384 63.5069 89.5184 63.0402 87.5117 63.0402C85.5051 63.0402 83.6384 63.5069 81.9117 64.4402C80.2317 65.3736 78.8784 66.6336 77.8517 68.2202C76.8717 69.7602 76.3817 71.4869 76.3817 73.4002V91.6002C76.3817 93.5136 76.8717 95.2636 77.8517 96.8502C78.8784 98.3902 80.2317 99.6269 81.9117 100.56C83.6384 101.494 85.5051 101.96 87.5117 101.96ZM130.872 107.91C127.372 107.91 124.246 107.234 121.492 105.88C118.786 104.48 116.639 102.567 115.052 100.14C113.512 97.6669 112.742 94.7969 112.742 91.5302C112.742 88.4969 113.326 85.5802 114.492 82.7802C115.706 79.9802 117.362 77.0402 119.462 73.9602L130.102 58.0002H137.872L124.712 77.8802C125.786 77.0402 126.952 76.4336 128.212 76.0602C129.519 75.6402 130.849 75.4302 132.202 75.4302C135.656 75.4302 138.642 76.1769 141.162 77.6702C143.682 79.1169 145.596 81.0536 146.902 83.4802C148.256 85.9069 148.932 88.5902 148.932 91.5302C148.932 94.7969 148.139 97.6669 146.552 100.14C145.012 102.567 142.889 104.48 140.182 105.88C137.476 107.234 134.372 107.91 130.872 107.91ZM130.872 101.96C133.066 101.96 135.026 101.54 136.752 100.7C138.479 99.8602 139.809 98.6469 140.742 97.0602C141.722 95.4736 142.212 93.6069 142.212 91.4602C142.212 89.6869 141.792 88.0069 140.952 86.4202C140.159 84.8336 138.922 83.5736 137.242 82.6402C135.562 81.6602 133.486 81.1702 131.012 81.1702C128.819 81.1702 126.836 81.6136 125.062 82.5002C123.336 83.3402 121.959 84.5536 120.932 86.1402C119.906 87.6802 119.392 89.4769 119.392 91.5302C119.392 93.6769 119.882 95.5436 120.862 97.1302C121.889 98.6702 123.266 99.8602 124.992 100.7C126.719 101.54 128.679 101.96 130.872 101.96Z" fill="black"/>
</svg>
