<svg width="175" height="252" viewBox="0 0 175 252" fill="none" xmlns="http://www.w3.org/2000/svg">
<path d="M174.495 83.4902C174.495 37.379 135.546 0.000244141 87.4977 0.000244141C39.4496 0.000244141 0.5 37.379 0.5 83.4902C0.5 123.386 29.659 156.736 68.6357 165.006L65.8501 239.071C65.5832 246.129 71.2315 252 78.2861 252H96.714C103.769 252 109.417 246.133 109.15 239.071L106.364 165.006C145.341 156.736 174.5 123.381 174.5 83.4902H174.495Z" fill="#E2F03B"/>
<path d="M42.9191 107.91C39.5125 107.91 36.4558 107.164 33.7491 105.67C31.0891 104.177 28.9658 102.147 27.3791 99.5802C25.8391 97.0136 25.0691 94.1436 25.0691 90.9702V74.0302C25.0691 70.8569 25.8391 67.9869 27.3791 65.4202C28.9658 62.8536 31.0891 60.8469 33.7491 59.4002C36.4558 57.9069 39.5125 57.1602 42.9191 57.1602C46.2791 57.1602 49.2891 57.9069 51.9491 59.4002C54.6091 60.8936 56.7091 62.9236 58.2491 65.4902C59.8358 68.0102 60.6291 70.8569 60.6291 74.0302V90.9702C60.6291 94.1436 59.8358 97.0136 58.2491 99.5802C56.7091 102.147 54.6091 104.177 51.9491 105.67C49.2891 107.164 46.2791 107.91 42.9191 107.91ZM42.9191 101.96C44.9258 101.96 46.7458 101.494 48.3791 100.56C50.0591 99.6269 51.3891 98.3902 52.3691 96.8502C53.3958 95.2636 53.9091 93.5136 53.9091 91.6002V73.4002C53.9091 71.4869 53.3958 69.7602 52.3691 68.2202C51.3891 66.6336 50.0591 65.3736 48.3791 64.4402C46.7458 63.5069 44.9258 63.0402 42.9191 63.0402C40.9125 63.0402 39.0458 63.5069 37.3191 64.4402C35.6391 65.3736 34.2858 66.6336 33.2591 68.2202C32.2791 69.7602 31.7891 71.4869 31.7891 73.4002V91.6002C31.7891 93.5136 32.2791 95.2636 33.2591 96.8502C34.2858 98.3902 35.6391 99.6269 37.3191 100.56C38.9991 101.494 40.8658 101.96 42.9191 101.96ZM87.2598 107.91C83.8531 107.91 80.7964 107.164 78.0898 105.67C75.4298 104.177 73.3064 102.147 71.7198 99.5802C70.1798 97.0136 69.4098 94.1436 69.4098 90.9702V74.0302C69.4098 70.8569 70.1798 67.9869 71.7198 65.4202C73.3064 62.8536 75.4298 60.8469 78.0898 59.4002C80.7964 57.9069 83.8531 57.1602 87.2598 57.1602C90.6198 57.1602 93.6298 57.9069 96.2898 59.4002C98.9498 60.8936 101.05 62.9236 102.59 65.4902C104.176 68.0102 104.97 70.8569 104.97 74.0302V90.9702C104.97 94.1436 104.176 97.0136 102.59 99.5802C101.05 102.147 98.9498 104.177 96.2898 105.67C93.6298 107.164 90.6198 107.91 87.2598 107.91ZM87.2598 101.96C89.2664 101.96 91.0864 101.494 92.7198 100.56C94.3998 99.6269 95.7298 98.3902 96.7098 96.8502C97.7364 95.2636 98.2498 93.5136 98.2498 91.6002V73.4002C98.2498 71.4869 97.7364 69.7602 96.7098 68.2202C95.7298 66.6336 94.3998 65.3736 92.7198 64.4402C91.0864 63.5069 89.2664 63.0402 87.2598 63.0402C85.2531 63.0402 83.3864 63.5069 81.6598 64.4402C79.9798 65.3736 78.6264 66.6336 77.5998 68.2202C76.6198 69.7602 76.1298 71.4869 76.1298 73.4002V91.6002C76.1298 93.5136 76.6198 95.2636 77.5998 96.8502C78.6264 98.3902 79.9798 99.6269 81.6598 100.56C83.3398 101.494 85.2064 101.96 87.2598 101.96ZM137.13 107V95.8702H120.68C119.047 95.8702 117.577 95.4969 116.27 94.7502C115.01 93.9569 114.007 92.9302 113.26 91.6702C112.514 90.4102 112.14 89.0336 112.14 87.5402C112.14 86.7002 112.257 85.8836 112.49 85.0902C112.724 84.2502 113.004 83.4802 113.33 82.7802L127.05 58.0002H134.61L119.49 85.0202C119.257 85.4402 119.094 85.8136 119 86.1402C118.907 86.4669 118.86 86.8169 118.86 87.1902C118.86 87.9369 119.07 88.5902 119.49 89.1502C119.957 89.6636 120.634 89.9202 121.52 89.9202H137.13V72.2102H143.78V89.9202H150.5V95.8702H143.78V107H137.13Z" fill="black"/>
</svg>
