<svg width="174" height="252" viewBox="0 0 174 252" fill="none" xmlns="http://www.w3.org/2000/svg">
<path d="M173.995 83.4902C173.995 37.379 135.046 0.000244141 86.9977 0.000244141C38.9496 0.000244141 0 37.379 0 83.4902C0 123.386 29.159 156.736 68.1357 165.006L65.3501 239.071C65.0832 246.129 70.7315 252 77.7861 252H96.214C103.269 252 108.917 246.133 108.65 239.071L105.864 165.006C144.841 156.736 174 123.381 174 83.4902H173.995Z" fill="#A9DFF2"/>
<path d="M56.2277 107.91C52.8211 107.91 49.7644 107.164 47.0577 105.67C44.3977 104.177 42.2744 102.147 40.6877 99.5802C39.1477 97.0136 38.3777 94.1436 38.3777 90.9702V74.0302C38.3777 70.8569 39.1477 68.0102 40.6877 65.4902C42.2744 62.9236 44.3977 60.8936 47.0577 59.4002C49.7644 57.9069 52.8211 57.1602 56.2277 57.1602C59.5877 57.1602 62.5977 57.9069 65.2577 59.4002C67.9177 60.8936 70.0177 62.9236 71.5577 65.4902C73.1444 68.0102 73.9377 70.8569 73.9377 74.0302V90.9702C73.9377 94.1436 73.1444 97.0136 71.5577 99.5802C70.0177 102.147 67.9177 104.177 65.2577 105.67C62.5977 107.164 59.5877 107.91 56.2277 107.91ZM56.2277 101.96C58.2344 101.96 60.0544 101.494 61.6877 100.56C63.3677 99.6269 64.6977 98.3902 65.6777 96.8502C66.7044 95.2636 67.2177 93.5136 67.2177 91.6002V73.4002C67.2177 71.4869 66.7044 69.7602 65.6777 68.2202C64.6977 66.6336 63.3677 65.3736 61.6877 64.4402C60.0544 63.5069 58.2344 63.0402 56.2277 63.0402C54.2211 63.0402 52.3544 63.5069 50.6277 64.4402C48.9477 65.3736 47.5944 66.6336 46.5677 68.2202C45.5877 69.7602 45.0977 71.4869 45.0977 73.4002V91.6002C45.0977 93.5136 45.5877 95.2636 46.5677 96.8502C47.5944 98.3902 48.9477 99.6269 50.6277 100.56C52.3544 101.494 54.2211 101.96 56.2277 101.96ZM80.2312 107V101.05H90.1712V63.9502H80.7212V58.0002H96.9612V101.05H105.781V107H80.2312ZM111.242 107V101.05H121.182V63.9502H111.732V58.0002H127.972V101.05H136.792V107H111.242Z" fill="black"/>
</svg>
