<svg width="174" height="252" viewBox="0 0 174 252" fill="none" xmlns="http://www.w3.org/2000/svg">
<path d="M173.995 83.4902C173.995 37.379 135.046 0.000244141 86.9977 0.000244141C38.9496 0.000244141 0 37.379 0 83.4902C0 123.386 29.159 156.736 68.1357 165.006L65.3501 239.071C65.0832 246.129 70.7315 252 77.7861 252H96.214C103.269 252 108.917 246.133 108.65 239.071L105.864 165.006C144.841 156.736 174 123.381 174 83.4902H173.995Z" fill="#FF3EB6"/>
<path d="M43.1711 107.91C39.7644 107.91 36.7078 107.164 34.0011 105.67C31.3411 104.177 29.2178 102.147 27.6311 99.5802C26.0911 97.0136 25.3211 94.1436 25.3211 90.9702V74.0302C25.3211 70.8569 26.0911 68.0102 27.6311 65.4902C29.2178 62.9236 31.3411 60.8936 34.0011 59.4002C36.7078 57.9069 39.7644 57.1602 43.1711 57.1602C46.5311 57.1602 49.5411 57.9069 52.2011 59.4002C54.8611 60.8936 56.9611 62.9236 58.5011 65.4902C60.0878 68.0102 60.8811 70.8569 60.8811 74.0302V90.9702C60.8811 94.1436 60.0878 97.0136 58.5011 99.5802C56.9611 102.147 54.8611 104.177 52.2011 105.67C49.5411 107.164 46.5311 107.91 43.1711 107.91ZM43.1711 101.96C45.1778 101.96 46.9978 101.494 48.6311 100.56C50.3111 99.6269 51.6411 98.3902 52.6211 96.8502C53.6478 95.2636 54.1611 93.5136 54.1611 91.6002V73.4002C54.1611 71.4869 53.6478 69.7602 52.6211 68.2202C51.6411 66.6336 50.3111 65.3736 48.6311 64.4402C46.9978 63.5069 45.1778 63.0402 43.1711 63.0402C41.1644 63.0402 39.2978 63.5069 37.5711 64.4402C35.8911 65.3736 34.5378 66.6336 33.5111 68.2202C32.5311 69.7602 32.0411 71.4869 32.0411 73.4002V91.6002C32.0411 93.5136 32.5311 95.2636 33.5111 96.8502C34.5378 98.3902 35.8911 99.6269 37.5711 100.56C39.2978 101.494 41.1644 101.96 43.1711 101.96ZM87.5117 107.91C84.1051 107.91 81.0484 107.164 78.3417 105.67C75.6817 104.177 73.5584 102.147 71.9717 99.5802C70.4317 97.0136 69.6617 94.1436 69.6617 90.9702V74.0302C69.6617 70.8569 70.4317 68.0102 71.9717 65.4902C73.5584 62.9236 75.6817 60.8936 78.3417 59.4002C81.0484 57.9069 84.1051 57.1602 87.5117 57.1602C90.8717 57.1602 93.8817 57.9069 96.5417 59.4002C99.2017 60.8936 101.302 62.9236 102.842 65.4902C104.428 68.0102 105.222 70.8569 105.222 74.0302V90.9702C105.222 94.1436 104.428 97.0136 102.842 99.5802C101.302 102.147 99.2017 104.177 96.5417 105.67C93.8817 107.164 90.8717 107.91 87.5117 107.91ZM87.5117 101.96C89.5184 101.96 91.3384 101.494 92.9717 100.56C94.6517 99.6269 95.9817 98.3902 96.9617 96.8502C97.9884 95.2636 98.5017 93.5136 98.5017 91.6002V73.4002C98.5017 71.4869 97.9884 69.7602 96.9617 68.2202C95.9817 66.6336 94.6517 65.3736 92.9717 64.4402C91.3384 63.5069 89.5184 63.0402 87.5117 63.0402C85.5051 63.0402 83.6384 63.5069 81.9117 64.4402C80.2317 65.3736 78.8784 66.6336 77.8517 68.2202C76.8717 69.7602 76.3817 71.4869 76.3817 73.4002V91.6002C76.3817 93.5136 76.8717 95.2636 77.8517 96.8502C78.8784 98.3902 80.2317 99.6269 81.9117 100.56C83.6384 101.494 85.5051 101.96 87.5117 101.96ZM123.522 107L136.962 86.7702C135.889 87.6569 134.722 88.2869 133.462 88.6602C132.202 89.0336 130.896 89.2202 129.542 89.2202C126.042 89.2202 123.032 88.5202 120.512 87.1202C117.992 85.6736 116.056 83.7369 114.702 81.3102C113.396 78.8836 112.742 76.2469 112.742 73.4002C112.742 70.5069 113.442 67.8236 114.842 65.3502C116.242 62.8769 118.296 60.8936 121.002 59.4002C123.709 57.9069 126.976 57.1602 130.802 57.1602C134.302 57.1602 137.406 57.8369 140.112 59.1902C142.866 60.5436 145.012 62.4569 146.552 64.9302C148.139 67.3569 148.932 70.2036 148.932 73.4702C148.932 75.4769 148.652 77.4136 148.092 79.2802C147.579 81.1469 146.809 83.0136 145.782 84.8802C144.802 86.7002 143.612 88.6369 142.212 90.6902L131.292 107H123.522ZM130.732 83.4802C132.926 83.4802 134.886 83.0602 136.612 82.2202C138.386 81.3336 139.762 80.1436 140.742 78.6502C141.722 77.1569 142.212 75.4302 142.212 73.4702C142.212 71.3236 141.722 69.4802 140.742 67.9402C139.762 66.3536 138.409 65.1402 136.682 64.3002C134.956 63.4602 132.996 63.0402 130.802 63.0402C128.282 63.0402 126.182 63.5302 124.502 64.5102C122.822 65.4902 121.539 66.7736 120.652 68.3602C119.812 69.9002 119.392 71.5569 119.392 73.3302C119.392 75.1036 119.812 76.7602 120.652 78.3002C121.492 79.8402 122.752 81.1002 124.432 82.0802C126.112 83.0136 128.212 83.4802 130.732 83.4802Z" fill="black"/>
</svg>
