<svg width="174" height="252" viewBox="0 0 174 252" fill="none" xmlns="http://www.w3.org/2000/svg">
<path d="M173.995 83.4902C173.995 37.379 135.046 0.000244141 86.9977 0.000244141C38.9496 0.000244141 0 37.379 0 83.4902C0 123.386 29.159 156.736 68.1357 165.006L65.3501 239.071C65.0832 246.129 70.7315 252 77.7861 252H96.214C103.269 252 108.917 246.133 108.65 239.071L105.864 165.006C144.841 156.736 174 123.381 174 83.4902H173.995Z" fill="#DFBAFE"/>
<path d="M49.5627 107.91C46.156 107.91 43.0994 107.164 40.3927 105.67C37.7327 104.177 35.6094 102.147 34.0227 99.5802C32.4827 97.0136 31.7127 94.1436 31.7127 90.9702V74.0302C31.7127 70.8569 32.4827 68.0102 34.0227 65.4902C35.6094 62.9236 37.7327 60.8936 40.3927 59.4002C43.0994 57.9069 46.156 57.1602 49.5627 57.1602C52.9227 57.1602 55.9327 57.9069 58.5927 59.4002C61.2527 60.8936 63.3527 62.9236 64.8927 65.4902C66.4794 68.0102 67.2727 70.8569 67.2727 74.0302V90.9702C67.2727 94.1436 66.4794 97.0136 64.8927 99.5802C63.3527 102.147 61.2527 104.177 58.5927 105.67C55.9327 107.164 52.9227 107.91 49.5627 107.91ZM49.5627 101.96C51.5694 101.96 53.3894 101.494 55.0227 100.56C56.7027 99.6269 58.0327 98.3902 59.0127 96.8502C60.0394 95.2636 60.5527 93.5136 60.5527 91.6002V73.4002C60.5527 71.4869 60.0394 69.7602 59.0127 68.2202C58.0327 66.6336 56.7027 65.3736 55.0227 64.4402C53.3894 63.5069 51.5694 63.0402 49.5627 63.0402C47.556 63.0402 45.6894 63.5069 43.9627 64.4402C42.2827 65.3736 40.9294 66.6336 39.9027 68.2202C38.9227 69.7602 38.4327 71.4869 38.4327 73.4002V91.6002C38.4327 93.5136 38.9227 95.2636 39.9027 96.8502C40.9294 98.3902 42.2827 99.6269 43.9627 100.56C45.6894 101.494 47.556 101.96 49.5627 101.96ZM73.5661 107V101.05H83.5061V63.9502H74.0561V58.0002H90.2961V101.05H99.1161V107H73.5661ZM123.547 107.91C120.14 107.91 117.083 107.164 114.377 105.67C111.717 104.177 109.593 102.147 108.007 99.5802C106.467 97.0136 105.697 94.1436 105.697 90.9702V74.0302C105.697 70.8569 106.467 68.0102 108.007 65.4902C109.593 62.9236 111.717 60.8936 114.377 59.4002C117.083 57.9069 120.14 57.1602 123.547 57.1602C126.907 57.1602 129.917 57.9069 132.577 59.4002C135.237 60.8936 137.337 62.9236 138.877 65.4902C140.463 68.0102 141.257 70.8569 141.257 74.0302V90.9702C141.257 94.1436 140.463 97.0136 138.877 99.5802C137.337 102.147 135.237 104.177 132.577 105.67C129.917 107.164 126.907 107.91 123.547 107.91ZM123.547 101.96C125.553 101.96 127.373 101.494 129.007 100.56C130.687 99.6269 132.017 98.3902 132.997 96.8502C134.023 95.2636 134.537 93.5136 134.537 91.6002V73.4002C134.537 71.4869 134.023 69.7602 132.997 68.2202C132.017 66.6336 130.687 65.3736 129.007 64.4402C127.373 63.5069 125.553 63.0402 123.547 63.0402C121.54 63.0402 119.673 63.5069 117.947 64.4402C116.267 65.3736 114.913 66.6336 113.887 68.2202C112.907 69.7602 112.417 71.4869 112.417 73.4002V91.6002C112.417 93.5136 112.907 95.2636 113.887 96.8502C114.913 98.3902 116.267 99.6269 117.947 100.56C119.673 101.494 121.54 101.96 123.547 101.96Z" fill="black"/>
</svg>
