<svg width="175" height="252" viewBox="0 0 175 252" fill="none" xmlns="http://www.w3.org/2000/svg">
<path d="M174.495 83.4902C174.495 37.379 135.546 0.000244141 87.4977 0.000244141C39.4496 0.000244141 0.5 37.379 0.5 83.4902C0.5 123.386 29.659 156.736 68.6357 165.006L65.8501 239.071C65.5832 246.129 71.2315 252 78.2861 252H96.714C103.769 252 109.417 246.133 109.15 239.071L106.364 165.006C145.341 156.736 174.5 123.381 174.5 83.4902H174.495Z" fill="#EAEAEA"/>
<path d="M45.9953 107.91C42.5886 107.91 39.532 107.164 36.8253 105.67C34.1653 104.177 32.042 102.147 30.4553 99.5802C28.9153 97.0136 28.1453 94.1436 28.1453 90.9702V74.0302C28.1453 70.8569 28.9153 67.9869 30.4553 65.4202C32.042 62.8536 34.1653 60.8469 36.8253 59.4002C39.532 57.9069 42.5886 57.1602 45.9953 57.1602C49.3553 57.1602 52.3653 57.9069 55.0253 59.4002C57.6853 60.8936 59.7853 62.9236 61.3253 65.4902C62.912 68.0102 63.7053 70.8569 63.7053 74.0302V90.9702C63.7053 94.1436 62.912 97.0136 61.3253 99.5802C59.7853 102.147 57.6853 104.177 55.0253 105.67C52.3653 107.164 49.3553 107.91 45.9953 107.91ZM45.9953 101.96C48.002 101.96 49.822 101.494 51.4553 100.56C53.1353 99.6269 54.4653 98.3902 55.4453 96.8502C56.472 95.2636 56.9853 93.5136 56.9853 91.6002V73.4002C56.9853 71.4869 56.472 69.7602 55.4453 68.2202C54.4653 66.6336 53.1353 65.3736 51.4553 64.4402C49.822 63.5069 48.002 63.0402 45.9953 63.0402C43.9886 63.0402 42.122 63.5069 40.3953 64.4402C38.7153 65.3736 37.362 66.6336 36.3353 68.2202C35.3553 69.7602 34.8653 71.4869 34.8653 73.4002V91.6002C34.8653 93.5136 35.3553 95.2636 36.3353 96.8502C37.362 98.3902 38.7153 99.6269 40.3953 100.56C42.0753 101.494 43.942 101.96 45.9953 101.96ZM90.3359 107.91C86.9293 107.91 83.8726 107.164 81.1659 105.67C78.5059 104.177 76.3826 102.147 74.7959 99.5802C73.2559 97.0136 72.4859 94.1436 72.4859 90.9702V74.0302C72.4859 70.8569 73.2559 67.9869 74.7959 65.4202C76.3826 62.8536 78.5059 60.8469 81.1659 59.4002C83.8726 57.9069 86.9293 57.1602 90.3359 57.1602C93.6959 57.1602 96.7059 57.9069 99.3659 59.4002C102.026 60.8936 104.126 62.9236 105.666 65.4902C107.253 68.0102 108.046 70.8569 108.046 74.0302V90.9702C108.046 94.1436 107.253 97.0136 105.666 99.5802C104.126 102.147 102.026 104.177 99.3659 105.67C96.7059 107.164 93.6959 107.91 90.3359 107.91ZM90.3359 101.96C92.3426 101.96 94.1626 101.494 95.7959 100.56C97.4759 99.6269 98.8059 98.3902 99.7859 96.8502C100.813 95.2636 101.326 93.5136 101.326 91.6002V73.4002C101.326 71.4869 100.813 69.7602 99.7859 68.2202C98.8059 66.6336 97.4759 65.3736 95.7959 64.4402C94.1626 63.5069 92.3426 63.0402 90.3359 63.0402C88.3293 63.0402 86.4626 63.5069 84.7359 64.4402C83.0559 65.3736 81.7026 66.6336 80.6759 68.2202C79.6959 69.7602 79.2059 71.4869 79.2059 73.4002V91.6002C79.2059 93.5136 79.6959 95.2636 80.6759 96.8502C81.7026 98.3902 83.0559 99.6269 84.7359 100.56C86.4159 101.494 88.2826 101.96 90.3359 101.96ZM115.707 107V101.05H132.087C133.72 101.05 135.12 100.677 136.287 99.9302C137.5 99.1836 138.433 98.2036 139.087 96.9902C139.74 95.7769 140.067 94.4702 140.067 93.0702C140.067 91.6236 139.74 90.2936 139.087 89.0802C138.433 87.8202 137.477 86.8169 136.217 86.0702C134.957 85.2769 133.463 84.8802 131.737 84.8802H118.227V78.9302H132.227C133.86 78.9302 135.26 78.5802 136.427 77.8802C137.593 77.1802 138.48 76.2702 139.087 75.1502C139.74 73.9836 140.067 72.7469 140.067 71.4402C140.067 70.1336 139.74 68.9202 139.087 67.8002C138.48 66.6336 137.593 65.7002 136.427 65.0002C135.26 64.3002 133.86 63.9502 132.227 63.9502H115.707V58.0002H133.137C135.797 58.0002 138.153 58.6302 140.207 59.8902C142.26 61.1036 143.87 62.7369 145.037 64.7902C146.203 66.7969 146.787 68.9902 146.787 71.3702C146.787 73.7502 146.203 75.8736 145.037 77.7402C143.87 79.5602 142.26 81.0302 140.207 82.1502C141.653 82.8036 142.867 83.7136 143.847 84.8802C144.827 86.0469 145.55 87.3302 146.017 88.7302C146.53 90.1302 146.787 91.5769 146.787 93.0702C146.787 95.5436 146.203 97.8536 145.037 100C143.87 102.1 142.26 103.804 140.207 105.11C138.153 106.37 135.773 107 133.067 107H115.707Z" fill="black"/>
</svg>
