<svg width="174" height="252" viewBox="0 0 174 252" fill="none" xmlns="http://www.w3.org/2000/svg">
<path d="M173.995 83.4902C173.995 37.379 135.046 0.000244141 86.9977 0.000244141C38.9496 0.000244141 0 37.379 0 83.4902C0 123.386 29.159 156.736 68.1357 165.006L65.3501 239.071C65.0832 246.129 70.7315 252 77.7861 252H96.214C103.269 252 108.917 246.133 108.65 239.071L105.864 165.006C144.841 156.736 174 123.381 174 83.4902H173.995Z" fill="#FB4A4C"/>
<path d="M42.4191 107.91C39.0125 107.91 35.9558 107.164 33.2491 105.67C30.5891 104.177 28.4658 102.147 26.8791 99.5802C25.3391 97.0136 24.5691 94.1436 24.5691 90.9702V74.0302C24.5691 70.8569 25.3391 68.0102 26.8791 65.4902C28.4658 62.9236 30.5891 60.8936 33.2491 59.4002C35.9558 57.9069 39.0125 57.1602 42.4191 57.1602C45.7791 57.1602 48.7891 57.9069 51.4491 59.4002C54.1091 60.8936 56.2091 62.9236 57.7491 65.4902C59.3358 68.0102 60.1291 70.8569 60.1291 74.0302V90.9702C60.1291 94.1436 59.3358 97.0136 57.7491 99.5802C56.2091 102.147 54.1091 104.177 51.4491 105.67C48.7891 107.164 45.7791 107.91 42.4191 107.91ZM42.4191 101.96C44.4258 101.96 46.2458 101.494 47.8791 100.56C49.5591 99.6269 50.8891 98.3902 51.8691 96.8502C52.8958 95.2636 53.4091 93.5136 53.4091 91.6002V73.4002C53.4091 71.4869 52.8958 69.7602 51.8691 68.2202C50.8891 66.6336 49.5591 65.3736 47.8791 64.4402C46.2458 63.5069 44.4258 63.0402 42.4191 63.0402C40.4125 63.0402 38.5458 63.5069 36.8191 64.4402C35.1391 65.3736 33.7858 66.6336 32.7591 68.2202C31.7791 69.7602 31.2891 71.4869 31.2891 73.4002V91.6002C31.2891 93.5136 31.7791 95.2636 32.7591 96.8502C33.7858 98.3902 35.1391 99.6269 36.8191 100.56C38.5458 101.494 40.4125 101.96 42.4191 101.96ZM86.7598 107.91C83.3531 107.91 80.2964 107.164 77.5898 105.67C74.9298 104.177 72.8064 102.147 71.2198 99.5802C69.6798 97.0136 68.9098 94.1436 68.9098 90.9702V74.0302C68.9098 70.8569 69.6798 68.0102 71.2198 65.4902C72.8064 62.9236 74.9298 60.8936 77.5898 59.4002C80.2964 57.9069 83.3531 57.1602 86.7598 57.1602C90.1198 57.1602 93.1298 57.9069 95.7898 59.4002C98.4498 60.8936 100.55 62.9236 102.09 65.4902C103.676 68.0102 104.47 70.8569 104.47 74.0302V90.9702C104.47 94.1436 103.676 97.0136 102.09 99.5802C100.55 102.147 98.4498 104.177 95.7898 105.67C93.1298 107.164 90.1198 107.91 86.7598 107.91ZM86.7598 101.96C88.7664 101.96 90.5864 101.494 92.2198 100.56C93.8998 99.6269 95.2298 98.3902 96.2098 96.8502C97.2364 95.2636 97.7498 93.5136 97.7498 91.6002V73.4002C97.7498 71.4869 97.2364 69.7602 96.2098 68.2202C95.2298 66.6336 93.8998 65.3736 92.2198 64.4402C90.5864 63.5069 88.7664 63.0402 86.7598 63.0402C84.7531 63.0402 82.8864 63.5069 81.1598 64.4402C79.4798 65.3736 78.1264 66.6336 77.0998 68.2202C76.1198 69.7602 75.6298 71.4869 75.6298 73.4002V91.6002C75.6298 93.5136 76.1198 95.2636 77.0998 96.8502C78.1264 98.3902 79.4798 99.6269 81.1598 100.56C82.8864 101.494 84.7531 101.96 86.7598 101.96ZM130.82 107.84C126.947 107.84 123.634 107.164 120.88 105.81C118.127 104.457 116.004 102.66 114.51 100.42C113.064 98.1336 112.34 95.6836 112.34 93.0702C112.34 91.4836 112.62 89.9669 113.18 88.5202C113.74 87.0269 114.604 85.6736 115.77 84.4602C116.984 83.2002 118.524 82.1269 120.39 81.2402C118.104 80.0269 116.4 78.5102 115.28 76.6902C114.16 74.8702 113.6 72.9569 113.6 70.9502C113.6 68.4769 114.277 66.2136 115.63 64.1602C117.03 62.0602 119.014 60.3802 121.58 59.1202C124.147 57.8136 127.227 57.1602 130.82 57.1602C134.46 57.1602 137.564 57.8136 140.13 59.1202C142.697 60.3802 144.657 62.0602 146.01 64.1602C147.364 66.2136 148.04 68.4769 148.04 70.9502C148.04 72.9569 147.48 74.8702 146.36 76.6902C145.287 78.5102 143.584 80.0269 141.25 81.2402C143.164 82.1269 144.704 83.2002 145.87 84.4602C147.084 85.6736 147.97 87.0269 148.53 88.5202C149.09 89.9669 149.37 91.4836 149.37 93.0702C149.37 95.6836 148.624 98.1336 147.13 100.42C145.684 102.66 143.584 104.457 140.83 105.81C138.077 107.164 134.74 107.84 130.82 107.84ZM130.82 101.96C133.387 101.96 135.534 101.54 137.26 100.7C139.034 99.8136 140.364 98.6936 141.25 97.3402C142.184 95.9869 142.65 94.5402 142.65 93.0002C142.65 90.4802 141.624 88.3802 139.57 86.7002C137.517 85.0202 134.6 84.1802 130.82 84.1802C127.087 84.1802 124.194 85.0202 122.14 86.7002C120.087 88.3802 119.06 90.4802 119.06 93.0002C119.06 94.5402 119.504 95.9869 120.39 97.3402C121.324 98.6936 122.654 99.8136 124.38 100.7C126.154 101.54 128.3 101.96 130.82 101.96ZM130.82 78.4402C134.18 78.4402 136.77 77.7402 138.59 76.3402C140.457 74.9402 141.39 73.0969 141.39 70.8102C141.39 69.4102 140.97 68.1502 140.13 67.0302C139.337 65.8636 138.147 64.9302 136.56 64.2302C135.02 63.4836 133.107 63.1102 130.82 63.1102C128.58 63.1102 126.667 63.4836 125.08 64.2302C123.54 64.9302 122.35 65.8636 121.51 67.0302C120.717 68.1502 120.32 69.4102 120.32 70.8102C120.32 73.0969 121.23 74.9402 123.05 76.3402C124.917 77.7402 127.507 78.4402 130.82 78.4402Z" fill="black"/>
</svg>
