<svg width="226" height="38" viewBox="0 0 226 38" fill="none" xmlns="http://www.w3.org/2000/svg">
<rect width="226" height="37.7541" rx="18.877" fill="#64D92D"/>
<path d="M76.2705 26.8231C75.2038 26.8098 74.2305 26.6231 73.3505 26.2631C72.4705 25.8898 71.7105 25.3831 71.0705 24.7431C70.4438 24.1031 69.9571 23.3631 69.6105 22.5231C69.2771 21.6831 69.1105 20.7831 69.1105 19.8231C69.1105 18.8631 69.2771 17.9631 69.6105 17.1231C69.9571 16.2831 70.4438 15.5431 71.0705 14.9031C71.7105 14.2631 72.4705 13.7631 73.3505 13.4031C74.2305 13.0298 75.2038 12.8365 76.2705 12.8231H78.0705V14.5231H76.3305C75.5705 14.5231 74.8705 14.6631 74.2305 14.9431C73.5905 15.2098 73.0305 15.5831 72.5505 16.0631C72.0838 16.5298 71.7171 17.0831 71.4505 17.7231C71.1838 18.3631 71.0505 19.0631 71.0505 19.8231C71.0505 20.5698 71.1838 21.2698 71.4505 21.9231C71.7171 22.5631 72.0838 23.1231 72.5505 23.6031C73.0305 24.0698 73.5905 24.4365 74.2305 24.7031C74.8705 24.9698 75.5705 25.1098 76.3305 25.1231H78.0705V26.8231H76.2705ZM84.7439 27.0631C83.7039 27.0631 82.7839 26.8298 81.9839 26.3631C81.1839 25.8831 80.5506 25.2431 80.0839 24.4431C79.6173 23.6298 79.3839 22.7231 79.3839 21.7231C79.3839 20.7231 79.6173 19.8231 80.0839 19.0231C80.5506 18.2098 81.1839 17.5698 81.9839 17.1031C82.7839 16.6231 83.7039 16.3831 84.7439 16.3831C85.7839 16.3831 86.7039 16.6231 87.5039 17.1031C88.3173 17.5698 88.9506 18.2098 89.4039 19.0231C89.8706 19.8231 90.1039 20.7231 90.1039 21.7231C90.1039 22.7231 89.8706 23.6298 89.4039 24.4431C88.9506 25.2431 88.3173 25.8831 87.5039 26.3631C86.7039 26.8298 85.7839 27.0631 84.7439 27.0631ZM84.7439 25.4831C85.4506 25.4831 86.0639 25.3165 86.5839 24.9831C87.1039 24.6498 87.5106 24.2031 87.8039 23.6431C88.0973 23.0698 88.2439 22.4298 88.2439 21.7231C88.2439 21.0165 88.0973 20.3831 87.8039 19.8231C87.5106 19.2498 87.1039 18.7965 86.5839 18.4631C86.0639 18.1298 85.4506 17.9631 84.7439 17.9631C84.0506 17.9631 83.4373 18.1298 82.9039 18.4631C82.3839 18.7965 81.9773 19.2498 81.6839 19.8231C81.3906 20.3831 81.2439 21.0165 81.2439 21.7231C81.2439 22.4298 81.3906 23.0698 81.6839 23.6431C81.9773 24.2031 82.3839 24.6498 82.9039 24.9831C83.4373 25.3165 84.0506 25.4831 84.7439 25.4831ZM92.1635 26.8231V20.6831C92.1635 19.8965 92.3435 19.1765 92.7035 18.5231C93.0635 17.8698 93.5835 17.3498 94.2635 16.9631C94.9435 16.5765 95.7635 16.3831 96.7235 16.3831C97.1901 16.3831 97.6568 16.4498 98.1235 16.5831C98.5901 16.7031 99.0235 16.9165 99.4235 17.2231C99.8235 17.5165 100.143 17.9165 100.383 18.4231H100.403C100.67 17.9165 101.003 17.5165 101.403 17.2231C101.803 16.9165 102.237 16.7031 102.703 16.5831C103.17 16.4498 103.643 16.3831 104.123 16.3831C105.07 16.3831 105.883 16.5765 106.563 16.9631C107.243 17.3498 107.763 17.8698 108.123 18.5231C108.483 19.1765 108.663 19.8965 108.663 20.6831V26.8231H106.823V20.6831C106.823 20.1765 106.703 19.7165 106.463 19.3031C106.223 18.8898 105.897 18.5631 105.483 18.3231C105.083 18.0831 104.623 17.9631 104.103 17.9631C103.597 17.9631 103.13 18.0898 102.703 18.3431C102.277 18.5831 101.937 18.9098 101.683 19.3231C101.443 19.7231 101.323 20.1765 101.323 20.6831V26.8231H99.4835V20.6831C99.4835 20.1765 99.3568 19.7231 99.1035 19.3231C98.8635 18.9098 98.5301 18.5831 98.1035 18.3431C97.6901 18.0898 97.2235 17.9631 96.7035 17.9631C96.1968 17.9631 95.7368 18.0831 95.3235 18.3231C94.9235 18.5631 94.6035 18.8898 94.3635 19.3031C94.1235 19.7165 94.0035 20.1765 94.0035 20.6831V26.8231H92.1635ZM116.438 16.3831C115.451 16.3831 114.564 16.5965 113.778 17.0231C112.991 17.4498 112.364 18.0698 111.898 18.8831C111.444 19.6831 111.218 20.6498 111.218 21.7831V31.2231H113.058V25.0031H113.098C113.324 25.4165 113.618 25.7765 113.978 26.0831C114.351 26.3898 114.771 26.6298 115.238 26.8031C115.718 26.9765 116.218 27.0631 116.738 27.0631C117.684 27.0631 118.531 26.8498 119.278 26.4231C120.024 25.9965 120.611 25.3965 121.038 24.6231C121.478 23.8365 121.698 22.9098 121.698 21.8431C121.698 21.0031 121.564 20.2498 121.298 19.5831C121.044 18.9031 120.684 18.3231 120.218 17.8431C119.751 17.3631 119.198 17.0031 118.558 16.7631C117.918 16.5098 117.211 16.3831 116.438 16.3831ZM116.438 17.9631C117.064 17.9631 117.631 18.1165 118.138 18.4231C118.658 18.7298 119.071 19.1631 119.378 19.7231C119.684 20.2831 119.838 20.9498 119.838 21.7231C119.838 22.4698 119.684 23.1231 119.378 23.6831C119.084 24.2431 118.684 24.6831 118.178 25.0031C117.671 25.3231 117.098 25.4831 116.458 25.4831C115.831 25.4831 115.258 25.3298 114.738 25.0231C114.231 24.7165 113.824 24.2831 113.518 23.7231C113.224 23.1498 113.078 22.4765 113.078 21.7031C113.078 20.9431 113.224 20.2831 113.518 19.7231C113.824 19.1631 114.231 18.7298 114.738 18.4231C115.258 18.1165 115.824 17.9631 116.438 17.9631ZM123.751 26.8231V12.2231H125.591V26.8231H123.751ZM133.397 26.8231C132.277 26.8231 131.283 26.6165 130.417 26.2031C129.55 25.7765 128.87 25.1831 128.377 24.4231C127.897 23.6498 127.657 22.7498 127.657 21.7231C127.657 20.7098 127.863 19.8031 128.277 19.0031C128.69 18.1898 129.263 17.5498 129.997 17.0831C130.73 16.6165 131.583 16.3831 132.557 16.3831C133.61 16.3831 134.483 16.6098 135.177 17.0631C135.883 17.5165 136.41 18.1298 136.757 18.9031C137.103 19.6631 137.277 20.5165 137.277 21.4631C137.277 21.6098 137.27 21.7631 137.257 21.9231C137.257 22.0831 137.243 22.2231 137.217 22.3431H129.617C129.683 22.9698 129.89 23.5031 130.237 23.9431C130.583 24.3698 131.023 24.6965 131.557 24.9231C132.103 25.1365 132.703 25.2431 133.357 25.2431H136.017V26.8231H133.397ZM129.597 21.0431H135.417C135.417 20.7898 135.39 20.5231 135.337 20.2431C135.283 19.9498 135.19 19.6698 135.057 19.4031C134.923 19.1231 134.743 18.8765 134.517 18.6631C134.303 18.4365 134.03 18.2565 133.697 18.1231C133.377 17.9898 132.997 17.9231 132.557 17.9231C132.09 17.9231 131.677 18.0165 131.317 18.2031C130.97 18.3765 130.67 18.6165 130.417 18.9231C130.163 19.2165 129.97 19.5498 129.837 19.9231C129.703 20.2965 129.623 20.6698 129.597 21.0431ZM142.803 26.8231C141.896 26.8231 141.183 26.5631 140.663 26.0431C140.156 25.5231 139.903 24.8165 139.903 23.9231V14.0631H141.743V23.8031C141.743 24.2431 141.863 24.5965 142.103 24.8631C142.356 25.1165 142.703 25.2431 143.143 25.2431H145.203V26.8231H142.803ZM138.143 18.2031V16.6231H145.243V18.2031H138.143ZM152.035 26.8231C150.915 26.8231 149.922 26.6165 149.055 26.2031C148.188 25.7765 147.508 25.1831 147.015 24.4231C146.535 23.6498 146.295 22.7498 146.295 21.7231C146.295 20.7098 146.502 19.8031 146.915 19.0031C147.328 18.1898 147.902 17.5498 148.635 17.0831C149.368 16.6165 150.222 16.3831 151.195 16.3831C152.248 16.3831 153.122 16.6098 153.815 17.0631C154.522 17.5165 155.048 18.1298 155.395 18.9031C155.742 19.6631 155.915 20.5165 155.915 21.4631C155.915 21.6098 155.908 21.7631 155.895 21.9231C155.895 22.0831 155.882 22.2231 155.855 22.3431H148.255C148.322 22.9698 148.528 23.5031 148.875 23.9431C149.222 24.3698 149.662 24.6965 150.195 24.9231C150.742 25.1365 151.342 25.2431 151.995 25.2431H154.655V26.8231H152.035ZM148.235 21.0431H154.055C154.055 20.7898 154.028 20.5231 153.975 20.2431C153.922 19.9498 153.828 19.6698 153.695 19.4031C153.562 19.1231 153.382 18.8765 153.155 18.6631C152.942 18.4365 152.668 18.2565 152.335 18.1231C152.015 17.9898 151.635 17.9231 151.195 17.9231C150.728 17.9231 150.315 18.0165 149.955 18.2031C149.608 18.3765 149.308 18.6165 149.055 18.9231C148.802 19.2165 148.608 19.5498 148.475 19.9231C148.342 20.2965 148.262 20.6698 148.235 21.0431Z" fill="black"/>
</svg>
