<svg width="226" height="38" viewBox="0 0 226 38" fill="none" xmlns="http://www.w3.org/2000/svg">
<path d="M207.123 0.143921H18.877C8.45152 0.143921 0 8.59544 0 19.0209V19.021C0 29.4465 8.45152 37.898 18.877 37.898H207.123C217.548 37.898 226 29.4465 226 19.0209C226 8.59544 217.548 0.143921 207.123 0.143921Z" fill="#CACACA"/>
<path d="M0 18.9482C0 8.48338 8.48339 0 18.9482 0H121.268V37.8963H18.9482C8.48338 37.8963 0 29.413 0 18.9482Z" fill="#FFAE35"/>
<path d="M47.248 27V25.464H50.584V11.736H47.248V10.2H55.648V11.736H52.312V25.464H55.648V27H47.248ZM58.7464 27V19.872C58.7464 18.752 58.9944 17.792 59.4904 16.992C60.0024 16.176 60.6824 15.552 61.5304 15.12C62.3784 14.672 63.3144 14.448 64.3384 14.448C65.3784 14.448 66.3144 14.672 67.1464 15.12C67.9944 15.552 68.6664 16.176 69.1624 16.992C69.6744 17.792 69.9304 18.752 69.9304 19.872V27H68.2504V19.944C68.2504 19.096 68.0664 18.376 67.6984 17.784C67.3304 17.176 66.8424 16.712 66.2344 16.392C65.6424 16.072 65.0024 15.912 64.3144 15.912C63.6424 15.912 63.0104 16.072 62.4184 16.392C61.8264 16.696 61.3464 17.152 60.9784 17.76C60.6104 18.352 60.4264 19.08 60.4264 19.944V27H58.7464ZM80.0288 27V10.2H87.1328C88.1568 10.2 89.0928 10.432 89.9408 10.896C90.7888 11.36 91.4608 12.008 91.9568 12.84C92.4688 13.656 92.7248 14.608 92.7248 15.696C92.7248 16.752 92.4768 17.696 91.9808 18.528C91.5008 19.36 90.8288 20.008 89.9648 20.472C89.1168 20.936 88.1408 21.168 87.0368 21.168H81.7568V27H80.0288ZM81.7568 19.632H86.8448C87.6128 19.632 88.3088 19.48 88.9328 19.176C89.5568 18.856 90.0528 18.408 90.4208 17.832C90.8048 17.24 90.9968 16.528 90.9968 15.696C90.9968 14.864 90.8048 14.16 90.4208 13.584C90.0528 12.992 89.5568 12.536 88.9328 12.216C88.3248 11.896 87.6528 11.736 86.9168 11.736H81.7568V19.632ZM95.6359 27V18.24C95.6359 17.152 95.9399 16.304 96.5479 15.696C97.1719 15.072 98.0279 14.76 99.1159 14.76H101.228V16.224H99.4519C98.7479 16.224 98.2119 16.416 97.8439 16.8C97.4919 17.184 97.3159 17.728 97.3159 18.432V27H95.6359ZM109.107 27.312C107.875 27.312 106.779 27.032 105.819 26.472C104.859 25.896 104.107 25.12 103.563 24.144C103.019 23.168 102.747 22.08 102.747 20.88C102.747 19.68 103.019 18.592 103.563 17.616C104.107 16.64 104.859 15.872 105.819 15.312C106.779 14.736 107.875 14.448 109.107 14.448C110.339 14.448 111.427 14.736 112.371 15.312C113.331 15.872 114.083 16.64 114.627 17.616C115.187 18.576 115.467 19.664 115.467 20.88C115.467 22.08 115.187 23.168 114.627 24.144C114.083 25.12 113.331 25.896 112.371 26.472C111.427 27.032 110.339 27.312 109.107 27.312ZM109.107 25.848C110.019 25.848 110.827 25.632 111.531 25.2C112.235 24.752 112.779 24.152 113.163 23.4C113.563 22.648 113.763 21.808 113.763 20.88C113.763 19.952 113.563 19.112 113.163 18.36C112.779 17.608 112.235 17.016 111.531 16.584C110.827 16.136 110.019 15.912 109.107 15.912C108.179 15.912 107.363 16.136 106.659 16.584C105.971 17.016 105.427 17.608 105.027 18.36C104.643 19.112 104.451 19.952 104.451 20.88C104.451 21.808 104.643 22.648 105.027 23.4C105.427 24.152 105.971 24.752 106.659 25.2C107.363 25.632 108.179 25.848 109.107 25.848ZM120.384 31.872V30.408H126.216C127 30.408 127.6 30.184 128.016 29.736C128.432 29.288 128.64 28.68 128.64 27.912V24.408H128.592C128.304 24.872 127.936 25.32 127.488 25.752C127.04 26.184 126.504 26.536 125.88 26.808C125.272 27.08 124.568 27.216 123.768 27.216C122.584 27.216 121.544 26.944 120.648 26.4C119.768 25.84 119.08 25.08 118.584 24.12C118.104 23.16 117.864 22.064 117.864 20.832C117.864 19.632 118.112 18.56 118.608 17.616C119.104 16.656 119.816 15.896 120.744 15.336C121.672 14.776 122.784 14.496 124.08 14.496C125.312 14.496 126.392 14.768 127.32 15.312C128.264 15.856 129 16.608 129.528 17.568C130.056 18.512 130.32 19.608 130.32 20.856V28.104C130.32 29.256 129.984 30.168 129.312 30.84C128.64 31.528 127.72 31.872 126.552 31.872H120.384ZM124.032 25.752C124.928 25.752 125.72 25.536 126.408 25.104C127.096 24.672 127.632 24.096 128.016 23.376C128.416 22.64 128.616 21.8 128.616 20.856C128.616 19.912 128.424 19.072 128.04 18.336C127.672 17.6 127.144 17.016 126.456 16.584C125.768 16.152 124.968 15.936 124.056 15.936C123.128 15.936 122.32 16.16 121.632 16.608C120.96 17.04 120.448 17.632 120.096 18.384C119.744 19.12 119.568 19.968 119.568 20.928C119.568 21.824 119.744 22.64 120.096 23.376C120.448 24.096 120.96 24.672 121.632 25.104C122.304 25.536 123.104 25.752 124.032 25.752ZM133.909 27V18.24C133.909 17.152 134.213 16.304 134.821 15.696C135.445 15.072 136.301 14.76 137.389 14.76H139.501V16.224H137.725C137.021 16.224 136.485 16.416 136.117 16.8C135.765 17.184 135.589 17.728 135.589 18.432V27H133.909ZM147.884 27C146.572 27 145.396 26.76 144.356 26.28C143.332 25.784 142.516 25.08 141.908 24.168C141.316 23.256 141.02 22.16 141.02 20.88C141.02 19.696 141.26 18.624 141.74 17.664C142.22 16.688 142.892 15.912 143.756 15.336C144.636 14.76 145.66 14.472 146.828 14.472C148.028 14.472 149.044 14.736 149.876 15.264C150.708 15.792 151.34 16.504 151.772 17.4C152.204 18.296 152.42 19.304 152.42 20.424C152.42 20.584 152.412 20.76 152.396 20.952C152.38 21.144 152.356 21.312 152.324 21.456H142.796C142.844 22.352 143.1 23.104 143.564 23.712C144.028 24.32 144.628 24.776 145.364 25.08C146.116 25.384 146.924 25.536 147.788 25.536H150.884V27H147.884ZM142.796 20.256H150.716C150.716 19.936 150.684 19.584 150.62 19.2C150.556 18.8 150.436 18.408 150.26 18.024C150.1 17.64 149.868 17.288 149.564 16.968C149.276 16.648 148.9 16.392 148.436 16.2C147.988 15.992 147.436 15.888 146.78 15.888C146.172 15.888 145.62 16.016 145.124 16.272C144.628 16.528 144.212 16.872 143.876 17.304C143.54 17.72 143.276 18.184 143.084 18.696C142.908 19.208 142.812 19.728 142.796 20.256ZM155.162 27V25.536H160.922C161.418 25.536 161.834 25.432 162.17 25.224C162.506 25.016 162.762 24.744 162.938 24.408C163.13 24.072 163.226 23.728 163.226 23.376C163.226 23.024 163.146 22.704 162.986 22.416C162.826 22.112 162.594 21.864 162.29 21.672C161.986 21.48 161.602 21.384 161.138 21.384H158.57C157.786 21.384 157.106 21.256 156.53 21C155.97 20.728 155.538 20.344 155.234 19.848C154.946 19.352 154.802 18.776 154.802 18.12C154.802 17.528 154.946 16.976 155.234 16.464C155.522 15.952 155.93 15.544 156.458 15.24C156.986 14.92 157.602 14.76 158.306 14.76H163.85V16.224H158.474C157.85 16.224 157.362 16.416 157.01 16.8C156.658 17.168 156.482 17.592 156.482 18.072C156.482 18.536 156.658 18.952 157.01 19.32C157.362 19.688 157.89 19.872 158.594 19.872H160.994C161.858 19.872 162.578 20.016 163.154 20.304C163.746 20.592 164.186 20.992 164.474 21.504C164.778 22.016 164.93 22.616 164.93 23.304C164.93 23.928 164.77 24.528 164.45 25.104C164.13 25.664 163.69 26.12 163.13 26.472C162.586 26.824 161.946 27 161.21 27H155.162ZM167.701 27V25.536H173.461C173.957 25.536 174.373 25.432 174.709 25.224C175.045 25.016 175.301 24.744 175.477 24.408C175.669 24.072 175.765 23.728 175.765 23.376C175.765 23.024 175.685 22.704 175.525 22.416C175.365 22.112 175.133 21.864 174.829 21.672C174.525 21.48 174.141 21.384 173.677 21.384H171.109C170.325 21.384 169.645 21.256 169.069 21C168.509 20.728 168.077 20.344 167.773 19.848C167.485 19.352 167.341 18.776 167.341 18.12C167.341 17.528 167.485 16.976 167.773 16.464C168.061 15.952 168.469 15.544 168.997 15.24C169.525 14.92 170.141 14.76 170.845 14.76H176.389V16.224H171.013C170.389 16.224 169.901 16.416 169.549 16.8C169.197 17.168 169.021 17.592 169.021 18.072C169.021 18.536 169.197 18.952 169.549 19.32C169.901 19.688 170.429 19.872 171.133 19.872H173.533C174.397 19.872 175.117 20.016 175.693 20.304C176.285 20.592 176.725 20.992 177.013 21.504C177.317 22.016 177.469 22.616 177.469 23.304C177.469 23.928 177.309 24.528 176.989 25.104C176.669 25.664 176.229 26.12 175.669 26.472C175.125 26.824 174.485 27 173.749 27H167.701Z" fill="black"/>
</svg>
