<svg width="226" height="38" viewBox="0 0 226 38" fill="none" xmlns="http://www.w3.org/2000/svg">
<rect y="0.143921" width="226" height="37.7541" rx="18.877" fill="#CACACA"/>
<path d="M0 18.9482C0 8.48338 8.48339 0 18.9482 0H121.268V37.8963H18.9482C8.48338 37.8963 0 29.413 0 18.9482Z" fill="#FFAE35"/>
<path d="M75.8201 27.2012V13.2012H81.7201C82.6001 13.2012 83.4001 13.4012 84.1201 13.8012C84.8401 14.1878 85.4134 14.7345 85.8401 15.4412C86.2668 16.1478 86.4801 16.9745 86.4801 17.9212C86.4801 18.8412 86.2668 19.6545 85.8401 20.3612C85.4268 21.0678 84.8601 21.6212 84.1401 22.0212C83.4201 22.4212 82.6001 22.6212 81.6801 22.6212H77.7401V27.2012H75.8201ZM77.7401 20.9212H81.4601C82.0334 20.9212 82.5534 20.8078 83.0201 20.5812C83.5001 20.3412 83.8734 19.9945 84.1401 19.5412C84.4201 19.0878 84.5601 18.5478 84.5601 17.9212C84.5601 17.2812 84.4201 16.7412 84.1401 16.3012C83.8734 15.8478 83.5001 15.5012 83.0201 15.2612C82.5534 15.0212 82.0401 14.9012 81.4801 14.9012H77.7401V20.9212ZM93.2182 27.2012C92.0982 27.2012 91.1049 26.9945 90.2382 26.5812C89.3716 26.1545 88.6916 25.5612 88.1982 24.8012C87.7182 24.0278 87.4782 23.1278 87.4782 22.1012C87.4782 21.0878 87.6849 20.1812 88.0982 19.3812C88.5116 18.5678 89.0849 17.9278 89.8182 17.4612C90.5516 16.9945 91.4049 16.7612 92.3782 16.7612C93.4316 16.7612 94.3049 16.9878 94.9982 17.4412C95.7049 17.8945 96.2316 18.5078 96.5782 19.2812C96.9249 20.0412 97.0982 20.8945 97.0982 21.8412C97.0982 21.9878 97.0916 22.1412 97.0782 22.3012C97.0782 22.4612 97.0649 22.6012 97.0382 22.7212H89.4382C89.5049 23.3478 89.7116 23.8812 90.0582 24.3212C90.4049 24.7478 90.8449 25.0745 91.3782 25.3012C91.9249 25.5145 92.5249 25.6212 93.1782 25.6212H95.8382V27.2012H93.2182ZM89.4182 21.4212H95.2382C95.2382 21.1678 95.2116 20.9012 95.1582 20.6212C95.1049 20.3278 95.0116 20.0478 94.8782 19.7812C94.7449 19.5012 94.5649 19.2545 94.3382 19.0412C94.1249 18.8145 93.8516 18.6345 93.5182 18.5012C93.1982 18.3678 92.8182 18.3012 92.3782 18.3012C91.9116 18.3012 91.4982 18.3945 91.1382 18.5812C90.7916 18.7545 90.4916 18.9945 90.2382 19.3012C89.9849 19.5945 89.7916 19.9278 89.6582 20.3012C89.5249 20.6745 89.4449 21.0478 89.4182 21.4212ZM99.1445 27.2012V21.3012C99.1445 20.3945 99.3445 19.6012 99.7445 18.9212C100.158 18.2412 100.724 17.7145 101.444 17.3412C102.164 16.9545 102.984 16.7612 103.904 16.7612C104.838 16.7612 105.658 16.9545 106.364 17.3412C107.084 17.7145 107.644 18.2412 108.044 18.9212C108.458 19.6012 108.664 20.3945 108.664 21.3012V27.2012H106.824V21.3212C106.824 20.7078 106.684 20.1812 106.404 19.7412C106.138 19.2878 105.778 18.9412 105.324 18.7012C104.884 18.4612 104.411 18.3412 103.904 18.3412C103.398 18.3412 102.918 18.4612 102.464 18.7012C102.024 18.9412 101.664 19.2878 101.384 19.7412C101.118 20.1812 100.984 20.7078 100.984 21.3212V27.2012H99.1445ZM115.986 27.4412C116.973 27.4412 117.859 27.2278 118.646 26.8012C119.433 26.3745 120.053 25.7612 120.506 24.9612C120.973 24.1478 121.206 23.1745 121.206 22.0412V12.6012H119.366V18.8212H119.326C119.099 18.4078 118.799 18.0478 118.426 17.7412C118.066 17.4345 117.646 17.1945 117.166 17.0212C116.699 16.8478 116.206 16.7612 115.686 16.7612C114.739 16.7612 113.893 16.9745 113.146 17.4012C112.399 17.8278 111.806 18.4345 111.366 19.2212C110.939 19.9945 110.726 20.9145 110.726 21.9812C110.726 22.8212 110.853 23.5812 111.106 24.2612C111.373 24.9278 111.739 25.5012 112.206 25.9812C112.673 26.4612 113.226 26.8278 113.866 27.0812C114.506 27.3212 115.213 27.4412 115.986 27.4412ZM115.986 25.8612C115.359 25.8612 114.786 25.7078 114.266 25.4012C113.759 25.0945 113.353 24.6612 113.046 24.1012C112.739 23.5412 112.586 22.8745 112.586 22.1012C112.586 21.3545 112.733 20.7012 113.026 20.1412C113.333 19.5812 113.739 19.1412 114.246 18.8212C114.753 18.5012 115.326 18.3412 115.966 18.3412C116.593 18.3412 117.159 18.4945 117.666 18.8012C118.186 19.1078 118.593 19.5478 118.886 20.1212C119.193 20.6812 119.346 21.3478 119.346 22.1212C119.346 22.8812 119.193 23.5412 118.886 24.1012C118.593 24.6612 118.186 25.0945 117.666 25.4012C117.159 25.7078 116.599 25.8612 115.986 25.8612ZM123.759 27.2012V17.0012H125.619V27.2012H123.759ZM124.699 15.3812C124.366 15.3812 124.073 15.2612 123.819 15.0212C123.579 14.7678 123.459 14.4745 123.459 14.1412C123.459 13.8078 123.579 13.5212 123.819 13.2812C124.073 13.0278 124.366 12.9012 124.699 12.9012C125.033 12.9012 125.319 13.0278 125.559 13.2812C125.813 13.5212 125.939 13.8078 125.939 14.1412C125.939 14.4745 125.813 14.7678 125.559 15.0212C125.319 15.2612 125.033 15.3812 124.699 15.3812ZM128.225 27.2012V21.3012C128.225 20.3945 128.425 19.6012 128.825 18.9212C129.238 18.2412 129.805 17.7145 130.525 17.3412C131.245 16.9545 132.065 16.7612 132.985 16.7612C133.918 16.7612 134.738 16.9545 135.445 17.3412C136.165 17.7145 136.725 18.2412 137.125 18.9212C137.538 19.6012 137.745 20.3945 137.745 21.3012V27.2012H135.905V21.3212C135.905 20.7078 135.765 20.1812 135.485 19.7412C135.218 19.2878 134.858 18.9412 134.405 18.7012C133.965 18.4612 133.492 18.3412 132.985 18.3412C132.478 18.3412 131.998 18.4612 131.545 18.7012C131.105 18.9412 130.745 19.2878 130.465 19.7412C130.198 20.1812 130.065 20.7078 130.065 21.3212V27.2012H128.225ZM141.906 31.2612V29.6812H146.906C147.4 29.6812 147.78 29.5345 148.046 29.2412C148.326 28.9478 148.466 28.5612 148.466 28.0812V25.2812H148.426C148.173 25.6678 147.866 26.0145 147.506 26.3212C147.146 26.6278 146.733 26.8745 146.266 27.0612C145.8 27.2345 145.273 27.3212 144.686 27.3212C143.726 27.3212 142.88 27.1012 142.146 26.6612C141.413 26.2078 140.84 25.5878 140.426 24.8012C140.013 24.0012 139.806 23.0878 139.806 22.0612C139.806 21.0612 140.013 20.1612 140.426 19.3612C140.84 18.5612 141.433 17.9278 142.206 17.4612C142.993 16.9945 143.94 16.7612 145.046 16.7612C146.113 16.7612 147.04 16.9878 147.826 17.4412C148.613 17.8945 149.22 18.5278 149.646 19.3412C150.086 20.1412 150.306 21.0812 150.306 22.1612V28.2012C150.306 29.1345 150.033 29.8745 149.486 30.4212C148.94 30.9812 148.193 31.2612 147.246 31.2612H141.906ZM145.026 25.7412C145.706 25.7412 146.3 25.5812 146.806 25.2612C147.326 24.9412 147.726 24.5078 148.006 23.9612C148.3 23.4012 148.446 22.7745 148.446 22.0812C148.446 21.3745 148.306 20.7412 148.026 20.1812C147.746 19.6212 147.353 19.1812 146.846 18.8612C146.34 18.5278 145.733 18.3612 145.026 18.3612C144.333 18.3612 143.733 18.5278 143.226 18.8612C142.733 19.1812 142.346 19.6278 142.066 20.2012C141.8 20.7612 141.666 21.3945 141.666 22.1012C141.666 22.7678 141.8 23.3812 142.066 23.9412C142.346 24.4878 142.733 24.9278 143.226 25.2612C143.733 25.5812 144.333 25.7412 145.026 25.7412Z" fill="black"/>
</svg>
