<svg width="26" height="17" viewBox="0 0 26 17" fill="none" xmlns="http://www.w3.org/2000/svg">
<path d="M25.4574 2.65557C25.3094 2.14135 25.0192 1.6724 24.6158 1.29567C24.2125 0.91894 23.7102 0.647638 23.1592 0.508917C21.1308 1.03264e-07 13 0 13 0C13 0 4.8692 -1.03264e-07 2.84085 0.50621C2.28957 0.644481 1.78699 0.915632 1.38359 1.29243C0.980185 1.66923 0.690158 2.13842 0.542634 2.65287C-1.10694e-07 4.54777 0 8.5 0 8.5C0 8.5 -1.10694e-07 12.4522 0.542634 14.3444C0.841518 15.3893 1.72366 16.2123 2.84085 16.4911C4.8692 17 13 17 13 17C13 17 21.1308 17 23.1592 16.4911C24.2792 16.2123 25.1585 15.3893 25.4574 14.3444C26 12.4522 26 8.5 26 8.5C26 8.5 26 4.54777 25.4574 2.65557ZM10.4174 12.1274V4.87261L17.1496 8.47293L10.4174 12.1274Z" fill="white"/>
</svg>
